<svg width="342" height="342" viewBox="0 0 342 342" fill="none" xmlns="http://www.w3.org/2000/svg">
<rect width="342" height="342" fill="#FFD32A"/>
<path d="M176.428 171.612C176.428 187.874 161.642 196.484 161.642 209.852H134.78C134.78 197.273 117.452 187.874 117.452 171.612C117.452 155.351 130.656 142.18 146.945 142.18C163.235 142.18 176.428 155.371 176.428 171.612Z" fill="#FFFDFD" stroke="#0B1F42" stroke-width="2" stroke-linecap="round" stroke-linejoin="round"/>
<path d="M161.64 209.863V230.045H155.824H140.593H134.778V209.863H161.64Z" fill="#0B1F42" stroke="#0B1F42" stroke-width="2" stroke-linecap="round" stroke-linejoin="round"/>
<path d="M140.594 230.043H155.826C155.826 234.229 152.413 237.636 148.22 237.636C144.026 237.636 140.594 234.229 140.594 230.043Z" fill="#FFFDFD" stroke="#0B1F42" stroke-width="2" stroke-linecap="round" stroke-linejoin="round"/>
<g clip-path="url(#clip0_8458_5351)">
<rect x="138.512" y="166.199" width="16.8653" height="27.5834" rx="8.43263" fill="#0B1F42"/>
<path d="M141.595 162.053H141.594C140.092 162.053 138.874 163.254 138.874 164.736V171.809C138.874 173.291 140.092 174.492 141.594 174.492H141.595C143.097 174.492 144.315 173.291 144.315 171.809L144.315 164.736C144.315 163.254 143.097 162.053 141.595 162.053Z" fill="#FFFDFD" stroke="#0B1F42" stroke-width="3" stroke-linecap="round" stroke-linejoin="round"/>
<path d="M141.595 184.744H141.594C140.092 184.744 138.874 185.945 138.874 187.427V194.501C138.874 195.983 140.092 197.184 141.594 197.184H141.595C143.097 197.184 144.315 195.983 144.315 194.501L144.315 187.427C144.315 185.945 143.097 184.744 141.595 184.744Z" fill="#FFFDFD" stroke="#0B1F42" stroke-width="3" stroke-linecap="round" stroke-linejoin="round"/>
<path d="M147.037 162.053H147.036C145.534 162.053 144.316 163.254 144.316 164.736V171.809C144.316 173.291 145.534 174.492 147.036 174.492H147.037C148.539 174.492 149.757 173.291 149.757 171.809L149.757 164.736C149.757 163.254 148.539 162.053 147.037 162.053Z" fill="#FFFDFD" stroke="#0B1F42" stroke-width="3" stroke-linecap="round" stroke-linejoin="round"/>
<path d="M147.037 184.744H147.036C145.534 184.744 144.316 185.945 144.316 187.427V194.501C144.316 195.983 145.534 197.184 147.036 197.184H147.037C148.539 197.184 149.757 195.983 149.757 194.501L149.757 187.427C149.757 185.945 148.539 184.744 147.037 184.744Z" fill="#FFFDFD" stroke="#0B1F42" stroke-width="3" stroke-linecap="round" stroke-linejoin="round"/>
<path d="M152.478 162.053H152.477C150.975 162.053 149.758 163.254 149.758 164.736V171.809C149.758 173.291 150.975 174.492 152.477 174.492H152.478C153.98 174.492 155.198 173.291 155.198 171.809L155.198 164.736C155.198 163.254 153.98 162.053 152.478 162.053Z" fill="#FFFDFD" stroke="#0B1F42" stroke-width="3" stroke-linecap="round" stroke-linejoin="round"/>
<path d="M152.478 184.744H152.477C150.975 184.744 149.758 185.945 149.758 187.427V194.501C149.758 195.983 150.975 197.184 152.477 197.184H152.478C153.98 197.184 155.198 195.983 155.198 194.501L155.198 187.427C155.198 185.945 153.98 184.744 152.478 184.744Z" fill="#FFFDFD" stroke="#0B1F42" stroke-width="3" stroke-linecap="round" stroke-linejoin="round"/>
</g>
<rect x="138.512" y="166.199" width="16.8653" height="27.5834" rx="8.43263" stroke="#0B1F42" stroke-width="2" stroke-linecap="round" stroke-linejoin="round"/>
<path d="M156.67 159.813L164.574 157.533" stroke="#0B1F42" stroke-width="2" stroke-linecap="round" stroke-linejoin="round"/>
<path d="M138.735 159.813L130.831 157.533" stroke="#0B1F42" stroke-width="2" stroke-linecap="round" stroke-linejoin="round"/>
<path d="M183.258 114.128V168.272L194.933 157.879H237.404C242.794 157.879 247.167 153.505 247.167 148.114V114.128C247.167 108.737 242.794 104.363 237.404 104.363H193.021C187.631 104.363 183.258 108.737 183.258 114.128Z" fill="#FFFDFD" stroke="#0B1F42" stroke-width="2" stroke-linecap="round" stroke-linejoin="round"/>
<path d="M210.289 115.684H226.575L218.578 126.787H228.728L205.767 150.752L212.845 132.343H205.767L210.289 115.684Z" fill="#0B1F42" stroke="#0B1F42" stroke-width="2" stroke-linecap="round" stroke-linejoin="round"/>
<path d="M77.2344 53.4062V30.125H93.9375V34.25H82.0469V39.6406H93.0469V43.6562H82.0469V49.2812H93.9375V53.4062H77.2344ZM101.938 53.4062C98.1719 53.4062 96.5938 52.125 96.5938 48.9375V30.125H101.203V48.5C101.203 49.5312 101.563 49.875 102.594 49.875H103.266V53.4062H101.938ZM112.875 53.7812C107.875 53.7812 104.625 50.1875 104.625 45.1719C104.625 40.1406 107.984 36.5312 112.719 36.5312C117.578 36.5312 120.844 40.0469 120.844 45.0781V46.3125H109.109C109.188 48.75 110.594 50.3281 113.016 50.3281C114.813 50.3281 116.047 49.5 116.469 48.2188H120.672C120.063 51.5 116.875 53.7812 112.875 53.7812ZM109.141 43.375H116.5C116.266 41.3125 114.891 40.0312 112.813 40.0312C110.75 40.0312 109.391 41.3125 109.141 43.375ZM123.313 53.4062V30.125H127.922V43.2188H127.969L133.75 36.9062H139.156L132.703 44.0625L139.5 53.4062H134.109L129.25 46.7031L127.922 48.1719V53.4062H123.313ZM150.422 36.9062V40.5156H147.047V48.3125C147.047 49.4375 147.406 49.7969 148.656 49.7969H150.422V53.4062H147.734C144.109 53.4062 142.438 52.0312 142.438 49.0312V40.5156H139.594V36.9062H142.438V32.4062H147.047V36.9062H150.422ZM152.75 53.4062V36.9062H157.188V39.7188H157.234C157.844 37.7344 159.094 36.7969 161.266 36.7969C161.797 36.7969 162.25 36.8125 162.625 36.8281V40.75C162.281 40.7344 161.422 40.6719 160.641 40.6719C158.75 40.6719 157.359 41.9844 157.359 44.4688V53.4062H152.75ZM172.188 53.7812C167.188 53.7812 163.813 50.3438 163.813 45.1719C163.813 40 167.188 36.5312 172.188 36.5312C177.203 36.5312 180.578 40 180.578 45.1719C180.578 50.3438 177.203 53.7812 172.188 53.7812ZM172.188 50.0469C174.438 50.0469 175.938 48.2344 175.938 45.1719C175.938 42.0938 174.422 40.2656 172.188 40.2656C169.969 40.2656 168.453 42.0938 168.453 45.1719C168.453 48.2344 169.953 50.0469 172.188 50.0469ZM182.281 53.4062V50.3125L190.469 40.6094V40.5625H182.281V36.9062H195.891V40.1719L187.875 49.7188V49.7656H196.016V53.4062H182.281ZM187.047 29.9844L189.078 32.5938L191.172 29.9844H194.797V30L190.922 34.7031H187.234L183.438 30V29.9844H187.047ZM199.156 53.4062V36.9062H203.594V39.7188H203.641C204.25 37.7344 205.5 36.7969 207.672 36.7969C208.203 36.7969 208.656 36.8125 209.031 36.8281V40.75C208.688 40.7344 207.828 40.6719 207.047 40.6719C205.156 40.6719 203.766 41.9844 203.766 44.4688V53.4062H199.156ZM218.594 53.7812C213.594 53.7812 210.219 50.3438 210.219 45.1719C210.219 40 213.594 36.5312 218.594 36.5312C223.609 36.5312 226.984 40 226.984 45.1719C226.984 50.3438 223.609 53.7812 218.594 53.7812ZM218.594 50.0469C220.844 50.0469 222.344 48.2344 222.344 45.1719C222.344 42.0938 220.828 40.2656 218.594 40.2656C216.375 40.2656 214.859 42.0938 214.859 45.1719C214.859 48.2344 216.359 50.0469 218.594 50.0469ZM237.266 53.75C232.469 53.75 229.531 51.0625 229.531 46.7656V36.9062H234.141V46.4844C234.141 48.6406 235.25 49.9219 237.266 49.9219C239.281 49.9219 240.406 48.6406 240.406 46.4844V36.9062H245V46.7656C245 51.0625 242.063 53.75 237.266 53.75ZM257.766 36.9062V40.5156H254.391V48.3125C254.391 49.4375 254.75 49.7969 256 49.7969H257.766V53.4062H255.078C251.453 53.4062 249.781 52.0312 249.781 49.0312V40.5156H246.938V36.9062H249.781V32.4062H254.391V36.9062H257.766ZM260.094 53.4062V36.9062H264.703V53.4062H260.094ZM262.391 34.8281C260.875 34.8281 259.766 33.7812 259.766 32.375C259.766 30.9688 260.875 29.9219 262.391 29.9219C263.906 29.9219 265.016 30.9688 265.016 32.375C265.016 33.7812 263.906 34.8281 262.391 34.8281Z" fill="#0B1F42"/>
<path d="M60.2024 290.738V289.716L66.4751 280.352H60.1342V279.102H68.157V280.125L61.8842 289.488H68.2251V290.738H60.2024ZM70.407 282.011H71.7479V291.375C71.7479 291.913 71.6551 292.378 71.4695 292.772C71.2876 293.166 71.0111 293.471 70.6399 293.687C70.2725 293.903 69.8085 294.011 69.2479 294.011C69.2024 294.011 69.157 294.011 69.1115 294.011C69.0661 294.011 69.0206 294.011 68.9751 294.011V292.761C69.0206 292.761 69.0623 292.761 69.1001 292.761C69.138 292.761 69.1797 292.761 69.2251 292.761C69.6342 292.761 69.9335 292.64 70.1229 292.397C70.3123 292.159 70.407 291.818 70.407 291.375V282.011ZM71.0661 280.556C70.8047 280.556 70.5793 280.467 70.3899 280.289C70.2043 280.111 70.1115 279.897 70.1115 279.647C70.1115 279.397 70.2043 279.183 70.3899 279.005C70.5793 278.827 70.8047 278.738 71.0661 278.738C71.3274 278.738 71.5509 278.827 71.7365 279.005C71.9259 279.183 72.0206 279.397 72.0206 279.647C72.0206 279.897 71.9259 280.111 71.7365 280.289C71.5509 280.467 71.3274 280.556 71.0661 280.556ZM74.2038 290.738V282.011H75.5447V290.738H74.2038ZM74.8857 280.556C74.6243 280.556 74.3989 280.467 74.2095 280.289C74.0239 280.111 73.9311 279.897 73.9311 279.647C73.9311 279.397 74.0239 279.183 74.2095 279.005C74.3989 278.827 74.6243 278.738 74.8857 278.738C75.147 278.738 75.3705 278.827 75.5561 279.005C75.7455 279.183 75.8402 279.397 75.8402 279.647C75.8402 279.897 75.7455 280.111 75.5561 280.289C75.3705 280.467 75.147 280.556 74.8857 280.556ZM84.1825 283.966L82.978 284.306C82.9022 284.106 82.7905 283.911 82.6428 283.721C82.4988 283.528 82.3018 283.369 82.0518 283.244C81.8018 283.119 81.4818 283.056 81.0916 283.056C80.5575 283.056 80.1125 283.18 79.7564 283.426C79.4041 283.668 79.228 283.977 79.228 284.352C79.228 284.685 79.3492 284.949 79.5916 285.142C79.834 285.335 80.2128 285.496 80.728 285.625L82.0234 285.943C82.8037 286.132 83.3852 286.422 83.7678 286.812C84.1503 287.199 84.3416 287.697 84.3416 288.306C84.3416 288.806 84.1977 289.253 83.9098 289.647C83.6257 290.041 83.228 290.352 82.7166 290.579C82.2053 290.806 81.6106 290.92 80.9325 290.92C80.0424 290.92 79.3056 290.727 78.7223 290.341C78.139 289.954 77.7696 289.39 77.6143 288.647L78.8871 288.329C79.0083 288.799 79.2375 289.151 79.5746 289.386C79.9155 289.621 80.3606 289.738 80.9098 289.738C81.5348 289.738 82.031 289.606 82.3984 289.341C82.7696 289.072 82.9553 288.75 82.9553 288.375C82.9553 288.072 82.8492 287.818 82.6371 287.613C82.425 287.405 82.0992 287.25 81.6598 287.147L80.2053 286.806C79.406 286.617 78.8189 286.324 78.4439 285.926C78.0727 285.524 77.8871 285.022 77.8871 284.42C77.8871 283.928 78.0253 283.492 78.3018 283.113C78.5821 282.734 78.9628 282.437 79.4439 282.221C79.9287 282.005 80.478 281.897 81.0916 281.897C81.9553 281.897 82.6333 282.087 83.1257 282.466C83.6219 282.844 83.9742 283.344 84.1825 283.966ZM90.1555 282.011V283.147H85.6328V282.011H90.1555ZM86.951 279.92H88.2919V288.238C88.2919 288.617 88.3468 288.901 88.4567 289.091C88.5703 289.276 88.7143 289.401 88.8885 289.466C89.0665 289.526 89.254 289.556 89.451 289.556C89.5987 289.556 89.7199 289.549 89.8146 289.534C89.9093 289.515 89.9851 289.5 90.0419 289.488L90.3146 290.693C90.2237 290.727 90.0968 290.761 89.9339 290.795C89.7711 290.833 89.5646 290.852 89.3146 290.852C88.9358 290.852 88.5646 290.77 88.201 290.608C87.8411 290.445 87.5419 290.197 87.3033 289.863C87.0684 289.53 86.951 289.109 86.951 288.602V279.92ZM95.7379 290.92C94.897 290.92 94.1716 290.734 93.5618 290.363C92.9557 289.988 92.4879 289.466 92.1584 288.795C91.8326 288.121 91.6697 287.337 91.6697 286.443C91.6697 285.549 91.8326 284.761 92.1584 284.079C92.4879 283.394 92.9463 282.859 93.5334 282.477C94.1243 282.091 94.8137 281.897 95.6016 281.897C96.0561 281.897 96.505 281.973 96.9482 282.125C97.3913 282.276 97.7947 282.522 98.1584 282.863C98.522 283.2 98.8118 283.647 99.0277 284.204C99.2436 284.761 99.3516 285.447 99.3516 286.261V286.829H92.6243V285.67H97.9879C97.9879 285.178 97.8894 284.738 97.6925 284.352C97.4993 283.966 97.2228 283.661 96.8629 283.437C96.5069 283.214 96.0864 283.102 95.6016 283.102C95.0675 283.102 94.6054 283.234 94.2152 283.5C93.8288 283.761 93.5315 284.102 93.3232 284.522C93.1148 284.943 93.0107 285.394 93.0107 285.875V286.647C93.0107 287.306 93.1243 287.865 93.3516 288.324C93.5826 288.778 93.9027 289.125 94.3118 289.363C94.7209 289.598 95.1963 289.716 95.7379 289.716C96.0902 289.716 96.4084 289.666 96.6925 289.568C96.9804 289.466 97.2285 289.314 97.4368 289.113C97.6451 288.909 97.8061 288.655 97.9197 288.352L99.2152 288.716C99.0788 289.155 98.8497 289.541 98.5277 289.875C98.2057 290.204 97.808 290.462 97.3345 290.647C96.861 290.829 96.3288 290.92 95.7379 290.92ZM94.3516 278.511L95.5334 280.102L96.7152 278.511H97.9879V278.602L96.147 280.966H94.9197L93.0788 278.602V278.511H94.3516ZM105.187 282.011V283.147H100.664V282.011H105.187ZM101.982 279.92H103.323V288.238C103.323 288.617 103.378 288.901 103.488 289.091C103.602 289.276 103.746 289.401 103.92 289.466C104.098 289.526 104.285 289.556 104.482 289.556C104.63 289.556 104.751 289.549 104.846 289.534C104.941 289.515 105.016 289.5 105.073 289.488L105.346 290.693C105.255 290.727 105.128 290.761 104.965 290.795C104.802 290.833 104.596 290.852 104.346 290.852C103.967 290.852 103.596 290.77 103.232 290.608C102.872 290.445 102.573 290.197 102.335 289.863C102.1 289.53 101.982 289.109 101.982 288.602V279.92ZM110.769 290.92C109.928 290.92 109.203 290.734 108.593 290.363C107.987 289.988 107.519 289.466 107.19 288.795C106.864 288.121 106.701 287.337 106.701 286.443C106.701 285.549 106.864 284.761 107.19 284.079C107.519 283.394 107.978 282.859 108.565 282.477C109.156 282.091 109.845 281.897 110.633 281.897C111.087 281.897 111.536 281.973 111.979 282.125C112.423 282.276 112.826 282.522 113.19 282.863C113.553 283.2 113.843 283.647 114.059 284.204C114.275 284.761 114.383 285.447 114.383 286.261V286.829H107.656V285.67H113.019C113.019 285.178 112.921 284.738 112.724 284.352C112.531 283.966 112.254 283.661 111.894 283.437C111.538 283.214 111.118 283.102 110.633 283.102C110.099 283.102 109.637 283.234 109.246 283.5C108.86 283.761 108.563 284.102 108.354 284.522C108.146 284.943 108.042 285.394 108.042 285.875V286.647C108.042 287.306 108.156 287.865 108.383 288.324C108.614 288.778 108.934 289.125 109.343 289.363C109.752 289.598 110.228 289.716 110.769 289.716C111.121 289.716 111.44 289.666 111.724 289.568C112.012 289.466 112.26 289.314 112.468 289.113C112.676 288.909 112.837 288.655 112.951 288.352L114.246 288.716C114.11 289.155 113.881 289.541 113.559 289.875C113.237 290.204 112.839 290.462 112.366 290.647C111.892 290.829 111.36 290.92 110.769 290.92ZM118.354 289.147L118.263 289.761C118.199 290.193 118.101 290.655 117.968 291.147C117.839 291.64 117.705 292.104 117.565 292.539C117.424 292.975 117.309 293.322 117.218 293.579H116.195C116.245 293.337 116.309 293.017 116.388 292.619C116.468 292.221 116.548 291.776 116.627 291.284C116.71 290.795 116.779 290.295 116.832 289.784L116.9 289.147H118.354ZM126.579 287.556L126.556 285.897H126.829L130.647 282.011H132.306L128.238 286.125H128.124L126.579 287.556ZM125.329 290.738V279.102H126.67V290.738H125.329ZM130.874 290.738L127.465 286.42L128.42 285.488L132.579 290.738H130.874ZM137.218 290.92C136.43 290.92 135.739 290.733 135.144 290.358C134.553 289.983 134.091 289.458 133.758 288.784C133.428 288.109 133.263 287.322 133.263 286.42C133.263 285.511 133.428 284.717 133.758 284.039C134.091 283.361 134.553 282.835 135.144 282.46C135.739 282.085 136.43 281.897 137.218 281.897C138.006 281.897 138.695 282.085 139.286 282.46C139.881 282.835 140.343 283.361 140.673 284.039C141.006 284.717 141.173 285.511 141.173 286.42C141.173 287.322 141.006 288.109 140.673 288.784C140.343 289.458 139.881 289.983 139.286 290.358C138.695 290.733 138.006 290.92 137.218 290.92ZM137.218 289.716C137.817 289.716 138.309 289.562 138.695 289.255C139.082 288.949 139.368 288.545 139.553 288.045C139.739 287.545 139.832 287.003 139.832 286.42C139.832 285.837 139.739 285.293 139.553 284.789C139.368 284.286 139.082 283.878 138.695 283.568C138.309 283.257 137.817 283.102 137.218 283.102C136.62 283.102 136.127 283.257 135.741 283.568C135.354 283.878 135.068 284.286 134.883 284.789C134.697 285.293 134.604 285.837 134.604 286.42C134.604 287.003 134.697 287.545 134.883 288.045C135.068 288.545 135.354 288.949 135.741 289.255C136.127 289.562 136.62 289.716 137.218 289.716ZM144.56 279.102V290.738H143.219V279.102H144.56ZM147.016 290.738V282.011H148.357V290.738H147.016ZM147.698 280.556C147.437 280.556 147.211 280.467 147.022 280.289C146.836 280.111 146.744 279.897 146.744 279.647C146.744 279.397 146.836 279.183 147.022 279.005C147.211 278.827 147.437 278.738 147.698 278.738C147.96 278.738 148.183 278.827 148.369 279.005C148.558 279.183 148.653 279.397 148.653 279.647C148.653 279.897 148.558 280.111 148.369 280.289C148.183 280.467 147.96 280.556 147.698 280.556ZM152.063 287.556L152.04 285.897H152.313L156.131 282.011H157.79L153.722 286.125H153.609L152.063 287.556ZM150.813 290.738V279.102H152.154V290.738H150.813ZM156.359 290.738L152.95 286.42L153.904 285.488L158.063 290.738H156.359ZM163.766 290.738V289.716L168.721 283.352V283.261H163.925V282.011H170.448V283.079L165.63 289.397V289.488H170.607V290.738H163.766ZM165.925 278.511L167.107 280.102L168.289 278.511H169.562V278.602L167.721 280.966H166.494L164.653 278.602V278.511H165.925ZM176.082 290.92C175.241 290.92 174.515 290.734 173.906 290.363C173.299 289.988 172.832 289.466 172.502 288.795C172.176 288.121 172.013 287.337 172.013 286.443C172.013 285.549 172.176 284.761 172.502 284.079C172.832 283.394 173.29 282.859 173.877 282.477C174.468 282.091 175.157 281.897 175.945 281.897C176.4 281.897 176.849 281.973 177.292 282.125C177.735 282.276 178.138 282.522 178.502 282.863C178.866 283.2 179.156 283.647 179.371 284.204C179.587 284.761 179.695 285.447 179.695 286.261V286.829H172.968V285.67H178.332C178.332 285.178 178.233 284.738 178.036 284.352C177.843 283.966 177.567 283.661 177.207 283.437C176.851 283.214 176.43 283.102 175.945 283.102C175.411 283.102 174.949 283.234 174.559 283.5C174.173 283.761 173.875 284.102 173.667 284.522C173.459 284.943 173.354 285.394 173.354 285.875V286.647C173.354 287.306 173.468 287.865 173.695 288.324C173.926 288.778 174.246 289.125 174.656 289.363C175.065 289.598 175.54 289.716 176.082 289.716C176.434 289.716 176.752 289.666 177.036 289.568C177.324 289.466 177.572 289.314 177.781 289.113C177.989 288.909 178.15 288.655 178.263 288.352L179.559 288.716C179.423 289.155 179.193 289.541 178.871 289.875C178.549 290.204 178.152 290.462 177.678 290.647C177.205 290.829 176.673 290.92 176.082 290.92ZM181.735 290.738V282.011H183.031V283.329H183.121C183.281 282.897 183.568 282.547 183.985 282.278C184.402 282.009 184.871 281.875 185.394 281.875C185.493 281.875 185.616 281.877 185.763 281.88C185.911 281.884 186.023 281.89 186.099 281.897V283.261C186.053 283.25 185.949 283.233 185.786 283.21C185.627 283.183 185.459 283.17 185.281 283.17C184.856 283.17 184.478 283.259 184.144 283.437C183.815 283.611 183.553 283.854 183.36 284.164C183.171 284.471 183.076 284.822 183.076 285.216V290.738H181.735ZM190.968 290.92C190.18 290.92 189.489 290.733 188.894 290.358C188.303 289.983 187.841 289.458 187.508 288.784C187.178 288.109 187.013 287.322 187.013 286.42C187.013 285.511 187.178 284.717 187.508 284.039C187.841 283.361 188.303 282.835 188.894 282.46C189.489 282.085 190.18 281.897 190.968 281.897C191.756 281.897 192.445 282.085 193.036 282.46C193.631 282.835 194.093 283.361 194.423 284.039C194.756 284.717 194.923 285.511 194.923 286.42C194.923 287.322 194.756 288.109 194.423 288.784C194.093 289.458 193.631 289.983 193.036 290.358C192.445 290.733 191.756 290.92 190.968 290.92ZM190.968 289.716C191.567 289.716 192.059 289.562 192.445 289.255C192.832 288.949 193.118 288.545 193.303 288.045C193.489 287.545 193.582 287.003 193.582 286.42C193.582 285.837 193.489 285.293 193.303 284.789C193.118 284.286 192.832 283.878 192.445 283.568C192.059 283.257 191.567 283.102 190.968 283.102C190.37 283.102 189.877 283.257 189.491 283.568C189.104 283.878 188.818 284.286 188.633 284.789C188.447 285.293 188.354 285.837 188.354 286.42C188.354 287.003 188.447 287.545 188.633 288.045C188.818 288.545 189.104 288.949 189.491 289.255C189.877 289.562 190.37 289.716 190.968 289.716ZM202.469 287.17V282.011H203.81V290.738H202.469V289.261H202.379C202.174 289.704 201.856 290.081 201.424 290.392C200.992 290.699 200.447 290.852 199.788 290.852C199.242 290.852 198.757 290.733 198.333 290.494C197.909 290.252 197.576 289.888 197.333 289.403C197.091 288.914 196.969 288.299 196.969 287.556V282.011H198.31V287.466C198.31 288.102 198.488 288.609 198.844 288.988C199.204 289.367 199.663 289.556 200.219 289.556C200.553 289.556 200.892 289.471 201.237 289.301C201.585 289.13 201.877 288.869 202.112 288.517C202.35 288.164 202.469 287.716 202.469 287.17ZM214.425 290.92C213.585 290.92 212.859 290.734 212.249 290.363C211.643 289.988 211.175 289.466 210.846 288.795C210.52 288.121 210.357 287.337 210.357 286.443C210.357 285.549 210.52 284.761 210.846 284.079C211.175 283.394 211.634 282.859 212.221 282.477C212.812 282.091 213.501 281.897 214.289 281.897C214.744 281.897 215.192 281.973 215.636 282.125C216.079 282.276 216.482 282.522 216.846 282.863C217.21 283.2 217.499 283.647 217.715 284.204C217.931 284.761 218.039 285.447 218.039 286.261V286.829H211.312V285.67H216.675C216.675 285.178 216.577 284.738 216.38 284.352C216.187 283.966 215.91 283.661 215.55 283.437C215.194 283.214 214.774 283.102 214.289 283.102C213.755 283.102 213.293 283.234 212.903 283.5C212.516 283.761 212.219 284.102 212.011 284.522C211.802 284.943 211.698 285.394 211.698 285.875V286.647C211.698 287.306 211.812 287.865 212.039 288.324C212.27 288.778 212.59 289.125 212.999 289.363C213.408 289.598 213.884 289.716 214.425 289.716C214.778 289.716 215.096 289.666 215.38 289.568C215.668 289.466 215.916 289.314 216.124 289.113C216.333 288.909 216.494 288.655 216.607 288.352L217.903 288.716C217.766 289.155 217.537 289.541 217.215 289.875C216.893 290.204 216.496 290.462 216.022 290.647C215.549 290.829 215.016 290.92 214.425 290.92ZM221.42 279.102V290.738H220.079V279.102H221.42ZM227.535 290.92C226.694 290.92 225.969 290.734 225.359 290.363C224.753 289.988 224.285 289.466 223.955 288.795C223.629 288.121 223.467 287.337 223.467 286.443C223.467 285.549 223.629 284.761 223.955 284.079C224.285 283.394 224.743 282.859 225.33 282.477C225.921 282.091 226.611 281.897 227.398 281.897C227.853 281.897 228.302 281.973 228.745 282.125C229.188 282.276 229.592 282.522 229.955 282.863C230.319 283.2 230.609 283.647 230.825 284.204C231.04 284.761 231.148 285.447 231.148 286.261V286.829H224.421V285.67H229.785C229.785 285.178 229.686 284.738 229.489 284.352C229.296 283.966 229.02 283.661 228.66 283.437C228.304 283.214 227.883 283.102 227.398 283.102C226.864 283.102 226.402 283.234 226.012 283.5C225.626 283.761 225.328 284.102 225.12 284.522C224.912 284.943 224.808 285.394 224.808 285.875V286.647C224.808 287.306 224.921 287.865 225.148 288.324C225.379 288.778 225.7 289.125 226.109 289.363C226.518 289.598 226.993 289.716 227.535 289.716C227.887 289.716 228.205 289.666 228.489 289.568C228.777 289.466 229.025 289.314 229.234 289.113C229.442 288.909 229.603 288.655 229.717 288.352L231.012 288.716C230.876 289.155 230.647 289.541 230.325 289.875C230.003 290.204 229.605 290.462 229.131 290.647C228.658 290.829 228.126 290.92 227.535 290.92ZM234.438 287.556L234.415 285.897H234.688L238.506 282.011H240.165L236.097 286.125H235.984L234.438 287.556ZM233.188 290.738V279.102H234.529V290.738H233.188ZM238.734 290.738L235.325 286.42L236.279 285.488L240.438 290.738H238.734ZM245.687 282.011V283.147H241.164V282.011H245.687ZM242.482 279.92H243.823V288.238C243.823 288.617 243.878 288.901 243.988 289.091C244.102 289.276 244.246 289.401 244.42 289.466C244.598 289.526 244.785 289.556 244.982 289.556C245.13 289.556 245.251 289.549 245.346 289.534C245.441 289.515 245.516 289.5 245.573 289.488L245.846 290.693C245.755 290.727 245.628 290.761 245.465 290.795C245.302 290.833 245.096 290.852 244.846 290.852C244.467 290.852 244.096 290.77 243.732 290.608C243.372 290.445 243.073 290.197 242.835 289.863C242.6 289.53 242.482 289.109 242.482 288.602V279.92ZM247.704 290.738V282.011H248.999V283.329H249.09C249.249 282.897 249.537 282.547 249.954 282.278C250.371 282.009 250.84 281.875 251.363 281.875C251.461 281.875 251.585 281.877 251.732 281.88C251.88 281.884 251.992 281.89 252.067 281.897V283.261C252.022 283.25 251.918 283.233 251.755 283.21C251.596 283.183 251.427 283.17 251.249 283.17C250.825 283.17 250.446 283.259 250.113 283.437C249.783 283.611 249.522 283.854 249.329 284.164C249.139 284.471 249.045 284.822 249.045 285.216V290.738H247.704ZM253.657 290.738V282.011H254.998V290.738H253.657ZM254.339 280.556C254.077 280.556 253.852 280.467 253.663 280.289C253.477 280.111 253.384 279.897 253.384 279.647C253.384 279.397 253.477 279.183 253.663 279.005C253.852 278.827 254.077 278.738 254.339 278.738C254.6 278.738 254.824 278.827 255.009 279.005C255.199 279.183 255.293 279.397 255.293 279.647C255.293 279.897 255.199 280.111 255.009 280.289C254.824 280.467 254.6 280.556 254.339 280.556ZM260.999 290.92C260.181 290.92 259.477 290.727 258.886 290.341C258.295 289.954 257.84 289.422 257.522 288.744C257.204 288.066 257.045 287.291 257.045 286.42C257.045 285.534 257.208 284.752 257.533 284.074C257.863 283.392 258.321 282.859 258.908 282.477C259.499 282.091 260.189 281.897 260.977 281.897C261.59 281.897 262.143 282.011 262.636 282.238C263.128 282.466 263.531 282.784 263.846 283.193C264.16 283.602 264.355 284.079 264.431 284.625H263.09C262.988 284.227 262.761 283.875 262.408 283.568C262.06 283.257 261.59 283.102 260.999 283.102C260.477 283.102 260.018 283.238 259.624 283.511C259.234 283.78 258.929 284.161 258.71 284.653C258.494 285.142 258.386 285.716 258.386 286.375C258.386 287.049 258.492 287.636 258.704 288.136C258.92 288.636 259.223 289.024 259.613 289.301C260.007 289.577 260.469 289.716 260.999 289.716C261.348 289.716 261.664 289.655 261.948 289.534C262.232 289.413 262.473 289.238 262.67 289.011C262.867 288.784 263.007 288.511 263.09 288.193H264.431C264.355 288.708 264.168 289.172 263.869 289.585C263.573 289.994 263.181 290.32 262.692 290.562C262.208 290.801 261.643 290.92 260.999 290.92ZM267.641 287.556L267.619 285.897H267.891L271.71 282.011H273.369L269.3 286.125H269.187L267.641 287.556ZM266.391 290.738V279.102H267.732V290.738H266.391ZM271.937 290.738L268.528 286.42L269.482 285.488L273.641 290.738H271.937ZM278.394 290.92C277.553 290.92 276.828 290.734 276.218 290.363C275.612 289.988 275.144 289.466 274.815 288.795C274.489 288.121 274.326 287.337 274.326 286.443C274.326 285.549 274.489 284.761 274.815 284.079C275.144 283.394 275.603 282.859 276.19 282.477C276.781 282.091 277.47 281.897 278.258 281.897C278.712 281.897 279.161 281.973 279.604 282.125C280.048 282.276 280.451 282.522 280.815 282.863C281.178 283.2 281.468 283.647 281.684 284.204C281.9 284.761 282.008 285.447 282.008 286.261V286.829H275.281V285.67H280.644C280.644 285.178 280.546 284.738 280.349 284.352C280.156 283.966 279.879 283.661 279.519 283.437C279.163 283.214 278.743 283.102 278.258 283.102C277.724 283.102 277.262 283.234 276.871 283.5C276.485 283.761 276.188 284.102 275.979 284.522C275.771 284.943 275.667 285.394 275.667 285.875V286.647C275.667 287.306 275.781 287.865 276.008 288.324C276.239 288.778 276.559 289.125 276.968 289.363C277.377 289.598 277.853 289.716 278.394 289.716C278.746 289.716 279.065 289.666 279.349 289.568C279.637 289.466 279.885 289.314 280.093 289.113C280.301 288.909 280.462 288.655 280.576 288.352L281.871 288.716C281.735 289.155 281.506 289.541 281.184 289.875C280.862 290.204 280.464 290.462 279.991 290.647C279.517 290.829 278.985 290.92 278.394 290.92ZM277.576 280.829L278.962 278.193H280.531L278.758 280.829H277.576ZM110.534 305.966L109.33 306.306C109.254 306.106 109.142 305.911 108.994 305.721C108.85 305.528 108.653 305.369 108.403 305.244C108.153 305.119 107.833 305.056 107.443 305.056C106.909 305.056 106.464 305.18 106.108 305.426C105.756 305.668 105.58 305.977 105.58 306.352C105.58 306.685 105.701 306.949 105.943 307.142C106.186 307.335 106.564 307.496 107.08 307.625L108.375 307.943C109.155 308.132 109.737 308.422 110.119 308.812C110.502 309.199 110.693 309.697 110.693 310.306C110.693 310.806 110.549 311.253 110.261 311.647C109.977 312.041 109.58 312.352 109.068 312.579C108.557 312.806 107.962 312.92 107.284 312.92C106.394 312.92 105.657 312.727 105.074 312.341C104.491 311.954 104.121 311.39 103.966 310.647L105.239 310.329C105.36 310.799 105.589 311.151 105.926 311.386C106.267 311.621 106.712 311.738 107.261 311.738C107.886 311.738 108.383 311.606 108.75 311.341C109.121 311.072 109.307 310.75 109.307 310.375C109.307 310.072 109.201 309.818 108.989 309.613C108.777 309.405 108.451 309.25 108.011 309.147L106.557 308.806C105.758 308.617 105.17 308.324 104.795 307.926C104.424 307.524 104.239 307.022 104.239 306.42C104.239 305.928 104.377 305.492 104.653 305.113C104.934 304.734 105.314 304.437 105.795 304.221C106.28 304.005 106.83 303.897 107.443 303.897C108.307 303.897 108.985 304.087 109.477 304.466C109.973 304.844 110.326 305.344 110.534 305.966ZM112.712 316.011V304.011H114.007V305.397H114.166C114.265 305.246 114.401 305.053 114.575 304.818C114.753 304.579 115.007 304.367 115.337 304.181C115.67 303.992 116.121 303.897 116.689 303.897C117.424 303.897 118.071 304.081 118.632 304.449C119.193 304.816 119.63 305.337 119.945 306.011C120.259 306.685 120.416 307.481 120.416 308.397C120.416 309.322 120.259 310.123 119.945 310.801C119.63 311.475 119.195 311.998 118.638 312.369C118.081 312.736 117.439 312.92 116.712 312.92C116.151 312.92 115.702 312.827 115.365 312.642C115.028 312.452 114.768 312.238 114.587 312C114.405 311.757 114.265 311.556 114.166 311.397H114.053V316.011H112.712ZM114.03 308.375C114.03 309.034 114.126 309.615 114.32 310.119C114.513 310.619 114.795 311.011 115.166 311.295C115.537 311.575 115.992 311.716 116.53 311.716C117.09 311.716 117.558 311.568 117.933 311.272C118.312 310.973 118.596 310.572 118.786 310.068C118.979 309.56 119.075 308.996 119.075 308.375C119.075 307.761 118.981 307.208 118.791 306.716C118.606 306.219 118.323 305.827 117.945 305.539C117.57 305.248 117.098 305.102 116.53 305.102C115.984 305.102 115.526 305.24 115.155 305.517C114.784 305.789 114.503 306.172 114.314 306.664C114.125 307.153 114.03 307.723 114.03 308.375ZM126.007 312.92C125.219 312.92 124.528 312.733 123.933 312.358C123.342 311.983 122.88 311.458 122.547 310.784C122.217 310.109 122.053 309.322 122.053 308.42C122.053 307.511 122.217 306.717 122.547 306.039C122.88 305.361 123.342 304.835 123.933 304.46C124.528 304.085 125.219 303.897 126.007 303.897C126.795 303.897 127.484 304.085 128.075 304.46C128.67 304.835 129.132 305.361 129.462 306.039C129.795 306.717 129.962 307.511 129.962 308.42C129.962 309.322 129.795 310.109 129.462 310.784C129.132 311.458 128.67 311.983 128.075 312.358C127.484 312.733 126.795 312.92 126.007 312.92ZM126.007 311.716C126.606 311.716 127.098 311.562 127.484 311.255C127.871 310.949 128.157 310.545 128.342 310.045C128.528 309.545 128.621 309.003 128.621 308.42C128.621 307.837 128.528 307.293 128.342 306.789C128.157 306.286 127.871 305.878 127.484 305.568C127.098 305.257 126.606 305.102 126.007 305.102C125.409 305.102 124.916 305.257 124.53 305.568C124.143 305.878 123.857 306.286 123.672 306.789C123.486 307.293 123.393 307.837 123.393 308.42C123.393 309.003 123.486 309.545 123.672 310.045C123.857 310.545 124.143 310.949 124.53 311.255C124.916 311.562 125.409 311.716 126.007 311.716ZM135.804 304.011V305.147H131.281V304.011H135.804ZM132.599 301.92H133.94V310.238C133.94 310.617 133.995 310.901 134.105 311.091C134.219 311.276 134.363 311.401 134.537 311.466C134.715 311.526 134.902 311.556 135.099 311.556C135.247 311.556 135.368 311.549 135.463 311.534C135.558 311.515 135.634 311.5 135.69 311.488L135.963 312.693C135.872 312.727 135.745 312.761 135.582 312.795C135.42 312.833 135.213 312.852 134.963 312.852C134.584 312.852 134.213 312.77 133.849 312.608C133.49 312.445 133.19 312.197 132.952 311.863C132.717 311.53 132.599 311.109 132.599 310.602V301.92ZM137.821 312.738V304.011H139.116V305.329H139.207C139.366 304.897 139.654 304.547 140.071 304.278C140.488 304.009 140.957 303.875 141.48 303.875C141.579 303.875 141.702 303.877 141.849 303.88C141.997 303.884 142.109 303.89 142.185 303.897V305.261C142.139 305.25 142.035 305.233 141.872 305.21C141.713 305.183 141.545 305.17 141.366 305.17C140.942 305.17 140.563 305.259 140.23 305.437C139.901 305.611 139.639 305.854 139.446 306.164C139.257 306.471 139.162 306.822 139.162 307.216V312.738H137.821ZM138.707 300.511L139.889 302.102L141.071 300.511H142.344V300.602L140.503 302.966H139.276L137.435 300.602V300.511H138.707ZM147.168 312.92C146.327 312.92 145.601 312.734 144.991 312.363C144.385 311.988 143.918 311.466 143.588 310.795C143.262 310.121 143.099 309.337 143.099 308.443C143.099 307.549 143.262 306.761 143.588 306.079C143.918 305.394 144.376 304.859 144.963 304.477C145.554 304.091 146.243 303.897 147.031 303.897C147.486 303.897 147.935 303.973 148.378 304.125C148.821 304.276 149.224 304.522 149.588 304.863C149.952 305.2 150.241 305.647 150.457 306.204C150.673 306.761 150.781 307.447 150.781 308.261V308.829H144.054V307.67H149.418C149.418 307.178 149.319 306.738 149.122 306.352C148.929 305.966 148.652 305.661 148.293 305.437C147.937 305.214 147.516 305.102 147.031 305.102C146.497 305.102 146.035 305.234 145.645 305.5C145.259 305.761 144.961 306.102 144.753 306.522C144.545 306.943 144.44 307.394 144.44 307.875V308.647C144.44 309.306 144.554 309.865 144.781 310.324C145.012 310.778 145.332 311.125 145.741 311.363C146.151 311.598 146.626 311.716 147.168 311.716C147.52 311.716 147.838 311.666 148.122 311.568C148.41 311.466 148.658 311.314 148.866 311.113C149.075 310.909 149.236 310.655 149.349 310.352L150.645 310.716C150.509 311.155 150.279 311.541 149.957 311.875C149.635 312.204 149.238 312.462 148.764 312.647C148.291 312.829 147.759 312.92 147.168 312.92ZM153.003 312.738V301.102H154.344V305.397H154.457C154.556 305.246 154.692 305.053 154.866 304.818C155.045 304.579 155.298 304.367 155.628 304.181C155.961 303.992 156.412 303.897 156.98 303.897C157.715 303.897 158.363 304.081 158.923 304.449C159.484 304.816 159.921 305.337 160.236 306.011C160.55 306.685 160.707 307.481 160.707 308.397C160.707 309.322 160.55 310.123 160.236 310.801C159.921 311.475 159.486 311.998 158.929 312.369C158.372 312.736 157.73 312.92 157.003 312.92C156.442 312.92 155.993 312.827 155.656 312.642C155.319 312.452 155.06 312.238 154.878 312C154.696 311.757 154.556 311.556 154.457 311.397H154.298V312.738H153.003ZM154.321 308.375C154.321 309.034 154.418 309.615 154.611 310.119C154.804 310.619 155.086 311.011 155.457 311.295C155.829 311.575 156.283 311.716 156.821 311.716C157.382 311.716 157.849 311.568 158.224 311.272C158.603 310.973 158.887 310.572 159.077 310.068C159.27 309.56 159.366 308.996 159.366 308.375C159.366 307.761 159.272 307.208 159.082 306.716C158.897 306.219 158.615 305.827 158.236 305.539C157.861 305.248 157.389 305.102 156.821 305.102C156.276 305.102 155.817 305.24 155.446 305.517C155.075 305.789 154.795 306.172 154.605 306.664C154.416 307.153 154.321 307.723 154.321 308.375ZM162.759 312.738V304.011H164.099V312.738H162.759ZM163.44 302.556C163.179 302.556 162.954 302.467 162.764 302.289C162.579 302.111 162.486 301.897 162.486 301.647C162.486 301.397 162.579 301.183 162.764 301.005C162.954 300.827 163.179 300.738 163.44 300.738C163.702 300.738 163.925 300.827 164.111 301.005C164.3 301.183 164.395 301.397 164.395 301.647C164.395 301.897 164.3 302.111 164.111 302.289C163.925 302.467 163.702 302.556 163.44 302.556ZM170.101 312.92C169.283 312.92 168.578 312.727 167.987 312.341C167.396 311.954 166.942 311.422 166.624 310.744C166.305 310.066 166.146 309.291 166.146 308.42C166.146 307.534 166.309 306.752 166.635 306.074C166.964 305.392 167.423 304.859 168.01 304.477C168.601 304.091 169.29 303.897 170.078 303.897C170.692 303.897 171.245 304.011 171.737 304.238C172.23 304.466 172.633 304.784 172.947 305.193C173.262 305.602 173.457 306.079 173.533 306.625H172.192C172.089 306.227 171.862 305.875 171.51 305.568C171.161 305.257 170.692 305.102 170.101 305.102C169.578 305.102 169.12 305.238 168.726 305.511C168.336 305.78 168.031 306.161 167.811 306.653C167.595 307.142 167.487 307.716 167.487 308.375C167.487 309.049 167.593 309.636 167.805 310.136C168.021 310.636 168.324 311.024 168.714 311.301C169.108 311.577 169.571 311.716 170.101 311.716C170.449 311.716 170.766 311.655 171.05 311.534C171.334 311.413 171.574 311.238 171.771 311.011C171.968 310.784 172.108 310.511 172.192 310.193H173.533C173.457 310.708 173.269 311.172 172.97 311.585C172.675 311.994 172.283 312.32 171.794 312.562C171.309 312.801 170.745 312.92 170.101 312.92ZM168.874 300.511L170.055 302.102L171.237 300.511H172.51V300.602L170.669 302.966H169.442L167.601 300.602V300.511H168.874ZM179.152 312.92C178.311 312.92 177.586 312.734 176.976 312.363C176.37 311.988 175.902 311.466 175.572 310.795C175.247 310.121 175.084 309.337 175.084 308.443C175.084 307.549 175.247 306.761 175.572 306.079C175.902 305.394 176.36 304.859 176.947 304.477C177.538 304.091 178.228 303.897 179.016 303.897C179.47 303.897 179.919 303.973 180.362 304.125C180.805 304.276 181.209 304.522 181.572 304.863C181.936 305.2 182.226 305.647 182.442 306.204C182.658 306.761 182.766 307.447 182.766 308.261V308.829H176.038V307.67H181.402C181.402 307.178 181.304 306.738 181.107 306.352C180.913 305.966 180.637 305.661 180.277 305.437C179.921 305.214 179.5 305.102 179.016 305.102C178.482 305.102 178.019 305.234 177.629 305.5C177.243 305.761 176.946 306.102 176.737 306.522C176.529 306.943 176.425 307.394 176.425 307.875V308.647C176.425 309.306 176.538 309.865 176.766 310.324C176.997 310.778 177.317 311.125 177.726 311.363C178.135 311.598 178.61 311.716 179.152 311.716C179.504 311.716 179.822 311.666 180.107 311.568C180.394 311.466 180.643 311.314 180.851 311.113C181.059 310.909 181.22 310.655 181.334 310.352L182.629 310.716C182.493 311.155 182.264 311.541 181.942 311.875C181.62 312.204 181.222 312.462 180.749 312.647C180.275 312.829 179.743 312.92 179.152 312.92ZM189.305 316.011V304.011H190.601V305.397H190.76C190.858 305.246 190.995 305.053 191.169 304.818C191.347 304.579 191.601 304.367 191.93 304.181C192.264 303.992 192.714 303.897 193.283 303.897C194.018 303.897 194.665 304.081 195.226 304.449C195.786 304.816 196.224 305.337 196.538 306.011C196.853 306.685 197.01 307.481 197.01 308.397C197.01 309.322 196.853 310.123 196.538 310.801C196.224 311.475 195.788 311.998 195.232 312.369C194.675 312.736 194.033 312.92 193.305 312.92C192.745 312.92 192.296 312.827 191.959 312.642C191.622 312.452 191.362 312.238 191.18 312C190.999 311.757 190.858 311.556 190.76 311.397H190.646V316.011H189.305ZM190.624 308.375C190.624 309.034 190.72 309.615 190.913 310.119C191.107 310.619 191.389 311.011 191.76 311.295C192.131 311.575 192.586 311.716 193.124 311.716C193.684 311.716 194.152 311.568 194.527 311.272C194.906 310.973 195.19 310.572 195.379 310.068C195.572 309.56 195.669 308.996 195.669 308.375C195.669 307.761 195.574 307.208 195.385 306.716C195.199 306.219 194.917 305.827 194.538 305.539C194.163 305.248 193.692 305.102 193.124 305.102C192.578 305.102 192.12 305.24 191.749 305.517C191.377 305.789 191.097 306.172 190.908 306.664C190.718 307.153 190.624 307.723 190.624 308.375ZM202.714 312.92C201.874 312.92 201.148 312.734 200.538 312.363C199.932 311.988 199.464 311.466 199.135 310.795C198.809 310.121 198.646 309.337 198.646 308.443C198.646 307.549 198.809 306.761 199.135 306.079C199.464 305.394 199.923 304.859 200.51 304.477C201.101 304.091 201.79 303.897 202.578 303.897C203.033 303.897 203.482 303.973 203.925 304.125C204.368 304.276 204.771 304.522 205.135 304.863C205.499 305.2 205.788 305.647 206.004 306.204C206.22 306.761 206.328 307.447 206.328 308.261V308.829H199.601V307.67H204.964C204.964 307.178 204.866 306.738 204.669 306.352C204.476 305.966 204.199 305.661 203.839 305.437C203.483 305.214 203.063 305.102 202.578 305.102C202.044 305.102 201.582 305.234 201.192 305.5C200.805 305.761 200.508 306.102 200.3 306.522C200.091 306.943 199.987 307.394 199.987 307.875V308.647C199.987 309.306 200.101 309.865 200.328 310.324C200.559 310.778 200.879 311.125 201.288 311.363C201.697 311.598 202.173 311.716 202.714 311.716C203.067 311.716 203.385 311.666 203.669 311.568C203.957 311.466 204.205 311.314 204.413 311.113C204.622 310.909 204.783 310.655 204.896 310.352L206.192 310.716C206.055 311.155 205.826 311.541 205.504 311.875C205.182 312.204 204.785 312.462 204.311 312.647C203.838 312.829 203.305 312.92 202.714 312.92ZM209.709 307.488V312.738H208.368V304.011H209.663V305.375H209.777C209.982 304.931 210.292 304.575 210.709 304.306C211.125 304.034 211.663 303.897 212.322 303.897C212.913 303.897 213.43 304.019 213.874 304.261C214.317 304.5 214.661 304.863 214.908 305.352C215.154 305.837 215.277 306.45 215.277 307.193V312.738H213.936V307.284C213.936 306.598 213.758 306.064 213.402 305.681C213.046 305.295 212.557 305.102 211.936 305.102C211.508 305.102 211.125 305.195 210.788 305.38C210.455 305.566 210.192 305.837 209.999 306.193C209.805 306.549 209.709 306.981 209.709 307.488ZM221.386 312.92C220.545 312.92 219.82 312.734 219.21 312.363C218.604 311.988 218.136 311.466 217.807 310.795C217.481 310.121 217.318 309.337 217.318 308.443C217.318 307.549 217.481 306.761 217.807 306.079C218.136 305.394 218.595 304.859 219.182 304.477C219.773 304.091 220.462 303.897 221.25 303.897C221.705 303.897 222.153 303.973 222.597 304.125C223.04 304.276 223.443 304.522 223.807 304.863C224.17 305.2 224.46 305.647 224.676 306.204C224.892 306.761 225 307.447 225 308.261V308.829H218.273V307.67H223.636C223.636 307.178 223.538 306.738 223.341 306.352C223.148 305.966 222.871 305.661 222.511 305.437C222.155 305.214 221.735 305.102 221.25 305.102C220.716 305.102 220.254 305.234 219.864 305.5C219.477 305.761 219.18 306.102 218.972 306.522C218.763 306.943 218.659 307.394 218.659 307.875V308.647C218.659 309.306 218.773 309.865 219 310.324C219.231 310.778 219.551 311.125 219.96 311.363C220.369 311.598 220.845 311.716 221.386 311.716C221.739 311.716 222.057 311.666 222.341 311.568C222.629 311.466 222.877 311.314 223.085 311.113C223.294 310.909 223.455 310.655 223.568 310.352L224.864 310.716C224.727 311.155 224.498 311.541 224.176 311.875C223.854 312.204 223.456 312.462 222.983 312.647C222.509 312.829 221.977 312.92 221.386 312.92ZM220 300.511L221.182 302.102L222.364 300.511H223.636V300.602L221.795 302.966H220.568L218.727 300.602V300.511H220ZM226.79 312.738V311.716L231.744 305.352V305.261H226.949V304.011H233.472V305.079L228.653 311.397V311.488H233.631V312.738H226.79ZM236.673 312.829C236.393 312.829 236.152 312.729 235.952 312.528C235.751 312.327 235.651 312.087 235.651 311.806C235.651 311.526 235.751 311.286 235.952 311.085C236.152 310.884 236.393 310.784 236.673 310.784C236.954 310.784 237.194 310.884 237.395 311.085C237.596 311.286 237.696 311.526 237.696 311.806C237.696 311.992 237.649 312.163 237.554 312.318C237.463 312.473 237.34 312.598 237.185 312.693C237.033 312.784 236.863 312.829 236.673 312.829Z" fill="#0B1F42"/>
<defs>
<clipPath id="clip0_8458_5351">
<rect x="138.512" y="166.199" width="16.8653" height="27.5834" rx="8.43263" fill="white"/>
</clipPath>
</defs>
</svg>
