<svg width="106" height="41" viewBox="0 0 106 41" fill="none" xmlns="http://www.w3.org/2000/svg">
<path d="M86.9467 20.3615H101.539V18.4027H86.9748C86.9632 18.1766 86.9698 13.7592 86.9401 11.7179C86.9154 9.97702 88.1035 8.28231 90.3494 8.32026C94.4418 8.38792 98.5391 8.38792 102.631 8.31696C104.395 8.28561 106.001 9.58098 105.999 11.6882C105.999 11.982 105.998 12.3417 105.998 12.7229H91.3923V14.6354L105.998 14.6321C105.998 14.8945 106.003 19.3186 105.998 21.3763C105.991 23.4472 104.664 24.7492 102.569 24.7509C98.5094 24.7509 94.45 24.7509 90.3906 24.7509C88.2784 24.7509 86.9566 23.434 86.9484 21.3235C86.9484 21.0298 86.9484 20.736 86.9484 20.3615" fill="black"/>
<path d="M96.4896 6.27555C94.7636 6.27555 93.3675 4.85312 93.3774 3.10725C93.3857 1.39109 94.7883 -0.00329447 96.5012 5.84648e-06C98.2124 0.00330616 99.6117 1.40429 99.615 3.1188C99.6183 4.86137 98.2173 6.2772 96.4896 6.27555Z" fill="black"/>
<path d="M4.05774 28.2617C5.95047 28.2617 6.50657 28.473 6.50657 29.1792V29.7353H4.05774C2.34487 29.7353 1.69801 30.5175 1.69801 33.1462C1.69801 35.7749 2.34487 36.5719 4.05774 36.5719H6.50657V37.128C6.50657 37.8194 5.95047 38.029 4.05774 38.029C1.32343 38.029 0 36.5257 0 33.1446C0 29.7634 1.32178 28.2601 4.05774 28.2601V28.2617ZM3.7112 27.737C3.51648 27.737 3.41087 27.6776 3.23101 27.4812L1.96864 26.0093C1.89273 25.9334 1.89273 25.8443 1.89273 25.7832H2.58415C2.79372 25.7832 2.88447 25.8278 3.09569 26.0093L3.92242 26.7155L4.764 26.0093C4.97522 25.8294 5.06433 25.7832 5.2607 25.7832H5.95212C5.95212 25.8426 5.95211 25.9334 5.89271 26.0093L4.61549 27.4812C4.43562 27.6759 4.33001 27.737 4.13529 27.737H3.7145H3.7112Z" fill="black"/>
<path d="M12.7722 36.8275V37.2483C12.7722 37.8638 11.9455 38.0305 10.127 38.0305C7.6023 38.0305 6.82178 36.3028 6.82178 34.1989C6.82178 32.0949 7.64851 30.3672 10.1122 30.3672C12.0957 30.3672 13.132 31.5091 13.132 33.2071C13.132 33.5833 13.132 33.8688 13.0561 34.6196H8.45708C8.45708 36.2269 9.05774 36.8292 10.3053 36.8292H12.7689L12.7722 36.8275ZM11.5412 33.5668C11.5561 33.4315 11.5561 33.1609 11.5561 32.9959C11.5561 32.3193 11.2706 31.4926 10.1287 31.4926C9.07754 31.4926 8.52144 32.0933 8.46038 33.5668H11.5412Z" fill="black"/>
<path d="M16.7243 30.3652C18.1666 30.3652 19.1434 30.4098 19.1434 31.1309V31.5665H16.7095C16.0329 31.5665 15.627 31.852 15.627 32.2728C15.627 33.6853 19.5345 33.2794 19.5345 35.819C19.5345 37.0517 18.7375 38.0286 16.4537 38.0286C15.1171 38.0286 13.8844 38.0286 13.8844 37.3371V36.8256H16.589C17.49 36.8256 17.8811 36.555 17.8811 35.9543C17.8811 34.6771 13.9587 34.9032 13.9587 32.3784C13.9587 31.1161 14.9801 30.3652 16.7243 30.3652Z" fill="black"/>
<path d="M22.1797 33.7912L25.0048 30.7863C25.1995 30.5156 25.32 30.4414 25.6517 30.4414H26.9883C26.9883 30.5618 26.9437 30.6675 26.853 30.7714L23.7573 33.9579L26.8678 37.6245C26.9586 37.7301 26.9883 37.8506 26.9883 37.9545H25.5312C25.1698 37.9545 25.051 37.8192 24.8249 37.5041L22.1797 34.3787V37.9545H20.6022V28.7879C20.6022 28.3077 20.782 28.0371 21.2787 28.0371H22.1797V33.7929V33.7912Z" fill="black"/>
<path d="M32.8629 36.8273V37.2481C32.8629 37.8636 32.0362 38.0302 30.2177 38.0302C27.6929 38.0302 26.9124 36.3025 26.9124 34.1986C26.9124 32.0946 27.7391 30.3669 30.2028 30.3669C32.1863 30.3669 33.2226 31.5088 33.2226 33.2068C33.2226 33.5831 33.2226 33.8685 33.1467 34.6194H28.5477C28.5477 36.2266 29.1484 36.8289 30.3959 36.8289H32.8596L32.8629 36.8273ZM31.6302 33.5666C31.6451 33.4312 31.6451 33.1606 31.6451 32.9956C31.6451 32.319 31.3596 31.4923 30.2177 31.4923C29.1649 31.4923 28.6104 32.093 28.5494 33.5666H31.6302ZM30.7292 29.6144C30.5197 29.8092 30.4289 29.8405 30.2177 29.8405H29.5263C29.5263 29.7811 29.5263 29.6903 29.6022 29.6144L30.8645 28.1425C31.0444 27.9478 31.15 27.8867 31.3447 27.8867H32.0362C32.1418 27.8867 32.216 27.9313 32.216 28.0072C32.216 28.0666 32.1863 28.1276 32.0659 28.263L30.7292 29.6161V29.6144Z" fill="black"/>
<path d="M40.046 30.3652C41.4882 30.3652 42.4651 30.4098 42.4651 31.1309V31.5665H40.0311C39.3546 31.5665 38.9486 31.852 38.9486 32.2728C38.9486 33.6853 42.8562 33.2794 42.8562 35.819C42.8562 37.0517 42.0592 38.0286 39.7753 38.0286C38.4387 38.0286 37.2061 38.0286 37.2061 37.3371V36.8256H39.9107C40.8116 36.8256 41.2027 36.555 41.2027 35.9543C41.2027 34.6771 37.2803 34.9032 37.2803 32.3784C37.2803 31.1161 38.3018 30.3652 40.046 30.3652Z" fill="black"/>
<path d="M45.4998 40.2084H43.9222V30.4411H44.749C45.3051 30.4411 45.4998 30.7415 45.4998 31.1029V31.3124C45.9503 30.8174 46.6565 30.3652 47.5427 30.3652C49.4354 30.3652 50.2935 31.8372 50.2935 34.1969C50.2935 36.5566 49.4371 38.0286 47.5427 38.0286C46.6565 38.0286 45.9503 37.5781 45.4998 37.0962V40.2068V40.2084ZM46.9882 31.6128C46.4024 31.6128 45.9057 31.8537 45.4998 32.1689V36.2117C45.9057 36.5269 46.4008 36.7678 46.9882 36.7678C48.206 36.7678 48.6565 35.8817 48.6565 34.1985C48.6565 32.5154 48.206 31.6144 46.9882 31.6144V31.6128Z" fill="black"/>
<path d="M51.1961 34.1969C51.1961 32.0929 51.9618 30.3652 54.5014 30.3652C57.041 30.3652 57.8066 32.0929 57.8066 34.1969C57.8066 36.3008 57.041 38.0286 54.5014 38.0286C51.9618 38.0286 51.1961 36.3008 51.1961 34.1969ZM56.1845 34.1969C56.1845 32.4543 55.7934 31.4923 54.5014 31.4923C53.2093 31.4923 52.8331 32.4543 52.8331 34.1969C52.8331 35.9395 53.2093 36.9015 54.5014 36.9015C55.7934 36.9015 56.1845 35.9543 56.1845 34.1969Z" fill="black"/>
<path d="M60.6169 29.8405C60.4222 29.8405 60.3165 29.7811 60.1367 29.5847L58.8743 28.1128C58.7984 28.0369 58.7984 27.9478 58.7984 27.8867H59.4898C59.701 27.8867 59.7901 27.9313 60.0014 28.1128L60.8281 28.8191L61.6697 28.1128C61.8792 27.9329 61.97 27.8867 62.1664 27.8867H62.8578C62.8578 27.9461 62.8578 28.0369 62.7984 28.1128L61.5212 29.5847C61.3413 29.7794 61.2357 29.8405 61.041 29.8405H60.6202H60.6169ZM59.0542 37.956V30.4428H59.8809C60.3925 30.4428 60.602 30.819 60.6317 31.39C61.2472 30.593 62.0294 30.3686 62.6301 30.3686C62.9007 30.3686 63.1713 30.4445 63.1713 30.7448V31.9164H62.7951C61.6383 31.9164 61.0822 32.1573 60.6317 32.4725V37.9576H59.0542V37.956Z" fill="black"/>
<path d="M65.3808 29.6592H63.8033V28.7879C63.8033 28.3077 63.9832 28.0371 64.4798 28.0371H65.3808V29.6592ZM63.8016 30.4414H64.6878C65.1828 30.4414 65.3792 30.712 65.3792 31.1922V37.9545H63.8016V30.4414Z" fill="black"/>
<path d="M68.9419 30.4428H70.6251V31.6144H68.9419V35.9873C68.9419 36.5732 69.0178 36.7992 69.5277 36.7992H70.6251V37.1903C70.6251 37.8207 70.0838 38.0022 69.2274 38.0022C67.5145 38.0022 67.3644 37.0864 67.3644 35.989V31.6161H66.3726V30.7448L67.3644 30.4445L67.9353 29.2415C68.1003 28.9263 68.2208 28.791 68.5063 28.791H68.9419V30.4445V30.4428Z" fill="black"/>
<path d="M76.9353 36.8275V37.2483C76.9353 37.8638 76.1085 38.0305 74.2901 38.0305C71.7653 38.0305 70.9848 36.3028 70.9848 34.1989C70.9848 32.0949 71.8115 30.3672 74.2752 30.3672C76.2587 30.3672 77.295 31.5091 77.295 33.2071C77.295 33.5833 77.295 33.8688 77.2191 34.6196H72.6201C72.6201 36.2269 73.2208 36.8292 74.4683 36.8292H76.932L76.9353 36.8275ZM75.7026 33.5668C75.7175 33.4315 75.7175 33.1609 75.7175 32.9959C75.7175 32.3193 75.432 31.4926 74.2901 31.4926C73.2373 31.4926 72.6828 32.0933 72.6218 33.5668H75.7026Z" fill="black"/>
<path d="M80.0755 37.9545H78.4979V28.7879C78.4979 28.3077 78.6778 28.0371 79.1745 28.0371H80.0755V37.9545Z" fill="black"/>
<path d="M81.7289 37.9546V30.4414H82.5557C83.1118 30.4414 83.3065 30.7269 83.3065 31.0883V31.3144C83.9534 30.6378 84.7339 30.3672 85.516 30.3672C87.0787 30.3672 87.8296 31.3144 87.8296 32.6972V37.9563H86.252V32.7715C86.252 31.9447 85.7256 31.6147 84.884 31.6147C84.3131 31.6147 83.7273 31.8556 83.3065 32.1708V37.9563H81.7289V37.9546Z" fill="black"/>
<path d="M93.9451 36.9031C93.3131 37.5797 92.5325 37.8503 91.7669 37.8503C90.2042 37.8503 89.422 36.9031 89.422 35.5203V30.4411H90.9995V35.4444C90.9995 36.2711 91.5408 36.6011 92.3824 36.6011C92.9533 36.6011 93.5243 36.3602 93.9451 36.045V30.4395H95.5226V37.2315C95.5226 38.885 94.7718 40.2826 92.2174 40.2826C90.384 40.2826 89.6926 40.1176 89.6926 39.4856V39.0797H92.0061C93.2388 39.0797 93.9451 38.7034 93.9451 37.0962V36.9015V36.9031Z" fill="black"/>
<path d="M10.2722 19.2549C10.1963 17.5948 10.1963 16.3176 10.1963 14.2483V8.39851H13.5181V23.5486C13.5181 24.3143 13.16 24.8011 12.2145 24.8011H10.2211C9.55606 24.8011 9.27553 24.7252 8.94385 24.1113L3.32342 13.8919H3.24751C3.32342 15.91 3.32342 16.9315 3.32342 18.4909V24.7499H0V9.70048C0 8.85725 0.460394 8.3457 1.40593 8.3457H3.29701C3.96038 8.3457 4.24255 8.42161 4.60064 9.03547L10.1699 19.2549H10.2722Z" fill="black"/>
<path d="M23.6072 8.3457C24.2722 8.3457 24.5775 8.42161 24.7309 8.98431L28.8943 24.1344C28.9454 24.3638 28.9702 24.5948 28.9702 24.7483H26.0329C25.3695 24.7483 25.1649 24.7235 25.0114 24.1608L24.0923 20.6856H19.622L18.7029 24.1608C18.5758 24.7235 18.3712 24.7483 17.7062 24.7483H14.7689C14.7689 24.5948 14.7937 24.3902 14.8448 24.1344L19.0346 8.98431C19.188 8.42161 19.495 8.3457 20.1583 8.3457H23.6072ZM20.2342 17.8754H23.4273L21.8943 12.179H21.7672L20.2342 17.8754Z" fill="black"/>
<path d="M30.2226 9.80077C30.2226 8.88163 30.6318 8.39648 31.5774 8.39648H36.7886C41.2588 8.39648 43.7621 10.7727 43.7621 16.5714C43.7621 22.37 41.2588 24.7462 36.7886 24.7462H31.5774C30.6318 24.7462 30.2226 24.2611 30.2226 23.342V9.80077ZM33.9272 11.5384V21.6291H36.6863C38.7044 21.6291 39.9569 20.5565 39.9569 16.5714C39.9569 12.5862 38.7044 11.5384 36.6863 11.5384H33.9272Z" fill="black"/>
<path d="M52.9073 8.3457C53.5723 8.3457 53.8776 8.42161 54.0311 8.98431L58.1944 24.1344C58.2456 24.3638 58.2703 24.5948 58.2703 24.7483H55.3331C54.6697 24.7483 54.4651 24.7235 54.3116 24.1608L53.3925 20.6856H48.9222L48.0031 24.1608C47.876 24.7235 47.6714 24.7483 47.0064 24.7483H44.0691C44.0691 24.5948 44.0938 24.3902 44.145 24.1344L48.3347 8.98431C48.4882 8.42161 48.7951 8.3457 49.4585 8.3457H52.9073ZM49.5361 17.8754H52.7291L51.1961 12.179H51.0691L49.5361 17.8754Z" fill="black"/>
<path d="M65.7059 8.26953C69.13 8.26953 70.2274 8.80583 70.2274 10.1342V11.489H65.7059C63.1763 11.489 62.3842 12.588 62.3842 16.5731C62.3842 20.5582 63.1763 21.6573 65.7059 21.6573H70.2274V23.012C70.2274 24.3404 69.1284 24.8767 65.7059 24.8767C61.0311 24.8767 58.5789 22.3734 58.5789 16.5748C58.5789 10.7761 61.0311 8.27283 65.7059 8.27283V8.26953Z" fill="black"/>
<path d="M71.5046 9.80077C71.5046 8.88163 71.9138 8.39648 72.8594 8.39648H82.158V10.1853C82.158 11.1044 81.6728 11.54 80.7009 11.54H75.2075V14.9377H81.2108V17.875H75.2075V21.6307H82.2834V23.4195C82.2834 24.3386 81.7983 24.7479 80.8527 24.7479H72.8561C71.9105 24.7479 71.5013 24.2627 71.5013 23.3436V9.80077H71.5046Z" fill="black"/>
</svg>
