<svg width="342" height="342" viewBox="0 0 342 342" fill="none" xmlns="http://www.w3.org/2000/svg">
<rect width="342" height="342" fill="url(#paint0_linear_8458_5346)"/>
<path d="M98.0156 53.4062V49.6875L108.312 37.0312C109.078 36.0938 109.875 35.1719 110.688 34.25H98.3594V30.125H116.531V33.8438L106.406 46.375C105.609 47.3438 104.781 48.3125 103.938 49.2812H116.641V53.4062H98.0156ZM123.719 44.2344V53.4062H119.109V36.9062H123.641V39.5C124.75 37.625 126.422 36.5625 128.797 36.5625C132.312 36.5625 134.578 38.9062 134.578 43.0781V53.4062H129.984V43.9219C129.984 41.7031 128.875 40.5312 126.953 40.5312C125.047 40.5312 123.719 41.6719 123.719 44.2344ZM142.906 53.6875C139.609 53.6875 137.234 52.0469 137.234 48.75C137.234 45.0312 140.234 43.9688 143.672 43.6562C146.688 43.3594 147.75 43.2188 147.75 42.1562V42.0469C147.75 40.8281 146.734 39.9844 145.047 39.9844C143.328 39.9844 142.203 40.8594 142.094 42.125H137.766C137.969 38.7188 140.656 36.5625 145.188 36.5625C149.703 36.5625 152.297 38.6875 152.297 42.2188V53.4062H147.797V51.0781H147.734C146.859 52.6875 145.438 53.6875 142.906 53.6875ZM144.188 50.4844C146.406 50.4844 147.781 49.1562 147.781 47.375V45.7188C147.25 46.0156 145.953 46.2344 144.469 46.4688C142.891 46.7031 141.641 47.3125 141.641 48.625C141.641 49.7969 142.641 50.4844 144.188 50.4844ZM143.156 34.875L145.875 29.9844H150.375L146.406 34.875H143.156ZM165.031 36.9062V40.5156H161.656V48.3125C161.656 49.4375 162.016 49.7969 163.266 49.7969H165.031V53.4062H162.344C158.719 53.4062 157.047 52.0312 157.047 49.0312V40.5156H154.203V36.9062H157.047V32.4062H161.656V36.9062H165.031ZM174.641 53.7812C169.641 53.7812 166.391 50.1875 166.391 45.1719C166.391 40.1406 169.75 36.5312 174.484 36.5312C179.344 36.5312 182.609 40.0469 182.609 45.0781V46.3125H170.875C170.953 48.75 172.359 50.3281 174.781 50.3281C176.578 50.3281 177.812 49.5 178.234 48.2188H182.438C181.828 51.5 178.641 53.7812 174.641 53.7812ZM170.906 43.375H178.266C178.031 41.3125 176.656 40.0312 174.578 40.0312C172.516 40.0312 171.156 41.3125 170.906 43.375ZM200.531 53.8125C196.25 53.8125 193.172 51.7656 192.891 48.2188H197.422C197.594 49.6562 198.656 50.5156 200.453 50.5156C202.156 50.5156 203.203 49.7969 203.203 48.7812C203.203 47.9062 202.406 47.3906 201.062 47.125L198.172 46.5625C194.969 45.9375 193.266 44.3125 193.266 41.75C193.266 38.625 195.969 36.5625 200.266 36.5625C204.531 36.5625 207.344 38.7031 207.438 42.1406H203.172C203.141 40.8125 202.016 39.8281 200.391 39.8281C198.812 39.8281 197.859 40.5938 197.859 41.5781C197.859 42.4219 198.594 42.9688 199.859 43.2344L202.984 43.8438C206.312 44.5 207.844 45.9375 207.844 48.3594C207.844 51.6562 204.844 53.8125 200.531 53.8125ZM217.859 53.7812C212.859 53.7812 209.609 50.1875 209.609 45.1719C209.609 40.1406 212.969 36.5312 217.703 36.5312C222.562 36.5312 225.828 40.0469 225.828 45.0781V46.3125H214.094C214.172 48.75 215.578 50.3281 218 50.3281C219.797 50.3281 221.031 49.5 221.453 48.2188H225.656C225.047 51.5 221.859 53.7812 217.859 53.7812ZM214.125 43.375H221.484C221.25 41.3125 219.875 40.0312 217.797 40.0312C215.734 40.0312 214.375 41.3125 214.125 43.375ZM233.203 46.5469V45.25C233.203 42.1406 234.359 41.2031 236.797 39.7812C238.391 38.8125 239.031 37.6562 239.031 36.4375C239.031 34.6875 237.734 33.5469 235.703 33.5469C233.469 33.5469 232.094 34.9688 232.094 37.2656H227.672C227.672 32.875 230.906 29.7812 235.75 29.7812C240.328 29.7812 243.516 32.375 243.516 36.0312C243.516 38.375 242.453 40.2812 240.375 41.6719C238.422 42.9688 237.344 43.75 237.344 45.5625V46.5469H233.203ZM235.328 53.6875C233.859 53.6875 232.672 52.5156 232.672 51.0312C232.672 49.5625 233.859 48.375 235.328 48.375C236.797 48.375 237.984 49.5625 237.984 51.0312C237.984 52.5156 236.797 53.6875 235.328 53.6875Z" fill="#0B1F42"/>
<path d="M57.2507 284.92C57.2507 286.147 57.0292 287.208 56.586 288.102C56.1428 288.996 55.5348 289.685 54.7621 290.17C53.9894 290.655 53.1068 290.897 52.1144 290.897C51.122 290.897 50.2394 290.655 49.4667 290.17C48.6939 289.685 48.086 288.996 47.6428 288.102C47.1996 287.208 46.978 286.147 46.978 284.92C46.978 283.693 47.1996 282.632 47.6428 281.738C48.086 280.844 48.6939 280.155 49.4667 279.67C50.2394 279.185 51.122 278.943 52.1144 278.943C53.1068 278.943 53.9894 279.185 54.7621 279.67C55.5348 280.155 56.1428 280.844 56.586 281.738C57.0292 282.632 57.2507 283.693 57.2507 284.92ZM55.8871 284.92C55.8871 283.913 55.7185 283.062 55.3814 282.369C55.0481 281.676 54.5954 281.151 54.0235 280.795C53.4553 280.439 52.8189 280.261 52.1144 280.261C51.4098 280.261 50.7716 280.439 50.1996 280.795C49.6314 281.151 49.1788 281.676 48.8417 282.369C48.5083 283.062 48.3417 283.913 48.3417 284.92C48.3417 285.928 48.5083 286.778 48.8417 287.471C49.1788 288.164 49.6314 288.689 50.1996 289.045C50.7716 289.401 51.4098 289.579 52.1144 289.579C52.8189 289.579 53.4553 289.401 54.0235 289.045C54.5954 288.689 55.0481 288.164 55.3814 287.471C55.7185 286.778 55.8871 285.928 55.8871 284.92ZM62.7337 290.92C62.0064 290.92 61.3644 290.736 60.8076 290.369C60.2507 289.998 59.8151 289.475 59.5007 288.801C59.1863 288.123 59.0291 287.322 59.0291 286.397C59.0291 285.481 59.1863 284.685 59.5007 284.011C59.8151 283.337 60.2526 282.816 60.8132 282.449C61.3738 282.081 62.0216 281.897 62.7564 281.897C63.3246 281.897 63.7735 281.992 64.103 282.181C64.4363 282.367 64.6901 282.579 64.8644 282.818C65.0424 283.053 65.1807 283.246 65.2792 283.397H65.3928V279.102H66.7337V290.738H65.4382V289.397H65.2792C65.1807 289.556 65.0405 289.757 64.8587 290C64.6769 290.238 64.4174 290.452 64.0803 290.642C63.7432 290.827 63.2943 290.92 62.7337 290.92ZM62.9155 289.716C63.4534 289.716 63.9079 289.575 64.2792 289.295C64.6504 289.011 64.9326 288.619 65.1257 288.119C65.3189 287.615 65.4155 287.034 65.4155 286.375C65.4155 285.723 65.3208 285.153 65.1314 284.664C64.942 284.172 64.6617 283.789 64.2905 283.517C63.9193 283.24 63.461 283.102 62.9155 283.102C62.3473 283.102 61.8738 283.248 61.4951 283.539C61.1201 283.827 60.8379 284.219 60.6485 284.716C60.4629 285.208 60.3701 285.761 60.3701 286.375C60.3701 286.996 60.4648 287.56 60.6542 288.068C60.8473 288.572 61.1314 288.973 61.5064 289.272C61.8852 289.568 62.3549 289.716 62.9155 289.716ZM70.7167 285.488V290.738H69.3757V279.102H70.7167V283.375H70.8303C71.0348 282.924 71.3416 282.566 71.7507 282.301C72.1636 282.032 72.7129 281.897 73.3985 281.897C73.9932 281.897 74.514 282.017 74.961 282.255C75.4079 282.49 75.7545 282.852 76.0007 283.341C76.2507 283.825 76.3757 284.443 76.3757 285.193V290.738H75.0348V285.284C75.0348 284.591 74.8549 284.055 74.4951 283.676C74.139 283.293 73.6447 283.102 73.0121 283.102C72.5727 283.102 72.1788 283.195 71.8303 283.38C71.4856 283.566 71.2129 283.837 71.0121 284.193C70.8151 284.549 70.7167 284.981 70.7167 285.488ZM81.397 290.943C80.844 290.943 80.3421 290.839 79.8914 290.63C79.4406 290.418 79.0827 290.113 78.8175 289.716C78.5524 289.314 78.4198 288.829 78.4198 288.261C78.4198 287.761 78.5183 287.356 78.7152 287.045C78.9122 286.731 79.1755 286.484 79.505 286.306C79.8345 286.128 80.1982 285.996 80.5959 285.909C80.9974 285.818 81.4008 285.746 81.8061 285.693C82.3364 285.625 82.7664 285.574 83.0959 285.539C83.4292 285.502 83.6717 285.439 83.8232 285.352C83.9785 285.265 84.0561 285.113 84.0561 284.897V284.852C84.0561 284.291 83.9027 283.856 83.5959 283.545C83.2929 283.234 82.8327 283.079 82.2152 283.079C81.5751 283.079 81.0732 283.219 80.7095 283.5C80.3459 283.78 80.0902 284.079 79.9425 284.397L78.6698 283.943C78.897 283.413 79.2001 283 79.5789 282.704C79.9614 282.405 80.3781 282.197 80.8289 282.079C81.2834 281.958 81.7304 281.897 82.1698 281.897C82.4501 281.897 82.772 281.931 83.1357 282C83.5031 282.064 83.8573 282.199 84.1982 282.403C84.5429 282.608 84.8289 282.916 85.0561 283.329C85.2834 283.742 85.397 284.295 85.397 284.988V290.738H84.0561V289.556H83.988C83.897 289.746 83.7455 289.949 83.5334 290.164C83.3213 290.38 83.0391 290.564 82.6868 290.716C82.3345 290.867 81.9046 290.943 81.397 290.943ZM81.6016 289.738C82.1319 289.738 82.5789 289.634 82.9425 289.426C83.3099 289.217 83.5864 288.949 83.772 288.619C83.9614 288.289 84.0561 287.943 84.0561 287.579V286.352C83.9993 286.42 83.8743 286.483 83.6811 286.539C83.4917 286.592 83.272 286.64 83.022 286.681C82.7758 286.719 82.5353 286.753 82.3005 286.784C82.0694 286.81 81.8819 286.833 81.738 286.852C81.3895 286.897 81.0637 286.971 80.7607 287.074C80.4614 287.172 80.219 287.322 80.0334 287.522C79.8516 287.719 79.7607 287.988 79.7607 288.329C79.7607 288.795 79.933 289.147 80.2777 289.386C80.6262 289.621 81.0675 289.738 81.6016 289.738ZM89.1854 279.102V290.738H87.8445V279.102H89.1854ZM95.4368 282.011V283.147H90.9141V282.011H95.4368ZM92.2323 279.92H93.5732V288.238C93.5732 288.617 93.6281 288.901 93.738 289.091C93.8516 289.276 93.9955 289.401 94.1698 289.466C94.3478 289.526 94.5353 289.556 94.7323 289.556C94.88 289.556 95.0012 289.549 95.0959 289.534C95.1906 289.515 95.2664 289.5 95.3232 289.488L95.5959 290.693C95.505 290.727 95.3781 290.761 95.2152 290.795C95.0524 290.833 94.8459 290.852 94.5959 290.852C94.2171 290.852 93.8459 290.77 93.4823 290.608C93.1224 290.445 92.8232 290.197 92.5845 289.863C92.3497 289.53 92.2323 289.109 92.2323 288.602V279.92ZM101.019 290.92C100.178 290.92 99.4529 290.734 98.8431 290.363C98.237 289.988 97.7692 289.466 97.4397 288.795C97.1139 288.121 96.951 287.337 96.951 286.443C96.951 285.549 97.1139 284.761 97.4397 284.079C97.7692 283.394 98.2275 282.859 98.8147 282.477C99.4056 282.091 100.095 281.897 100.883 281.897C101.337 281.897 101.786 281.973 102.229 282.125C102.673 282.276 103.076 282.522 103.44 282.863C103.803 283.2 104.093 283.647 104.309 284.204C104.525 284.761 104.633 285.447 104.633 286.261V286.829H97.9056V285.67H103.269C103.269 285.178 103.171 284.738 102.974 284.352C102.781 283.966 102.504 283.661 102.144 283.437C101.788 283.214 101.368 283.102 100.883 283.102C100.349 283.102 99.8866 283.234 99.4965 283.5C99.1101 283.761 98.8128 284.102 98.6044 284.522C98.3961 284.943 98.2919 285.394 98.2919 285.875V286.647C98.2919 287.306 98.4056 287.865 98.6328 288.324C98.8639 288.778 99.184 289.125 99.5931 289.363C100.002 289.598 100.478 289.716 101.019 289.716C101.371 289.716 101.69 289.666 101.974 289.568C102.262 289.466 102.51 289.314 102.718 289.113C102.926 288.909 103.087 288.655 103.201 288.352L104.496 288.716C104.36 289.155 104.131 289.541 103.809 289.875C103.487 290.204 103.089 290.462 102.616 290.647C102.142 290.829 101.61 290.92 101.019 290.92ZM118.309 282.011L115.082 290.738H113.718L110.491 282.011H111.945L114.354 288.966H114.445L116.854 282.011H118.309ZM123.425 290.92C122.585 290.92 121.859 290.734 121.249 290.363C120.643 289.988 120.175 289.466 119.846 288.795C119.52 288.121 119.357 287.337 119.357 286.443C119.357 285.549 119.52 284.761 119.846 284.079C120.175 283.394 120.634 282.859 121.221 282.477C121.812 282.091 122.501 281.897 123.289 281.897C123.744 281.897 124.193 281.973 124.636 282.125C125.079 282.276 125.482 282.522 125.846 282.863C126.21 283.2 126.499 283.647 126.715 284.204C126.931 284.761 127.039 285.447 127.039 286.261V286.829H120.312V285.67H125.675C125.675 285.178 125.577 284.738 125.38 284.352C125.187 283.966 124.91 283.661 124.55 283.437C124.194 283.214 123.774 283.102 123.289 283.102C122.755 283.102 122.293 283.234 121.903 283.5C121.516 283.761 121.219 284.102 121.011 284.522C120.802 284.943 120.698 285.394 120.698 285.875V286.647C120.698 287.306 120.812 287.865 121.039 288.324C121.27 288.778 121.59 289.125 121.999 289.363C122.408 289.598 122.884 289.716 123.425 289.716C123.778 289.716 124.096 289.666 124.38 289.568C124.668 289.466 124.916 289.314 125.124 289.113C125.333 288.909 125.494 288.655 125.607 288.352L126.903 288.716C126.766 289.155 126.537 289.541 126.215 289.875C125.893 290.204 125.496 290.462 125.022 290.647C124.549 290.829 124.016 290.92 123.425 290.92ZM134.92 285.488V290.738H133.579V279.102H134.92V283.375H135.033C135.238 282.924 135.545 282.566 135.954 282.301C136.367 282.032 136.916 281.897 137.602 281.897C138.196 281.897 138.717 282.017 139.164 282.255C139.611 282.49 139.958 282.852 140.204 283.341C140.454 283.825 140.579 284.443 140.579 285.193V290.738H139.238V285.284C139.238 284.591 139.058 284.055 138.698 283.676C138.342 283.293 137.848 283.102 137.215 283.102C136.776 283.102 136.382 283.195 136.033 283.38C135.689 283.566 135.416 283.837 135.215 284.193C135.018 284.549 134.92 284.981 134.92 285.488ZM143.032 290.738V282.011H144.327V283.329H144.418C144.577 282.897 144.865 282.547 145.282 282.278C145.699 282.009 146.168 281.875 146.691 281.875C146.79 281.875 146.913 281.877 147.06 281.88C147.208 281.884 147.32 281.89 147.396 281.897V283.261C147.35 283.25 147.246 283.233 147.083 283.21C146.924 283.183 146.755 283.17 146.577 283.17C146.153 283.17 145.774 283.259 145.441 283.437C145.112 283.611 144.85 283.854 144.657 284.164C144.468 284.471 144.373 284.822 144.373 285.216V290.738H143.032ZM143.918 278.511L145.1 280.102L146.282 278.511H147.555V278.602L145.714 280.966H144.487L142.646 278.602V278.511H143.918ZM152.379 290.92C151.538 290.92 150.812 290.734 150.202 290.363C149.596 289.988 149.129 289.466 148.799 288.795C148.473 288.121 148.31 287.337 148.31 286.443C148.31 285.549 148.473 284.761 148.799 284.079C149.129 283.394 149.587 282.859 150.174 282.477C150.765 282.091 151.454 281.897 152.242 281.897C152.697 281.897 153.146 281.973 153.589 282.125C154.032 282.276 154.435 282.522 154.799 282.863C155.163 283.2 155.452 283.647 155.668 284.204C155.884 284.761 155.992 285.447 155.992 286.261V286.829H149.265V285.67H154.629C154.629 285.178 154.53 284.738 154.333 284.352C154.14 283.966 153.863 283.661 153.504 283.437C153.148 283.214 152.727 283.102 152.242 283.102C151.708 283.102 151.246 283.234 150.856 283.5C150.469 283.761 150.172 284.102 149.964 284.522C149.755 284.943 149.651 285.394 149.651 285.875V286.647C149.651 287.306 149.765 287.865 149.992 288.324C150.223 288.778 150.543 289.125 150.952 289.363C151.362 289.598 151.837 289.716 152.379 289.716C152.731 289.716 153.049 289.666 153.333 289.568C153.621 289.466 153.869 289.314 154.077 289.113C154.286 288.909 154.447 288.655 154.56 288.352L155.856 288.716C155.719 289.155 155.49 289.541 155.168 289.875C154.846 290.204 154.449 290.462 153.975 290.647C153.502 290.829 152.969 290.92 152.379 290.92ZM162.532 294.011V282.011H163.827V283.397H163.987C164.085 283.246 164.221 283.053 164.396 282.818C164.574 282.579 164.827 282.367 165.157 282.181C165.49 281.992 165.941 281.897 166.509 281.897C167.244 281.897 167.892 282.081 168.452 282.449C169.013 282.816 169.451 283.337 169.765 284.011C170.079 284.685 170.237 285.481 170.237 286.397C170.237 287.322 170.079 288.123 169.765 288.801C169.451 289.475 169.015 289.998 168.458 290.369C167.901 290.736 167.259 290.92 166.532 290.92C165.971 290.92 165.523 290.827 165.185 290.642C164.848 290.452 164.589 290.238 164.407 290C164.225 289.757 164.085 289.556 163.987 289.397H163.873V294.011H162.532ZM163.85 286.375C163.85 287.034 163.947 287.615 164.14 288.119C164.333 288.619 164.615 289.011 164.987 289.295C165.358 289.575 165.812 289.716 166.35 289.716C166.911 289.716 167.379 289.568 167.754 289.272C168.132 288.973 168.416 288.572 168.606 288.068C168.799 287.56 168.896 286.996 168.896 286.375C168.896 285.761 168.801 285.208 168.612 284.716C168.426 284.219 168.144 283.827 167.765 283.539C167.39 283.248 166.918 283.102 166.35 283.102C165.805 283.102 165.346 283.24 164.975 283.517C164.604 283.789 164.324 284.172 164.134 284.664C163.945 285.153 163.85 285.723 163.85 286.375ZM172.282 290.738V282.011H173.577V283.329H173.668C173.827 282.897 174.115 282.547 174.532 282.278C174.949 282.009 175.418 281.875 175.941 281.875C176.04 281.875 176.163 281.877 176.31 281.88C176.458 281.884 176.57 281.89 176.646 281.897V283.261C176.6 283.25 176.496 283.233 176.333 283.21C176.174 283.183 176.005 283.17 175.827 283.17C175.403 283.17 175.024 283.259 174.691 283.437C174.362 283.611 174.1 283.854 173.907 284.164C173.718 284.471 173.623 284.822 173.623 285.216V290.738H172.282ZM181.515 290.92C180.727 290.92 180.036 290.733 179.441 290.358C178.85 289.983 178.388 289.458 178.055 288.784C177.725 288.109 177.56 287.322 177.56 286.42C177.56 285.511 177.725 284.717 178.055 284.039C178.388 283.361 178.85 282.835 179.441 282.46C180.036 282.085 180.727 281.897 181.515 281.897C182.303 281.897 182.992 282.085 183.583 282.46C184.178 282.835 184.64 283.361 184.969 284.039C185.303 284.717 185.469 285.511 185.469 286.42C185.469 287.322 185.303 288.109 184.969 288.784C184.64 289.458 184.178 289.983 183.583 290.358C182.992 290.733 182.303 290.92 181.515 290.92ZM181.515 289.716C182.113 289.716 182.606 289.562 182.992 289.255C183.379 288.949 183.665 288.545 183.85 288.045C184.036 287.545 184.129 287.003 184.129 286.42C184.129 285.837 184.036 285.293 183.85 284.789C183.665 284.286 183.379 283.878 182.992 283.568C182.606 283.257 182.113 283.102 181.515 283.102C180.916 283.102 180.424 283.257 180.038 283.568C179.651 283.878 179.365 284.286 179.18 284.789C178.994 285.293 178.901 285.837 178.901 286.42C178.901 287.003 178.994 287.545 179.18 288.045C179.365 288.545 179.651 288.949 180.038 289.255C180.424 289.562 180.916 289.716 181.515 289.716ZM195.312 290.92C194.585 290.92 193.943 290.736 193.386 290.369C192.829 289.998 192.393 289.475 192.079 288.801C191.764 288.123 191.607 287.322 191.607 286.397C191.607 285.481 191.764 284.685 192.079 284.011C192.393 283.337 192.831 282.816 193.391 282.449C193.952 282.081 194.6 281.897 195.335 281.897C195.903 281.897 196.352 281.992 196.681 282.181C197.014 282.367 197.268 282.579 197.443 282.818C197.621 283.053 197.759 283.246 197.857 283.397H197.971V279.102H199.312V290.738H198.016V289.397H197.857C197.759 289.556 197.619 289.757 197.437 290C197.255 290.238 196.996 290.452 196.658 290.642C196.321 290.827 195.872 290.92 195.312 290.92ZM195.494 289.716C196.032 289.716 196.486 289.575 196.857 289.295C197.228 289.011 197.511 288.619 197.704 288.119C197.897 287.615 197.994 287.034 197.994 286.375C197.994 285.723 197.899 285.153 197.71 284.664C197.52 284.172 197.24 283.789 196.869 283.517C196.497 283.24 196.039 283.102 195.494 283.102C194.925 283.102 194.452 283.248 194.073 283.539C193.698 283.827 193.416 284.219 193.227 284.716C193.041 285.208 192.948 285.761 192.948 286.375C192.948 286.996 193.043 287.56 193.232 288.068C193.425 288.572 193.71 288.973 194.085 289.272C194.463 289.568 194.933 289.716 195.494 289.716ZM209.09 282.011L205.863 290.738H204.499L201.272 282.011H202.727L205.136 288.966H205.227L207.636 282.011H209.09ZM213.163 290.943C212.61 290.943 212.108 290.839 211.657 290.63C211.206 290.418 210.848 290.113 210.583 289.716C210.318 289.314 210.185 288.829 210.185 288.261C210.185 287.761 210.284 287.356 210.481 287.045C210.678 286.731 210.941 286.484 211.271 286.306C211.6 286.128 211.964 285.996 212.362 285.909C212.763 285.818 213.166 285.746 213.572 285.693C214.102 285.625 214.532 285.574 214.862 285.539C215.195 285.502 215.437 285.439 215.589 285.352C215.744 285.265 215.822 285.113 215.822 284.897V284.852C215.822 284.291 215.668 283.856 215.362 283.545C215.059 283.234 214.598 283.079 213.981 283.079C213.341 283.079 212.839 283.219 212.475 283.5C212.112 283.78 211.856 284.079 211.708 284.397L210.435 283.943C210.663 283.413 210.966 283 211.344 282.704C211.727 282.405 212.144 282.197 212.594 282.079C213.049 281.958 213.496 281.897 213.935 281.897C214.216 281.897 214.538 281.931 214.901 282C215.269 282.064 215.623 282.199 215.964 282.403C216.309 282.608 216.594 282.916 216.822 283.329C217.049 283.742 217.163 284.295 217.163 284.988V290.738H215.822V289.556H215.754C215.663 289.746 215.511 289.949 215.299 290.164C215.087 290.38 214.805 290.564 214.452 290.716C214.1 290.867 213.67 290.943 213.163 290.943ZM213.367 289.738C213.898 289.738 214.344 289.634 214.708 289.426C215.076 289.217 215.352 288.949 215.538 288.619C215.727 288.289 215.822 287.943 215.822 287.579V286.352C215.765 286.42 215.64 286.483 215.447 286.539C215.257 286.592 215.038 286.64 214.788 286.681C214.541 286.719 214.301 286.753 214.066 286.784C213.835 286.81 213.648 286.833 213.504 286.852C213.155 286.897 212.829 286.971 212.526 287.074C212.227 287.172 211.985 287.322 211.799 287.522C211.617 287.719 211.526 287.988 211.526 288.329C211.526 288.795 211.699 289.147 212.043 289.386C212.392 289.621 212.833 289.738 213.367 289.738ZM225.451 285.488V290.738H224.11V279.102H225.451V283.375H225.565C225.769 282.924 226.076 282.566 226.485 282.301C226.898 282.032 227.447 281.897 228.133 281.897C228.728 281.897 229.248 282.017 229.695 282.255C230.142 282.49 230.489 282.852 230.735 283.341C230.985 283.825 231.11 284.443 231.11 285.193V290.738H229.769V285.284C229.769 284.591 229.589 284.055 229.229 283.676C228.873 283.293 228.379 283.102 227.746 283.102C227.307 283.102 226.913 283.195 226.565 283.38C226.22 283.566 225.947 283.837 225.746 284.193C225.55 284.549 225.451 284.981 225.451 285.488ZM233.563 290.738V282.011H234.859V283.329H234.95C235.109 282.897 235.397 282.547 235.813 282.278C236.23 282.009 236.7 281.875 237.222 281.875C237.321 281.875 237.444 281.877 237.592 281.88C237.739 281.884 237.851 281.89 237.927 281.897V283.261C237.881 283.25 237.777 283.233 237.614 283.21C237.455 283.183 237.287 283.17 237.109 283.17C236.684 283.17 236.306 283.259 235.972 283.437C235.643 283.611 235.381 283.854 235.188 284.164C234.999 284.471 234.904 284.822 234.904 285.216V290.738H233.563ZM242.085 290.943C241.532 290.943 241.03 290.839 240.579 290.63C240.128 290.418 239.77 290.113 239.505 289.716C239.24 289.314 239.107 288.829 239.107 288.261C239.107 287.761 239.206 287.356 239.403 287.045C239.6 286.731 239.863 286.484 240.193 286.306C240.522 286.128 240.886 285.996 241.283 285.909C241.685 285.818 242.088 285.746 242.494 285.693C243.024 285.625 243.454 285.574 243.783 285.539C244.117 285.502 244.359 285.439 244.511 285.352C244.666 285.265 244.744 285.113 244.744 284.897V284.852C244.744 284.291 244.59 283.856 244.283 283.545C243.98 283.234 243.52 283.079 242.903 283.079C242.263 283.079 241.761 283.219 241.397 283.5C241.033 283.78 240.778 284.079 240.63 284.397L239.357 283.943C239.585 283.413 239.888 283 240.266 282.704C240.649 282.405 241.066 282.197 241.516 282.079C241.971 281.958 242.418 281.897 242.857 281.897C243.138 281.897 243.46 281.931 243.823 282C244.191 282.064 244.545 282.199 244.886 282.403C245.23 282.608 245.516 282.916 245.744 283.329C245.971 283.742 246.085 284.295 246.085 284.988V290.738H244.744V289.556H244.675C244.585 289.746 244.433 289.949 244.221 290.164C244.009 290.38 243.727 290.564 243.374 290.716C243.022 290.867 242.592 290.943 242.085 290.943ZM242.289 289.738C242.819 289.738 243.266 289.634 243.63 289.426C243.997 289.217 244.274 288.949 244.46 288.619C244.649 288.289 244.744 287.943 244.744 287.579V286.352C244.687 286.42 244.562 286.483 244.369 286.539C244.179 286.592 243.96 286.64 243.71 286.681C243.463 286.719 243.223 286.753 242.988 286.784C242.757 286.81 242.569 286.833 242.425 286.852C242.077 286.897 241.751 286.971 241.448 287.074C241.149 287.172 240.907 287.322 240.721 287.522C240.539 287.719 240.448 287.988 240.448 288.329C240.448 288.795 240.621 289.147 240.965 289.386C241.314 289.621 241.755 289.738 242.289 289.738ZM242.335 280.829L243.721 278.193H245.289L243.516 280.829H242.335ZM252.077 290.92C251.259 290.92 250.555 290.727 249.964 290.341C249.373 289.954 248.918 289.422 248.6 288.744C248.282 288.066 248.123 287.291 248.123 286.42C248.123 285.534 248.286 284.752 248.612 284.074C248.941 283.392 249.399 282.859 249.987 282.477C250.577 282.091 251.267 281.897 252.055 281.897C252.668 281.897 253.221 282.011 253.714 282.238C254.206 282.466 254.61 282.784 254.924 283.193C255.238 283.602 255.434 284.079 255.509 284.625H254.168C254.066 284.227 253.839 283.875 253.487 283.568C253.138 283.257 252.668 283.102 252.077 283.102C251.555 283.102 251.096 283.238 250.702 283.511C250.312 283.78 250.007 284.161 249.788 284.653C249.572 285.142 249.464 285.716 249.464 286.375C249.464 287.049 249.57 287.636 249.782 288.136C249.998 288.636 250.301 289.024 250.691 289.301C251.085 289.577 251.547 289.716 252.077 289.716C252.426 289.716 252.742 289.655 253.026 289.534C253.31 289.413 253.551 289.238 253.748 289.011C253.945 288.784 254.085 288.511 254.168 288.193H255.509C255.434 288.708 255.246 289.172 254.947 289.585C254.651 289.994 254.259 290.32 253.771 290.562C253.286 290.801 252.721 290.92 252.077 290.92ZM250.85 278.511L252.032 280.102L253.214 278.511H254.487V278.602L252.646 280.966H251.418L249.577 278.602V278.511H250.85ZM261.129 290.92C260.288 290.92 259.562 290.734 258.952 290.363C258.346 289.988 257.879 289.466 257.549 288.795C257.223 288.121 257.06 287.337 257.06 286.443C257.06 285.549 257.223 284.761 257.549 284.079C257.879 283.394 258.337 282.859 258.924 282.477C259.515 282.091 260.204 281.897 260.992 281.897C261.447 281.897 261.896 281.973 262.339 282.125C262.782 282.276 263.185 282.522 263.549 282.863C263.913 283.2 264.202 283.647 264.418 284.204C264.634 284.761 264.742 285.447 264.742 286.261V286.829H258.015V285.67H263.379C263.379 285.178 263.28 284.738 263.083 284.352C262.89 283.966 262.613 283.661 262.254 283.437C261.898 283.214 261.477 283.102 260.992 283.102C260.458 283.102 259.996 283.234 259.606 283.5C259.219 283.761 258.922 284.102 258.714 284.522C258.505 284.943 258.401 285.394 258.401 285.875V286.647C258.401 287.306 258.515 287.865 258.742 288.324C258.973 288.778 259.293 289.125 259.702 289.363C260.112 289.598 260.587 289.716 261.129 289.716C261.481 289.716 261.799 289.666 262.083 289.568C262.371 289.466 262.619 289.314 262.827 289.113C263.036 288.909 263.197 288.655 263.31 288.352L264.606 288.716C264.469 289.155 264.24 289.541 263.918 289.875C263.596 290.204 263.199 290.462 262.725 290.647C262.252 290.829 261.719 290.92 261.129 290.92ZM268.714 289.147L268.623 289.761C268.559 290.193 268.46 290.655 268.327 291.147C268.199 291.64 268.064 292.104 267.924 292.539C267.784 292.975 267.668 293.322 267.577 293.579H266.555C266.604 293.337 266.668 293.017 266.748 292.619C266.827 292.221 266.907 291.776 266.987 291.284C267.07 290.795 267.138 290.295 267.191 289.784L267.259 289.147H268.714ZM275.688 282.011H277.029V291.375C277.029 291.913 276.936 292.378 276.751 292.772C276.569 293.166 276.292 293.471 275.921 293.687C275.554 293.903 275.09 294.011 274.529 294.011C274.484 294.011 274.438 294.011 274.393 294.011C274.347 294.011 274.302 294.011 274.256 294.011V292.761C274.302 292.761 274.344 292.761 274.381 292.761C274.419 292.761 274.461 292.761 274.506 292.761C274.916 292.761 275.215 292.64 275.404 292.397C275.594 292.159 275.688 291.818 275.688 291.375V282.011ZM276.347 280.556C276.086 280.556 275.861 280.467 275.671 280.289C275.486 280.111 275.393 279.897 275.393 279.647C275.393 279.397 275.486 279.183 275.671 279.005C275.861 278.827 276.086 278.738 276.347 278.738C276.609 278.738 276.832 278.827 277.018 279.005C277.207 279.183 277.302 279.397 277.302 279.647C277.302 279.897 277.207 280.111 277.018 280.289C276.832 280.467 276.609 280.556 276.347 280.556ZM282.053 290.943C281.5 290.943 280.998 290.839 280.548 290.63C280.097 290.418 279.739 290.113 279.474 289.716C279.209 289.314 279.076 288.829 279.076 288.261C279.076 287.761 279.175 287.356 279.371 287.045C279.568 286.731 279.832 286.484 280.161 286.306C280.491 286.128 280.854 285.996 281.252 285.909C281.654 285.818 282.057 285.746 282.462 285.693C282.993 285.625 283.423 285.574 283.752 285.539C284.085 285.502 284.328 285.439 284.479 285.352C284.635 285.265 284.712 285.113 284.712 284.897V284.852C284.712 284.291 284.559 283.856 284.252 283.545C283.949 283.234 283.489 283.079 282.871 283.079C282.231 283.079 281.729 283.219 281.366 283.5C281.002 283.78 280.746 284.079 280.599 284.397L279.326 283.943C279.553 283.413 279.856 283 280.235 282.704C280.618 282.405 281.034 282.197 281.485 282.079C281.94 281.958 282.387 281.897 282.826 281.897C283.106 281.897 283.428 281.931 283.792 282C284.159 282.064 284.514 282.199 284.854 282.403C285.199 282.608 285.485 282.916 285.712 283.329C285.94 283.742 286.053 284.295 286.053 284.988V290.738H284.712V289.556H284.644C284.553 289.746 284.402 289.949 284.19 290.164C283.978 290.38 283.695 290.564 283.343 290.716C282.991 290.867 282.561 290.943 282.053 290.943ZM282.258 289.738C282.788 289.738 283.235 289.634 283.599 289.426C283.966 289.217 284.243 288.949 284.428 288.619C284.618 288.289 284.712 287.943 284.712 287.579V286.352C284.656 286.42 284.531 286.483 284.337 286.539C284.148 286.592 283.928 286.64 283.678 286.681C283.432 286.719 283.192 286.753 282.957 286.784C282.726 286.81 282.538 286.833 282.394 286.852C282.046 286.897 281.72 286.971 281.417 287.074C281.118 287.172 280.875 287.322 280.69 287.522C280.508 287.719 280.417 287.988 280.417 288.329C280.417 288.795 280.589 289.147 280.934 289.386C281.282 289.621 281.724 289.738 282.258 289.738ZM289.751 287.556L289.728 285.897H290.001L293.819 282.011H295.478L291.41 286.125H291.296L289.751 287.556ZM288.501 290.738V279.102H289.842V290.738H288.501ZM294.046 290.738L290.637 286.42L291.592 285.488L295.751 290.738H294.046ZM58.9837 312.92C58.2564 312.92 57.6144 312.736 57.0576 312.369C56.5007 311.998 56.0651 311.475 55.7507 310.801C55.4363 310.123 55.2791 309.322 55.2791 308.397C55.2791 307.481 55.4363 306.685 55.7507 306.011C56.0651 305.337 56.5026 304.816 57.0632 304.449C57.6238 304.081 58.2716 303.897 59.0064 303.897C59.5746 303.897 60.0235 303.992 60.353 304.181C60.6863 304.367 60.9401 304.579 61.1144 304.818C61.2924 305.053 61.4307 305.246 61.5292 305.397H61.6428V301.102H62.9837V312.738H61.6882V311.397H61.5292C61.4307 311.556 61.2905 311.757 61.1087 312C60.9269 312.238 60.6674 312.452 60.3303 312.642C59.9932 312.827 59.5443 312.92 58.9837 312.92ZM59.1655 311.716C59.7034 311.716 60.1579 311.575 60.5292 311.295C60.9004 311.011 61.1826 310.619 61.3757 310.119C61.5689 309.615 61.6655 309.034 61.6655 308.375C61.6655 307.723 61.5708 307.153 61.3814 306.664C61.192 306.172 60.9117 305.789 60.5405 305.517C60.1693 305.24 59.711 305.102 59.1655 305.102C58.5973 305.102 58.1238 305.248 57.7451 305.539C57.3701 305.827 57.0879 306.219 56.8985 306.716C56.7129 307.208 56.6201 307.761 56.6201 308.375C56.6201 308.996 56.7148 309.56 56.9042 310.068C57.0973 310.572 57.3814 310.973 57.7564 311.272C58.1352 311.568 58.6049 311.716 59.1655 311.716ZM69.1712 312.92C68.3833 312.92 67.692 312.733 67.0973 312.358C66.5064 311.983 66.0443 311.458 65.711 310.784C65.3814 310.109 65.2166 309.322 65.2166 308.42C65.2166 307.511 65.3814 306.717 65.711 306.039C66.0443 305.361 66.5064 304.835 67.0973 304.46C67.692 304.085 68.3833 303.897 69.1712 303.897C69.9591 303.897 70.6485 304.085 71.2394 304.46C71.8341 304.835 72.2962 305.361 72.6257 306.039C72.9591 306.717 73.1257 307.511 73.1257 308.42C73.1257 309.322 72.9591 310.109 72.6257 310.784C72.2962 311.458 71.8341 311.983 71.2394 312.358C70.6485 312.733 69.9591 312.92 69.1712 312.92ZM69.1712 311.716C69.7697 311.716 70.2621 311.562 70.6485 311.255C71.0348 310.949 71.3208 310.545 71.5064 310.045C71.692 309.545 71.7848 309.003 71.7848 308.42C71.7848 307.837 71.692 307.293 71.5064 306.789C71.3208 306.286 71.0348 305.878 70.6485 305.568C70.2621 305.257 69.7697 305.102 69.1712 305.102C68.5727 305.102 68.0803 305.257 67.6939 305.568C67.3076 305.878 67.0216 306.286 66.836 306.789C66.6504 307.293 66.5576 307.837 66.5576 308.42C66.5576 309.003 66.6504 309.545 66.836 310.045C67.0216 310.545 67.3076 310.949 67.6939 311.255C68.0803 311.562 68.5727 311.716 69.1712 311.716ZM75.3544 312.738V301.102H76.6953V305.397H76.809C76.9075 305.246 77.0438 305.053 77.2181 304.818C77.3961 304.579 77.6499 304.367 77.9794 304.181C78.3128 303.992 78.7635 303.897 79.3317 303.897C80.0666 303.897 80.7143 304.081 81.2749 304.449C81.8355 304.816 82.273 305.337 82.5874 306.011C82.9018 306.685 83.059 307.481 83.059 308.397C83.059 309.322 82.9018 310.123 82.5874 310.801C82.273 311.475 81.8374 311.998 81.2806 312.369C80.7238 312.736 80.0817 312.92 79.3544 312.92C78.7938 312.92 78.345 312.827 78.0078 312.642C77.6707 312.452 77.4113 312.238 77.2294 312C77.0476 311.757 76.9075 311.556 76.809 311.397H76.6499V312.738H75.3544ZM76.6726 308.375C76.6726 309.034 76.7692 309.615 76.9624 310.119C77.1556 310.619 77.4378 311.011 77.809 311.295C78.1802 311.575 78.6347 311.716 79.1726 311.716C79.7332 311.716 80.201 311.568 80.576 311.272C80.9548 310.973 81.2389 310.572 81.4283 310.068C81.6215 309.56 81.7181 308.996 81.7181 308.375C81.7181 307.761 81.6234 307.208 81.434 306.716C81.2484 306.219 80.9662 305.827 80.5874 305.539C80.2124 305.248 79.7408 305.102 79.1726 305.102C78.6272 305.102 78.1688 305.24 77.7976 305.517C77.4264 305.789 77.1461 306.172 76.9567 306.664C76.7673 307.153 76.6726 307.723 76.6726 308.375ZM85.1101 312.738V304.011H86.4056V305.329H86.4965C86.6556 304.897 86.9434 304.547 87.3601 304.278C87.7768 304.009 88.2465 303.875 88.7692 303.875C88.8677 303.875 88.9908 303.877 89.1385 303.88C89.2863 303.884 89.398 303.89 89.4738 303.897V305.261C89.4283 305.25 89.3241 305.233 89.1613 305.21C89.0022 305.183 88.8336 305.17 88.6556 305.17C88.2313 305.17 87.8525 305.259 87.5192 305.437C87.1897 305.611 86.9283 305.854 86.7351 306.164C86.5457 306.471 86.451 306.822 86.451 307.216V312.738H85.1101ZM85.9965 300.511L87.1783 302.102L88.3601 300.511H89.6328V300.602L87.7919 302.966H86.5647L84.7238 300.602V300.511H85.9965ZM94.4567 312.92C93.6158 312.92 92.8904 312.734 92.2806 312.363C91.6745 311.988 91.2067 311.466 90.8772 310.795C90.5514 310.121 90.3885 309.337 90.3885 308.443C90.3885 307.549 90.5514 306.761 90.8772 306.079C91.2067 305.394 91.665 304.859 92.2522 304.477C92.8431 304.091 93.5325 303.897 94.3203 303.897C94.7749 303.897 95.2238 303.973 95.6669 304.125C96.1101 304.276 96.5135 304.522 96.8772 304.863C97.2408 305.2 97.5306 305.647 97.7465 306.204C97.9624 306.761 98.0703 307.447 98.0703 308.261V308.829H91.3431V307.67H96.7067C96.7067 307.178 96.6082 306.738 96.4113 306.352C96.2181 305.966 95.9416 305.661 95.5817 305.437C95.2256 305.214 94.8052 305.102 94.3203 305.102C93.7863 305.102 93.3241 305.234 92.934 305.5C92.5476 305.761 92.2503 306.102 92.0419 306.522C91.8336 306.943 91.7294 307.394 91.7294 307.875V308.647C91.7294 309.306 91.8431 309.865 92.0703 310.324C92.3014 310.778 92.6215 311.125 93.0306 311.363C93.4397 311.598 93.915 311.716 94.4567 311.716C94.809 311.716 95.1272 311.666 95.4113 311.568C95.6991 311.466 95.9472 311.314 96.1556 311.113C96.3639 310.909 96.5249 310.655 96.6385 310.352L97.934 310.716C97.7976 311.155 97.5684 311.541 97.2465 311.875C96.9245 312.204 96.5268 312.462 96.0533 312.647C95.5798 312.829 95.0476 312.92 94.4567 312.92ZM104.36 312.738V311.716L109.315 305.352V305.261H104.519V304.011H111.042V305.079L106.224 311.397V311.488H111.201V312.738H104.36ZM114.607 307.488V312.738H113.266V304.011H114.562V305.375H114.675C114.88 304.931 115.191 304.575 115.607 304.306C116.024 304.034 116.562 303.897 117.221 303.897C117.812 303.897 118.329 304.019 118.772 304.261C119.215 304.5 119.56 304.863 119.806 305.352C120.052 305.837 120.175 306.45 120.175 307.193V312.738H118.835V307.284C118.835 306.598 118.657 306.064 118.3 305.681C117.944 305.295 117.456 305.102 116.835 305.102C116.407 305.102 116.024 305.195 115.687 305.38C115.353 305.566 115.09 305.837 114.897 306.193C114.704 306.549 114.607 306.981 114.607 307.488ZM125.194 312.943C124.641 312.943 124.139 312.839 123.688 312.63C123.237 312.418 122.88 312.113 122.614 311.716C122.349 311.314 122.217 310.829 122.217 310.261C122.217 309.761 122.315 309.356 122.512 309.045C122.709 308.731 122.972 308.484 123.302 308.306C123.631 308.128 123.995 307.996 124.393 307.909C124.794 307.818 125.198 307.746 125.603 307.693C126.133 307.625 126.563 307.574 126.893 307.539C127.226 307.502 127.469 307.439 127.62 307.352C127.775 307.265 127.853 307.113 127.853 306.897V306.852C127.853 306.291 127.7 305.856 127.393 305.545C127.09 305.234 126.63 305.079 126.012 305.079C125.372 305.079 124.87 305.219 124.506 305.5C124.143 305.78 123.887 306.079 123.739 306.397L122.467 305.943C122.694 305.413 122.997 305 123.376 304.704C123.758 304.405 124.175 304.197 124.626 304.079C125.08 303.958 125.527 303.897 125.967 303.897C126.247 303.897 126.569 303.931 126.933 304C127.3 304.064 127.654 304.199 127.995 304.403C128.34 304.608 128.626 304.916 128.853 305.329C129.08 305.742 129.194 306.295 129.194 306.988V312.738H127.853V311.556H127.785C127.694 311.746 127.542 311.949 127.33 312.164C127.118 312.38 126.836 312.564 126.484 312.716C126.131 312.867 125.701 312.943 125.194 312.943ZM125.398 311.738C125.929 311.738 126.376 311.634 126.739 311.426C127.107 311.217 127.383 310.949 127.569 310.619C127.758 310.289 127.853 309.943 127.853 309.579V308.352C127.796 308.42 127.671 308.483 127.478 308.539C127.289 308.592 127.069 308.64 126.819 308.681C126.573 308.719 126.332 308.753 126.097 308.784C125.866 308.81 125.679 308.833 125.535 308.852C125.186 308.897 124.861 308.971 124.558 309.074C124.258 309.172 124.016 309.322 123.83 309.522C123.648 309.719 123.558 309.988 123.558 310.329C123.558 310.795 123.73 311.147 124.075 311.386C124.423 311.621 124.864 311.738 125.398 311.738ZM125.444 302.829L126.83 300.193H128.398L126.626 302.829H125.444ZM135.437 304.011V305.147H130.914V304.011H135.437ZM132.232 301.92H133.573V310.238C133.573 310.617 133.628 310.901 133.738 311.091C133.852 311.276 133.996 311.401 134.17 311.466C134.348 311.526 134.535 311.556 134.732 311.556C134.88 311.556 135.001 311.549 135.096 311.534C135.191 311.515 135.266 311.5 135.323 311.488L135.596 312.693C135.505 312.727 135.378 312.761 135.215 312.795C135.052 312.833 134.846 312.852 134.596 312.852C134.217 312.852 133.846 312.77 133.482 312.608C133.122 312.445 132.823 312.197 132.585 311.863C132.35 311.53 132.232 311.109 132.232 310.602V301.92ZM141.019 312.92C140.178 312.92 139.453 312.734 138.843 312.363C138.237 311.988 137.769 311.466 137.44 310.795C137.114 310.121 136.951 309.337 136.951 308.443C136.951 307.549 137.114 306.761 137.44 306.079C137.769 305.394 138.228 304.859 138.815 304.477C139.406 304.091 140.095 303.897 140.883 303.897C141.337 303.897 141.786 303.973 142.229 304.125C142.673 304.276 143.076 304.522 143.44 304.863C143.803 305.2 144.093 305.647 144.309 306.204C144.525 306.761 144.633 307.447 144.633 308.261V308.829H137.906V307.67H143.269C143.269 307.178 143.171 306.738 142.974 306.352C142.781 305.966 142.504 305.661 142.144 305.437C141.788 305.214 141.368 305.102 140.883 305.102C140.349 305.102 139.887 305.234 139.496 305.5C139.11 305.761 138.813 306.102 138.604 306.522C138.396 306.943 138.292 307.394 138.292 307.875V308.647C138.292 309.306 138.406 309.865 138.633 310.324C138.864 310.778 139.184 311.125 139.593 311.363C140.002 311.598 140.478 311.716 141.019 311.716C141.371 311.716 141.69 311.666 141.974 311.568C142.262 311.466 142.51 311.314 142.718 311.113C142.926 310.909 143.087 310.655 143.201 310.352L144.496 310.716C144.36 311.155 144.131 311.541 143.809 311.875C143.487 312.204 143.089 312.462 142.616 312.647C142.142 312.829 141.61 312.92 141.019 312.92ZM157.354 305.966L156.15 306.306C156.074 306.106 155.962 305.911 155.815 305.721C155.671 305.528 155.474 305.369 155.224 305.244C154.974 305.119 154.654 305.056 154.264 305.056C153.729 305.056 153.284 305.18 152.928 305.426C152.576 305.668 152.4 305.977 152.4 306.352C152.4 306.685 152.521 306.949 152.764 307.142C153.006 307.335 153.385 307.496 153.9 307.625L155.195 307.943C155.976 308.132 156.557 308.422 156.94 308.812C157.322 309.199 157.514 309.697 157.514 310.306C157.514 310.806 157.37 311.253 157.082 311.647C156.798 312.041 156.4 312.352 155.889 312.579C155.377 312.806 154.782 312.92 154.104 312.92C153.214 312.92 152.478 312.727 151.894 312.341C151.311 311.954 150.942 311.39 150.786 310.647L152.059 310.329C152.18 310.799 152.409 311.151 152.746 311.386C153.087 311.621 153.532 311.738 154.082 311.738C154.707 311.738 155.203 311.606 155.57 311.341C155.942 311.072 156.127 310.75 156.127 310.375C156.127 310.072 156.021 309.818 155.809 309.613C155.597 309.405 155.271 309.25 154.832 309.147L153.377 308.806C152.578 308.617 151.991 308.324 151.616 307.926C151.245 307.524 151.059 307.022 151.059 306.42C151.059 305.928 151.197 305.492 151.474 305.113C151.754 304.734 152.135 304.437 152.616 304.221C153.101 304.005 153.65 303.897 154.264 303.897C155.127 303.897 155.805 304.087 156.298 304.466C156.794 304.844 157.146 305.344 157.354 305.966ZM166.668 304.011L163.441 312.738H162.077L158.85 304.011H160.305L162.714 310.966H162.805L165.214 304.011H166.668ZM171.785 312.92C170.944 312.92 170.219 312.734 169.609 312.363C169.003 311.988 168.535 311.466 168.205 310.795C167.88 310.121 167.717 309.337 167.717 308.443C167.717 307.549 167.88 306.761 168.205 306.079C168.535 305.394 168.993 304.859 169.58 304.477C170.171 304.091 170.861 303.897 171.648 303.897C172.103 303.897 172.552 303.973 172.995 304.125C173.438 304.276 173.842 304.522 174.205 304.863C174.569 305.2 174.859 305.647 175.075 306.204C175.291 306.761 175.398 307.447 175.398 308.261V308.829H168.671V307.67H174.035C174.035 307.178 173.936 306.738 173.739 306.352C173.546 305.966 173.27 305.661 172.91 305.437C172.554 305.214 172.133 305.102 171.648 305.102C171.114 305.102 170.652 305.234 170.262 305.5C169.876 305.761 169.578 306.102 169.37 306.522C169.162 306.943 169.058 307.394 169.058 307.875V308.647C169.058 309.306 169.171 309.865 169.398 310.324C169.63 310.778 169.95 311.125 170.359 311.363C170.768 311.598 171.243 311.716 171.785 311.716C172.137 311.716 172.455 311.666 172.739 311.568C173.027 311.466 173.275 311.314 173.484 311.113C173.692 310.909 173.853 310.655 173.967 310.352L175.262 310.716C175.126 311.155 174.897 311.541 174.575 311.875C174.253 312.204 173.855 312.462 173.381 312.647C172.908 312.829 172.376 312.92 171.785 312.92ZM170.967 302.829L172.353 300.193H173.921L172.148 302.829H170.967ZM178.779 307.488V312.738H177.438V301.102H178.779V305.375H178.893C179.097 304.924 179.404 304.566 179.813 304.301C180.226 304.032 180.775 303.897 181.461 303.897C182.056 303.897 182.576 304.017 183.023 304.255C183.47 304.49 183.817 304.852 184.063 305.341C184.313 305.825 184.438 306.443 184.438 307.193V312.738H183.097V307.284C183.097 306.591 182.917 306.055 182.558 305.676C182.201 305.293 181.707 305.102 181.075 305.102C180.635 305.102 180.241 305.195 179.893 305.38C179.548 305.566 179.275 305.837 179.075 306.193C178.878 306.549 178.779 306.981 178.779 307.488ZM190.437 312.92C189.649 312.92 188.958 312.733 188.363 312.358C187.772 311.983 187.31 311.458 186.977 310.784C186.647 310.109 186.482 309.322 186.482 308.42C186.482 307.511 186.647 306.717 186.977 306.039C187.31 305.361 187.772 304.835 188.363 304.46C188.958 304.085 189.649 303.897 190.437 303.897C191.225 303.897 191.914 304.085 192.505 304.46C193.1 304.835 193.562 305.361 193.891 306.039C194.225 306.717 194.391 307.511 194.391 308.42C194.391 309.322 194.225 310.109 193.891 310.784C193.562 311.458 193.1 311.983 192.505 312.358C191.914 312.733 191.225 312.92 190.437 312.92ZM190.437 311.716C191.035 311.716 191.528 311.562 191.914 311.255C192.3 310.949 192.586 310.545 192.772 310.045C192.958 309.545 193.05 309.003 193.05 308.42C193.05 307.837 192.958 307.293 192.772 306.789C192.586 306.286 192.3 305.878 191.914 305.568C191.528 305.257 191.035 305.102 190.437 305.102C189.838 305.102 189.346 305.257 188.96 305.568C188.573 305.878 188.287 306.286 188.102 306.789C187.916 307.293 187.823 307.837 187.823 308.42C187.823 309.003 187.916 309.545 188.102 310.045C188.287 310.545 188.573 310.949 188.96 311.255C189.346 311.562 189.838 311.716 190.437 311.716ZM207.12 305.966L205.916 306.306C205.84 306.106 205.728 305.911 205.58 305.721C205.436 305.528 205.239 305.369 204.989 305.244C204.739 305.119 204.419 305.056 204.029 305.056C203.495 305.056 203.05 305.18 202.694 305.426C202.342 305.668 202.166 305.977 202.166 306.352C202.166 306.685 202.287 306.949 202.529 307.142C202.772 307.335 203.15 307.496 203.666 307.625L204.961 307.943C205.741 308.132 206.323 308.422 206.705 308.812C207.088 309.199 207.279 309.697 207.279 310.306C207.279 310.806 207.135 311.253 206.847 311.647C206.563 312.041 206.166 312.352 205.654 312.579C205.143 312.806 204.548 312.92 203.87 312.92C202.98 312.92 202.243 312.727 201.66 312.341C201.076 311.954 200.707 311.39 200.552 310.647L201.825 310.329C201.946 310.799 202.175 311.151 202.512 311.386C202.853 311.621 203.298 311.738 203.847 311.738C204.472 311.738 204.969 311.606 205.336 311.341C205.707 311.072 205.893 310.75 205.893 310.375C205.893 310.072 205.787 309.818 205.575 309.613C205.362 309.405 205.037 309.25 204.597 309.147L203.143 308.806C202.344 308.617 201.756 308.324 201.381 307.926C201.01 307.524 200.825 307.022 200.825 306.42C200.825 305.928 200.963 305.492 201.239 305.113C201.52 304.734 201.9 304.437 202.381 304.221C202.866 304.005 203.416 303.897 204.029 303.897C204.893 303.897 205.571 304.087 206.063 304.466C206.559 304.844 206.912 305.344 207.12 305.966ZM209.298 316.011V304.011H210.593V305.397H210.752C210.851 305.246 210.987 305.053 211.161 304.818C211.339 304.579 211.593 304.367 211.923 304.181C212.256 303.992 212.707 303.897 213.275 303.897C214.01 303.897 214.657 304.081 215.218 304.449C215.779 304.816 216.216 305.337 216.531 306.011C216.845 306.685 217.002 307.481 217.002 308.397C217.002 309.322 216.845 310.123 216.531 310.801C216.216 311.475 215.781 311.998 215.224 312.369C214.667 312.736 214.025 312.92 213.298 312.92C212.737 312.92 212.288 312.827 211.951 312.642C211.614 312.452 211.354 312.238 211.173 312C210.991 311.757 210.851 311.556 210.752 311.397H210.639V316.011H209.298ZM210.616 308.375C210.616 309.034 210.712 309.615 210.906 310.119C211.099 310.619 211.381 311.011 211.752 311.295C212.123 311.575 212.578 311.716 213.116 311.716C213.676 311.716 214.144 311.568 214.519 311.272C214.898 310.973 215.182 310.572 215.371 310.068C215.565 309.56 215.661 308.996 215.661 308.375C215.661 307.761 215.567 307.208 215.377 306.716C215.192 306.219 214.909 305.827 214.531 305.539C214.156 305.248 213.684 305.102 213.116 305.102C212.57 305.102 212.112 305.24 211.741 305.517C211.37 305.789 211.089 306.172 210.9 306.664C210.71 307.153 210.616 307.723 210.616 308.375ZM222.593 312.92C221.805 312.92 221.114 312.733 220.519 312.358C219.928 311.983 219.466 311.458 219.133 310.784C218.803 310.109 218.639 309.322 218.639 308.42C218.639 307.511 218.803 306.717 219.133 306.039C219.466 305.361 219.928 304.835 220.519 304.46C221.114 304.085 221.805 303.897 222.593 303.897C223.381 303.897 224.07 304.085 224.661 304.46C225.256 304.835 225.718 305.361 226.048 306.039C226.381 306.717 226.548 307.511 226.548 308.42C226.548 309.322 226.381 310.109 226.048 310.784C225.718 311.458 225.256 311.983 224.661 312.358C224.07 312.733 223.381 312.92 222.593 312.92ZM222.593 311.716C223.192 311.716 223.684 311.562 224.07 311.255C224.457 310.949 224.743 310.545 224.928 310.045C225.114 309.545 225.207 309.003 225.207 308.42C225.207 307.837 225.114 307.293 224.928 306.789C224.743 306.286 224.457 305.878 224.07 305.568C223.684 305.257 223.192 305.102 222.593 305.102C221.995 305.102 221.502 305.257 221.116 305.568C220.729 305.878 220.443 306.286 220.258 306.789C220.072 307.293 219.979 307.837 219.979 308.42C219.979 309.003 220.072 309.545 220.258 310.045C220.443 310.545 220.729 310.949 221.116 311.255C221.502 311.562 221.995 311.716 222.593 311.716ZM229.935 301.102V312.738H228.594V301.102H229.935ZM237.891 309.17V304.011H239.232V312.738H237.891V311.261H237.8C237.596 311.704 237.278 312.081 236.846 312.392C236.414 312.699 235.869 312.852 235.21 312.852C234.664 312.852 234.179 312.733 233.755 312.494C233.331 312.252 232.997 311.888 232.755 311.403C232.513 310.914 232.391 310.299 232.391 309.556V304.011H233.732V309.466C233.732 310.102 233.91 310.609 234.266 310.988C234.626 311.367 235.085 311.556 235.641 311.556C235.975 311.556 236.314 311.471 236.658 311.301C237.007 311.13 237.299 310.869 237.533 310.517C237.772 310.164 237.891 309.716 237.891 309.17ZM243.029 307.488V312.738H241.688V301.102H243.029V305.375H243.143C243.347 304.924 243.654 304.566 244.063 304.301C244.476 304.032 245.025 303.897 245.711 303.897C246.306 303.897 246.826 304.017 247.273 304.255C247.72 304.49 248.067 304.852 248.313 305.341C248.563 305.825 248.688 306.443 248.688 307.193V312.738H247.347V307.284C247.347 306.591 247.167 306.055 246.808 305.676C246.451 305.293 245.957 305.102 245.325 305.102C244.885 305.102 244.491 305.195 244.143 305.38C243.798 305.566 243.525 305.837 243.325 306.193C243.128 306.549 243.029 306.981 243.029 307.488ZM251.141 312.738V304.011H252.437V305.329H252.528C252.687 304.897 252.975 304.547 253.391 304.278C253.808 304.009 254.278 303.875 254.8 303.875C254.899 303.875 255.022 303.877 255.17 303.88C255.318 303.884 255.429 303.89 255.505 303.897V305.261C255.46 305.25 255.355 305.233 255.193 305.21C255.033 305.183 254.865 305.17 254.687 305.17C254.263 305.17 253.884 305.259 253.55 305.437C253.221 305.611 252.96 305.854 252.766 306.164C252.577 306.471 252.482 306.822 252.482 307.216V312.738H251.141ZM259.663 312.943C259.11 312.943 258.608 312.839 258.157 312.63C257.706 312.418 257.348 312.113 257.083 311.716C256.818 311.314 256.685 310.829 256.685 310.261C256.685 309.761 256.784 309.356 256.981 309.045C257.178 308.731 257.441 308.484 257.771 308.306C258.1 308.128 258.464 307.996 258.862 307.909C259.263 307.818 259.666 307.746 260.072 307.693C260.602 307.625 261.032 307.574 261.362 307.539C261.695 307.502 261.937 307.439 262.089 307.352C262.244 307.265 262.322 307.113 262.322 306.897V306.852C262.322 306.291 262.168 305.856 261.862 305.545C261.559 305.234 261.098 305.079 260.481 305.079C259.841 305.079 259.339 305.219 258.975 305.5C258.612 305.78 258.356 306.079 258.208 306.397L256.935 305.943C257.163 305.413 257.466 305 257.844 304.704C258.227 304.405 258.644 304.197 259.094 304.079C259.549 303.958 259.996 303.897 260.435 303.897C260.716 303.897 261.038 303.931 261.401 304C261.769 304.064 262.123 304.199 262.464 304.403C262.809 304.608 263.094 304.916 263.322 305.329C263.549 305.742 263.663 306.295 263.663 306.988V312.738H262.322V311.556H262.254C262.163 311.746 262.011 311.949 261.799 312.164C261.587 312.38 261.305 312.564 260.952 312.716C260.6 312.867 260.17 312.943 259.663 312.943ZM259.867 311.738C260.398 311.738 260.844 311.634 261.208 311.426C261.576 311.217 261.852 310.949 262.038 310.619C262.227 310.289 262.322 309.943 262.322 309.579V308.352C262.265 308.42 262.14 308.483 261.947 308.539C261.757 308.592 261.538 308.64 261.288 308.681C261.041 308.719 260.801 308.753 260.566 308.784C260.335 308.81 260.148 308.833 260.004 308.852C259.655 308.897 259.329 308.971 259.026 309.074C258.727 309.172 258.485 309.322 258.299 309.522C258.117 309.719 258.026 309.988 258.026 310.329C258.026 310.795 258.199 311.147 258.543 311.386C258.892 311.621 259.333 311.738 259.867 311.738ZM259.913 302.829L261.299 300.193H262.867L261.094 302.829H259.913ZM269.656 312.92C268.837 312.92 268.133 312.727 267.542 312.341C266.951 311.954 266.496 311.422 266.178 310.744C265.86 310.066 265.701 309.291 265.701 308.42C265.701 307.534 265.864 306.752 266.19 306.074C266.519 305.392 266.978 304.859 267.565 304.477C268.156 304.091 268.845 303.897 269.633 303.897C270.246 303.897 270.8 304.011 271.292 304.238C271.784 304.466 272.188 304.784 272.502 305.193C272.817 305.602 273.012 306.079 273.087 306.625H271.746C271.644 306.227 271.417 305.875 271.065 305.568C270.716 305.257 270.246 305.102 269.656 305.102C269.133 305.102 268.675 305.238 268.281 305.511C267.89 305.78 267.585 306.161 267.366 306.653C267.15 307.142 267.042 307.716 267.042 308.375C267.042 309.049 267.148 309.636 267.36 310.136C267.576 310.636 267.879 311.024 268.269 311.301C268.663 311.577 269.125 311.716 269.656 311.716C270.004 311.716 270.32 311.655 270.604 311.534C270.889 311.413 271.129 311.238 271.326 311.011C271.523 310.784 271.663 310.511 271.746 310.193H273.087C273.012 310.708 272.824 311.172 272.525 311.585C272.229 311.994 271.837 312.32 271.349 312.562C270.864 312.801 270.3 312.92 269.656 312.92ZM268.428 300.511L269.61 302.102L270.792 300.511H272.065V300.602L270.224 302.966H268.996L267.156 300.602V300.511H268.428ZM278.707 312.92C277.866 312.92 277.14 312.734 276.531 312.363C275.925 311.988 275.457 311.466 275.127 310.795C274.801 310.121 274.639 309.337 274.639 308.443C274.639 307.549 274.801 306.761 275.127 306.079C275.457 305.394 275.915 304.859 276.502 304.477C277.093 304.091 277.782 303.897 278.57 303.897C279.025 303.897 279.474 303.973 279.917 304.125C280.36 304.276 280.764 304.522 281.127 304.863C281.491 305.2 281.781 305.647 281.996 306.204C282.212 306.761 282.32 307.447 282.32 308.261V308.829H275.593V307.67H280.957C280.957 307.178 280.858 306.738 280.661 306.352C280.468 305.966 280.192 305.661 279.832 305.437C279.476 305.214 279.055 305.102 278.57 305.102C278.036 305.102 277.574 305.234 277.184 305.5C276.798 305.761 276.5 306.102 276.292 306.522C276.084 306.943 275.979 307.394 275.979 307.875V308.647C275.979 309.306 276.093 309.865 276.32 310.324C276.551 310.778 276.871 311.125 277.281 311.363C277.69 311.598 278.165 311.716 278.707 311.716C279.059 311.716 279.377 311.666 279.661 311.568C279.949 311.466 280.197 311.314 280.406 311.113C280.614 310.909 280.775 310.655 280.889 310.352L282.184 310.716C282.048 311.155 281.818 311.541 281.496 311.875C281.175 312.204 280.777 312.462 280.303 312.647C279.83 312.829 279.298 312.92 278.707 312.92ZM285.337 312.829C285.057 312.829 284.817 312.729 284.616 312.528C284.415 312.327 284.315 312.087 284.315 311.806C284.315 311.526 284.415 311.286 284.616 311.085C284.817 310.884 285.057 310.784 285.337 310.784C285.618 310.784 285.858 310.884 286.059 311.085C286.26 311.286 286.36 311.526 286.36 311.806C286.36 311.992 286.313 312.163 286.218 312.318C286.127 312.473 286.004 312.598 285.849 312.693C285.697 312.784 285.527 312.829 285.337 312.829Z" fill="#0B1F42"/>
<rect x="57.9581" y="109.568" width="109.39" height="109.39" rx="54.6952" fill="#FFFDFD"/>
<path d="M91.3198 186.764L106.773 142.737H118.474L133.928 186.764H123.852L120.779 177.161H104.321L101.13 186.764H91.3198ZM106.773 169.892H118.415L116.938 165.342C115.579 160.85 114.219 156.359 112.653 150.893C111.058 156.359 109.699 160.85 108.28 165.342L106.773 169.892Z" fill="#0B1F42"/>
<rect x="167.349" y="109.568" width="109.39" height="109.39" rx="54.6952" fill="#FFFDFD"/>
<path d="M205.822 186.764V142.737H223.462C232.947 142.737 238.265 147.288 238.265 154.054C238.265 159.136 235.222 162.534 230.376 163.746V163.805C235.754 164.307 239.891 168.089 239.891 174.354C239.891 181.711 234.483 186.764 224.467 186.764H205.822ZM214.716 179.613H223.196C227.865 179.613 230.613 177.515 230.613 173.851C230.613 170.187 227.924 167.883 223.344 167.883H214.716V179.613ZM214.716 161.028H222.782C226.771 161.028 229.224 158.871 229.224 155.473C229.224 152.045 226.771 149.888 222.782 149.888H214.716V161.028Z" fill="#0B1F42"/>
<path d="M89.5244 231.042L89.5243 200.954L83.0366 206.73L59.4351 206.73C56.4398 206.73 54.0099 209.16 54.0099 212.156L54.0099 231.042C54.0099 234.038 56.4398 236.469 59.4351 236.469L84.0992 236.469C87.0944 236.469 89.5244 234.038 89.5244 231.042Z" fill="#FFFDFD" stroke="#0B1F42" stroke-width="2" stroke-linecap="round" stroke-linejoin="round"/>
<path d="M67.0558 216.544C67.0558 216.544 66.8432 211.727 71.9157 211.727C71.9157 211.727 76.4795 211.727 76.4795 216.544C76.4795 221.235 71.7248 221.151 71.7248 225.693" stroke="#0B1F42" stroke-width="2" stroke-linecap="round"/>
<path d="M71.829 229.916V230.465" stroke="#0B1F42" stroke-width="2" stroke-linecap="round"/>
<path d="M252.476 104.102V134.19L258.963 128.415H282.565C285.56 128.415 287.99 125.984 287.99 122.988V104.102C287.99 101.106 285.56 98.6758 282.565 98.6758H257.901C254.905 98.6758 252.476 101.106 252.476 104.102Z" fill="#FFFDFD" stroke="#0B1F42" stroke-width="2" stroke-linecap="round" stroke-linejoin="round"/>
<path d="M270.238 123.572C275.715 123.572 280.156 119.132 280.156 113.654C280.156 108.177 275.715 103.736 270.238 103.736C264.761 103.736 260.32 108.177 260.32 113.654C260.32 119.132 264.761 123.572 270.238 123.572Z" fill="#FFFDFD" stroke="#0B1F42" stroke-width="2" stroke-linecap="round" stroke-linejoin="round"/>
<path d="M266.6 113.011C266.846 113.011 267.045 112.608 267.045 112.11C267.045 111.612 266.846 111.209 266.6 111.209C266.355 111.209 266.156 111.612 266.156 112.11C266.156 112.608 266.355 113.011 266.6 113.011Z" fill="#0B1F42" stroke="#0B1F42" stroke-width="2" stroke-linecap="round" stroke-linejoin="round"/>
<path d="M273.577 113.011C273.823 113.011 274.022 112.608 274.022 112.11C274.022 111.612 273.823 111.209 273.577 111.209C273.332 111.209 273.133 111.612 273.133 112.11C273.133 112.608 273.332 113.011 273.577 113.011Z" fill="#0B1F42" stroke="#0B1F42" stroke-width="2" stroke-linecap="round" stroke-linejoin="round"/>
<path d="M266.601 116.137C266.601 116.137 267.376 118.87 270.073 118.87C272.771 118.87 273.579 116.137 273.579 116.137" stroke="#0B1F42" stroke-width="2" stroke-linecap="round" stroke-linejoin="round"/>
<defs>
<linearGradient id="paint0_linear_8458_5346" x1="0" y1="109.765" x2="342" y2="109.765" gradientUnits="userSpaceOnUse">
<stop stop-color="#DDB7E1"/>
<stop offset="1" stop-color="#A3D7FD"/>
</linearGradient>
</defs>
</svg>

