<svg width="342" height="342" viewBox="0 0 342 342" fill="none" xmlns="http://www.w3.org/2000/svg">
<rect width="342" height="342" fill="#A7BAC8"/>
<path d="M58.1627 53.4062V30.125H67.3502C72.5846 30.125 75.8658 33.0781 75.8658 37.7656C75.8658 42.4531 72.5221 45.4062 67.2877 45.4062H62.9752V53.4062H58.1627ZM62.9752 41.375H67.0377C69.5846 41.375 71.1627 39.9844 71.1627 37.7656C71.1627 35.5469 69.5846 34.1562 67.0377 34.1562H62.9752V41.375ZM85.0533 53.7812C80.0533 53.7812 76.6783 50.3438 76.6783 45.1719C76.6783 40 80.0533 36.5312 85.0533 36.5312C90.069 36.5312 93.444 40 93.444 45.1719C93.444 50.3438 90.069 53.7812 85.0533 53.7812ZM85.0533 50.0469C87.3033 50.0469 88.8033 48.2344 88.8033 45.1719C88.8033 42.0938 87.2877 40.2656 85.0533 40.2656C82.8346 40.2656 81.319 42.0938 81.319 45.1719C81.319 48.2344 82.819 50.0469 85.0533 50.0469ZM95.1471 53.4062V50.3125L103.335 40.6094V40.5625H95.1471V36.9062H108.756V40.1719L100.741 49.7188V49.7656H108.881V53.4062H95.1471ZM118.96 53.7812C113.96 53.7812 110.585 50.3438 110.585 45.1719C110.585 40 113.96 36.5312 118.96 36.5312C123.975 36.5312 127.35 40 127.35 45.1719C127.35 50.3438 123.975 53.7812 118.96 53.7812ZM118.96 50.0469C121.21 50.0469 122.71 48.2344 122.71 45.1719C122.71 42.0938 121.194 40.2656 118.96 40.2656C116.741 40.2656 115.225 42.0938 115.225 45.1719C115.225 48.2344 116.725 50.0469 118.96 50.0469ZM129.897 53.4062V36.9062H134.335V39.7188H134.381C134.991 37.7344 136.241 36.7969 138.413 36.7969C138.944 36.7969 139.397 36.8125 139.772 36.8281V40.75C139.428 40.7344 138.569 40.6719 137.788 40.6719C135.897 40.6719 134.506 41.9844 134.506 44.4688V53.4062H129.897ZM141.475 58.2812L142.631 49.6094H147.053L144.694 58.2812H141.475ZM166.553 53.7812C161.553 53.7812 158.303 50.1875 158.303 45.1719C158.303 40.1406 161.663 36.5312 166.397 36.5312C171.256 36.5312 174.522 40.0469 174.522 45.0781V46.3125H162.788C162.866 48.75 164.272 50.3281 166.694 50.3281C168.491 50.3281 169.725 49.5 170.147 48.2188H174.35C173.741 51.5 170.553 53.7812 166.553 53.7812ZM162.819 43.375H170.178C169.944 41.3125 168.569 40.0312 166.491 40.0312C164.428 40.0312 163.069 41.3125 162.819 43.375ZM174.897 53.4062L180.803 45L175.303 36.9062H180.335L181.788 39.2188C182.35 40.1719 182.866 41.0625 183.381 41.9531C183.897 41.0625 184.413 40.1719 185.006 39.2188L186.491 36.9062H191.444L185.881 44.8906L191.71 53.4062H186.663L185.006 50.875C184.413 49.875 183.866 48.9688 183.335 48.0469C182.772 48.9688 182.225 49.875 181.616 50.875L179.928 53.4062H174.897ZM200.397 53.7812C195.397 53.7812 192.147 50.1875 192.147 45.1719C192.147 40.1406 195.506 36.5312 200.241 36.5312C205.1 36.5312 208.366 40.0469 208.366 45.0781V46.3125H196.631C196.71 48.75 198.116 50.3281 200.538 50.3281C202.335 50.3281 203.569 49.5 203.991 48.2188H208.194C207.585 51.5 204.397 53.7812 200.397 53.7812ZM196.663 43.375H204.022C203.788 41.3125 202.413 40.0312 200.335 40.0312C198.272 40.0312 196.913 41.3125 196.663 43.375ZM210.835 53.4062V30.125H215.444V43.2188H215.491L221.272 36.9062H226.678L220.225 44.0625L227.022 53.4062H221.631L216.772 46.7031L215.444 48.1719V53.4062H210.835ZM236.194 53.75C231.397 53.75 228.46 51.0625 228.46 46.7656V36.9062H233.069V46.4844C233.069 48.6406 234.178 49.9219 236.194 49.9219C238.21 49.9219 239.335 48.6406 239.335 46.4844V36.9062H243.928V46.7656C243.928 51.0625 240.991 53.75 236.194 53.75ZM256.694 36.9062V40.5156H253.319V48.3125C253.319 49.4375 253.678 49.7969 254.928 49.7969H256.694V53.4062H254.006C250.381 53.4062 248.71 52.0312 248.71 49.0312V40.5156H245.866V36.9062H248.71V32.4062H253.319V36.9062H256.694ZM266.428 53.7812C261.428 53.7812 258.053 50.3438 258.053 45.1719C258.053 40 261.428 36.5312 266.428 36.5312C271.444 36.5312 274.819 40 274.819 45.1719C274.819 50.3438 271.444 53.7812 266.428 53.7812ZM266.428 50.0469C268.678 50.0469 270.178 48.2344 270.178 45.1719C270.178 42.0938 268.663 40.2656 266.428 40.2656C264.21 40.2656 262.694 42.0938 262.694 45.1719C262.694 48.2344 264.194 50.0469 266.428 50.0469ZM277.366 53.4062V36.9062H281.803V39.7188H281.85C282.46 37.7344 283.71 36.7969 285.881 36.7969C286.413 36.7969 286.866 36.8125 287.241 36.8281V40.75C286.897 40.7344 286.038 40.6719 285.256 40.6719C283.366 40.6719 281.975 41.9844 281.975 44.4688V53.4062H277.366ZM289.585 46.5469L289.163 30.125H294.085L293.663 46.5469H289.585ZM291.631 53.6875C290.147 53.6875 288.975 52.5156 288.975 51.0312C288.975 49.5625 290.147 48.375 291.631 48.375C293.1 48.375 294.272 49.5625 294.272 51.0312C294.272 52.5156 293.1 53.6875 291.631 53.6875Z" fill="#0B1F42"/>
<path d="M61.3835 284.92C61.3835 286.147 61.1619 287.208 60.7188 288.102C60.2756 288.996 59.6676 289.685 58.8949 290.17C58.1222 290.655 57.2396 290.897 56.2472 290.897C55.2547 290.897 54.3722 290.655 53.5994 290.17C52.8267 289.685 52.2188 288.996 51.7756 288.102C51.3324 287.208 51.1108 286.147 51.1108 284.92C51.1108 283.693 51.3324 282.632 51.7756 281.738C52.2188 280.844 52.8267 280.155 53.5994 279.67C54.3722 279.185 55.2547 278.943 56.2472 278.943C57.2396 278.943 58.1222 279.185 58.8949 279.67C59.6676 280.155 60.2756 280.844 60.7188 281.738C61.1619 282.632 61.3835 283.693 61.3835 284.92ZM60.0199 284.92C60.0199 283.913 59.8513 283.062 59.5142 282.369C59.1809 281.676 58.7282 281.151 58.1562 280.795C57.5881 280.439 56.9517 280.261 56.2472 280.261C55.5426 280.261 54.9044 280.439 54.3324 280.795C53.7642 281.151 53.3116 281.676 52.9744 282.369C52.6411 283.062 52.4744 283.913 52.4744 284.92C52.4744 285.928 52.6411 286.778 52.9744 287.471C53.3116 288.164 53.7642 288.689 54.3324 289.045C54.9044 289.401 55.5426 289.579 56.2472 289.579C56.9517 289.579 57.5881 289.401 58.1562 289.045C58.7282 288.689 59.1809 288.164 59.5142 287.471C59.8513 286.778 60.0199 285.928 60.0199 284.92ZM70.7074 282.011L67.4801 290.738H66.1165L62.8892 282.011H64.3438L66.7528 288.966H66.8438L69.2528 282.011H70.7074ZM75.8239 290.92C74.983 290.92 74.2576 290.734 73.6477 290.363C73.0417 289.988 72.5739 289.466 72.2443 288.795C71.9186 288.121 71.7557 287.337 71.7557 286.443C71.7557 285.549 71.9186 284.761 72.2443 284.079C72.5739 283.394 73.0322 282.859 73.6193 282.477C74.2102 282.091 74.8996 281.897 75.6875 281.897C76.142 281.897 76.5909 281.973 77.0341 282.125C77.4773 282.276 77.8807 282.522 78.2443 282.863C78.608 283.2 78.8977 283.647 79.1136 284.204C79.3295 284.761 79.4375 285.447 79.4375 286.261V286.829H72.7102V285.67H78.0739C78.0739 285.178 77.9754 284.738 77.7784 284.352C77.5852 283.966 77.3087 283.661 76.9489 283.437C76.5928 283.214 76.1723 283.102 75.6875 283.102C75.1534 283.102 74.6913 283.234 74.3011 283.5C73.9148 283.761 73.6174 284.102 73.4091 284.522C73.2008 284.943 73.0966 285.394 73.0966 285.875V286.647C73.0966 287.306 73.2102 287.865 73.4375 288.324C73.6686 288.778 73.9886 289.125 74.3977 289.363C74.8068 289.598 75.2822 289.716 75.8239 289.716C76.1761 289.716 76.4943 289.666 76.7784 289.568C77.0663 289.466 77.3144 289.314 77.5227 289.113C77.7311 288.909 77.892 288.655 78.0057 288.352L79.3011 288.716C79.1648 289.155 78.9356 289.541 78.6136 289.875C78.2917 290.204 77.8939 290.462 77.4205 290.647C76.947 290.829 76.4148 290.92 75.8239 290.92ZM74.4375 278.511L75.6193 280.102L76.8011 278.511H78.0739V278.602L76.233 280.966H75.0057L73.1648 278.602V278.511H74.4375ZM81.4773 290.738V282.011H82.7727V283.329H82.8636C83.0227 282.897 83.3106 282.547 83.7273 282.278C84.1439 282.009 84.6136 281.875 85.1364 281.875C85.2348 281.875 85.358 281.877 85.5057 281.88C85.6534 281.884 85.7652 281.89 85.8409 281.897V283.261C85.7955 283.25 85.6913 283.233 85.5284 283.21C85.3693 283.183 85.2008 283.17 85.0227 283.17C84.5985 283.17 84.2197 283.259 83.8864 283.437C83.5568 283.611 83.2955 283.854 83.1023 284.164C82.9129 284.471 82.8182 284.822 82.8182 285.216V290.738H81.4773ZM82.3636 278.511L83.5455 280.102L84.7273 278.511H86V278.602L84.1591 280.966H82.9318L81.0909 278.602V278.511H82.3636ZM91.7727 282.011V283.147H87.25V282.011H91.7727ZM88.5682 279.92H89.9091V288.238C89.9091 288.617 89.964 288.901 90.0739 289.091C90.1875 289.276 90.3314 289.401 90.5057 289.466C90.6837 289.526 90.8712 289.556 91.0682 289.556C91.2159 289.556 91.3371 289.549 91.4318 289.534C91.5265 289.515 91.6023 289.5 91.6591 289.488L91.9318 290.693C91.8409 290.727 91.714 290.761 91.5511 290.795C91.3883 290.833 91.1818 290.852 90.9318 290.852C90.553 290.852 90.1818 290.77 89.8182 290.608C89.4583 290.445 89.1591 290.197 88.9205 289.863C88.6856 289.53 88.5682 289.109 88.5682 288.602V279.92ZM97.3551 290.92C96.5142 290.92 95.7888 290.734 95.179 290.363C94.5729 289.988 94.1051 289.466 93.7756 288.795C93.4498 288.121 93.2869 287.337 93.2869 286.443C93.2869 285.549 93.4498 284.761 93.7756 284.079C94.1051 283.394 94.5634 282.859 95.1506 282.477C95.7415 282.091 96.4309 281.897 97.2188 281.897C97.6733 281.897 98.1222 281.973 98.5653 282.125C99.0085 282.276 99.4119 282.522 99.7756 282.863C100.139 283.2 100.429 283.647 100.645 284.204C100.861 284.761 100.969 285.447 100.969 286.261V286.829H94.2415V285.67H99.6051C99.6051 285.178 99.5066 284.738 99.3097 284.352C99.1165 283.966 98.84 283.661 98.4801 283.437C98.1241 283.214 97.7036 283.102 97.2188 283.102C96.6847 283.102 96.2225 283.234 95.8324 283.5C95.446 283.761 95.1487 284.102 94.9403 284.522C94.732 284.943 94.6278 285.394 94.6278 285.875V286.647C94.6278 287.306 94.7415 287.865 94.9688 288.324C95.1998 288.778 95.5199 289.125 95.929 289.363C96.3381 289.598 96.8134 289.716 97.3551 289.716C97.7074 289.716 98.0256 289.666 98.3097 289.568C98.5975 289.466 98.8456 289.314 99.054 289.113C99.2623 288.909 99.4233 288.655 99.5369 288.352L100.832 288.716C100.696 289.155 100.467 289.541 100.145 289.875C99.8229 290.204 99.4252 290.462 98.9517 290.647C98.4782 290.829 97.946 290.92 97.3551 290.92ZM113.69 283.966L112.486 284.306C112.41 284.106 112.298 283.911 112.151 283.721C112.007 283.528 111.81 283.369 111.56 283.244C111.31 283.119 110.99 283.056 110.599 283.056C110.065 283.056 109.62 283.18 109.264 283.426C108.912 283.668 108.736 283.977 108.736 284.352C108.736 284.685 108.857 284.949 109.099 285.142C109.342 285.335 109.721 285.496 110.236 285.625L111.531 285.943C112.312 286.132 112.893 286.422 113.276 286.812C113.658 287.199 113.849 287.697 113.849 288.306C113.849 288.806 113.705 289.253 113.418 289.647C113.134 290.041 112.736 290.352 112.224 290.579C111.713 290.806 111.118 290.92 110.44 290.92C109.55 290.92 108.813 290.727 108.23 290.341C107.647 289.954 107.277 289.39 107.122 288.647L108.395 288.329C108.516 288.799 108.745 289.151 109.082 289.386C109.423 289.621 109.868 289.738 110.418 289.738C111.043 289.738 111.539 289.606 111.906 289.341C112.277 289.072 112.463 288.75 112.463 288.375C112.463 288.072 112.357 287.818 112.145 287.613C111.933 287.405 111.607 287.25 111.168 287.147L109.713 286.806C108.914 286.617 108.327 286.324 107.952 285.926C107.58 285.524 107.395 285.022 107.395 284.42C107.395 283.928 107.533 283.492 107.81 283.113C108.09 282.734 108.471 282.437 108.952 282.221C109.437 282.005 109.986 281.897 110.599 281.897C111.463 281.897 112.141 282.087 112.634 282.466C113.13 282.844 113.482 283.344 113.69 283.966ZM115.868 290.738V282.011H117.209V290.738H115.868ZM116.55 280.556C116.288 280.556 116.063 280.467 115.874 280.289C115.688 280.111 115.595 279.897 115.595 279.647C115.595 279.397 115.688 279.183 115.874 279.005C116.063 278.827 116.288 278.738 116.55 278.738C116.811 278.738 117.035 278.827 117.22 279.005C117.41 279.183 117.504 279.397 117.504 279.647C117.504 279.897 117.41 280.111 117.22 280.289C117.035 280.467 116.811 280.556 116.55 280.556ZM121.597 289.147L121.506 289.761C121.441 290.193 121.343 290.655 121.21 291.147C121.081 291.64 120.947 292.104 120.807 292.539C120.667 292.975 120.551 293.322 120.46 293.579H119.438C119.487 293.337 119.551 293.017 119.631 292.619C119.71 292.221 119.79 291.776 119.869 291.284C119.953 290.795 120.021 290.295 120.074 289.784L120.142 289.147H121.597ZM132.116 290.92C131.298 290.92 130.594 290.727 130.003 290.341C129.412 289.954 128.957 289.422 128.639 288.744C128.321 288.066 128.162 287.291 128.162 286.42C128.162 285.534 128.325 284.752 128.651 284.074C128.98 283.392 129.438 282.859 130.026 282.477C130.616 282.091 131.306 281.897 132.094 281.897C132.707 281.897 133.26 282.011 133.753 282.238C134.245 282.466 134.649 282.784 134.963 283.193C135.277 283.602 135.473 284.079 135.548 284.625H134.207C134.105 284.227 133.878 283.875 133.526 283.568C133.177 283.257 132.707 283.102 132.116 283.102C131.594 283.102 131.135 283.238 130.741 283.511C130.351 283.78 130.046 284.161 129.827 284.653C129.611 285.142 129.503 285.716 129.503 286.375C129.503 287.049 129.609 287.636 129.821 288.136C130.037 288.636 130.34 289.024 130.73 289.301C131.124 289.577 131.586 289.716 132.116 289.716C132.465 289.716 132.781 289.655 133.065 289.534C133.349 289.413 133.59 289.238 133.787 289.011C133.984 288.784 134.124 288.511 134.207 288.193H135.548C135.473 288.708 135.285 289.172 134.986 289.585C134.69 289.994 134.298 290.32 133.81 290.562C133.325 290.801 132.76 290.92 132.116 290.92ZM141.054 290.92C140.266 290.92 139.575 290.733 138.98 290.358C138.389 289.983 137.927 289.458 137.594 288.784C137.264 288.109 137.099 287.322 137.099 286.42C137.099 285.511 137.264 284.717 137.594 284.039C137.927 283.361 138.389 282.835 138.98 282.46C139.575 282.085 140.266 281.897 141.054 281.897C141.842 281.897 142.531 282.085 143.122 282.46C143.717 282.835 144.179 283.361 144.509 284.039C144.842 284.717 145.009 285.511 145.009 286.42C145.009 287.322 144.842 288.109 144.509 288.784C144.179 289.458 143.717 289.983 143.122 290.358C142.531 290.733 141.842 290.92 141.054 290.92ZM141.054 289.716C141.652 289.716 142.145 289.562 142.531 289.255C142.918 288.949 143.204 288.545 143.389 288.045C143.575 287.545 143.668 287.003 143.668 286.42C143.668 285.837 143.575 285.293 143.389 284.789C143.204 284.286 142.918 283.878 142.531 283.568C142.145 283.257 141.652 283.102 141.054 283.102C140.455 283.102 139.963 283.257 139.577 283.568C139.19 283.878 138.904 284.286 138.719 284.789C138.533 285.293 138.44 285.837 138.44 286.42C138.44 287.003 138.533 287.545 138.719 288.045C138.904 288.545 139.19 288.949 139.577 289.255C139.963 289.562 140.455 289.716 141.054 289.716ZM151.555 290.738V282.011H152.851V283.375H152.964C153.146 282.909 153.44 282.547 153.845 282.289C154.25 282.028 154.737 281.897 155.305 281.897C155.881 281.897 156.36 282.028 156.743 282.289C157.129 282.547 157.43 282.909 157.646 283.375H157.737C157.961 282.924 158.296 282.566 158.743 282.301C159.19 282.032 159.726 281.897 160.351 281.897C161.131 281.897 161.769 282.142 162.266 282.63C162.762 283.115 163.01 283.871 163.01 284.897V290.738H161.669V284.897C161.669 284.253 161.493 283.793 161.141 283.517C160.788 283.24 160.374 283.102 159.896 283.102C159.283 283.102 158.807 283.288 158.47 283.659C158.133 284.026 157.964 284.492 157.964 285.056V290.738H156.601V284.761C156.601 284.265 156.44 283.865 156.118 283.562C155.796 283.255 155.381 283.102 154.874 283.102C154.525 283.102 154.199 283.195 153.896 283.38C153.597 283.566 153.355 283.824 153.169 284.153C152.987 284.479 152.896 284.856 152.896 285.284V290.738H151.555ZM170.962 287.17V282.011H172.303V290.738H170.962V289.261H170.871C170.666 289.704 170.348 290.081 169.916 290.392C169.484 290.699 168.939 290.852 168.28 290.852C167.734 290.852 167.25 290.733 166.825 290.494C166.401 290.252 166.068 289.888 165.825 289.403C165.583 288.914 165.462 288.299 165.462 287.556V282.011H166.803V287.466C166.803 288.102 166.981 288.609 167.337 288.988C167.696 289.367 168.155 289.556 168.712 289.556C169.045 289.556 169.384 289.471 169.729 289.301C170.077 289.13 170.369 288.869 170.604 288.517C170.842 288.164 170.962 287.716 170.962 287.17ZM168.893 281.034C168.507 281.034 168.157 280.949 167.842 280.778C167.532 280.608 167.284 280.377 167.098 280.085C166.916 279.793 166.825 279.466 166.825 279.102C166.825 278.738 166.916 278.405 167.098 278.102C167.284 277.799 167.532 277.556 167.842 277.375C168.157 277.193 168.507 277.102 168.893 277.102C169.28 277.102 169.626 277.193 169.933 277.375C170.244 277.556 170.488 277.799 170.666 278.102C170.848 278.405 170.939 278.738 170.939 279.102C170.939 279.466 170.848 279.793 170.666 280.085C170.488 280.377 170.244 280.608 169.933 280.778C169.626 280.949 169.28 281.034 168.893 281.034ZM168.893 280.17C169.212 280.17 169.473 280.06 169.678 279.841C169.882 279.621 169.984 279.375 169.984 279.102C169.984 278.818 169.882 278.562 169.678 278.335C169.473 278.104 169.212 277.988 168.893 277.988C168.575 277.988 168.314 278.104 168.109 278.335C167.905 278.562 167.803 278.818 167.803 279.102C167.803 279.375 167.905 279.621 168.109 279.841C168.314 280.06 168.575 280.17 168.893 280.17ZM174.509 290.738V289.716L179.463 283.352V283.261H174.668V282.011H181.19V283.079L176.372 289.397V289.488H181.349V290.738H174.509ZM176.668 278.511L177.849 280.102L179.031 278.511H180.304V278.602L178.463 280.966H177.236L175.395 278.602V278.511H176.668ZM186.824 290.92C185.983 290.92 185.258 290.734 184.648 290.363C184.042 289.988 183.574 289.466 183.244 288.795C182.919 288.121 182.756 287.337 182.756 286.443C182.756 285.549 182.919 284.761 183.244 284.079C183.574 283.394 184.032 282.859 184.619 282.477C185.21 282.091 185.9 281.897 186.688 281.897C187.142 281.897 187.591 281.973 188.034 282.125C188.477 282.276 188.881 282.522 189.244 282.863C189.608 283.2 189.898 283.647 190.114 284.204C190.33 284.761 190.438 285.447 190.438 286.261V286.829H183.71V285.67H189.074C189.074 285.178 188.975 284.738 188.778 284.352C188.585 283.966 188.309 283.661 187.949 283.437C187.593 283.214 187.172 283.102 186.688 283.102C186.153 283.102 185.691 283.234 185.301 283.5C184.915 283.761 184.617 284.102 184.409 284.522C184.201 284.943 184.097 285.394 184.097 285.875V286.647C184.097 287.306 184.21 287.865 184.438 288.324C184.669 288.778 184.989 289.125 185.398 289.363C185.807 289.598 186.282 289.716 186.824 289.716C187.176 289.716 187.494 289.666 187.778 289.568C188.066 289.466 188.314 289.314 188.523 289.113C188.731 288.909 188.892 288.655 189.006 288.352L190.301 288.716C190.165 289.155 189.936 289.541 189.614 289.875C189.292 290.204 188.894 290.462 188.42 290.647C187.947 290.829 187.415 290.92 186.824 290.92ZM199.545 290.943C198.992 290.943 198.491 290.839 198.04 290.63C197.589 290.418 197.231 290.113 196.966 289.716C196.701 289.314 196.568 288.829 196.568 288.261C196.568 287.761 196.667 287.356 196.864 287.045C197.061 286.731 197.324 286.484 197.653 286.306C197.983 286.128 198.347 285.996 198.744 285.909C199.146 285.818 199.549 285.746 199.955 285.693C200.485 285.625 200.915 285.574 201.244 285.539C201.578 285.502 201.82 285.439 201.972 285.352C202.127 285.265 202.205 285.113 202.205 284.897V284.852C202.205 284.291 202.051 283.856 201.744 283.545C201.441 283.234 200.981 283.079 200.364 283.079C199.723 283.079 199.222 283.219 198.858 283.5C198.494 283.78 198.239 284.079 198.091 284.397L196.818 283.943C197.045 283.413 197.348 283 197.727 282.704C198.11 282.405 198.527 282.197 198.977 282.079C199.432 281.958 199.879 281.897 200.318 281.897C200.598 281.897 200.92 281.931 201.284 282C201.652 282.064 202.006 282.199 202.347 282.403C202.691 282.608 202.977 282.916 203.205 283.329C203.432 283.742 203.545 284.295 203.545 284.988V290.738H202.205V289.556H202.136C202.045 289.746 201.894 289.949 201.682 290.164C201.47 290.38 201.188 290.564 200.835 290.716C200.483 290.867 200.053 290.943 199.545 290.943ZM199.75 289.738C200.28 289.738 200.727 289.634 201.091 289.426C201.458 289.217 201.735 288.949 201.92 288.619C202.11 288.289 202.205 287.943 202.205 287.579V286.352C202.148 286.42 202.023 286.483 201.83 286.539C201.64 286.592 201.42 286.64 201.17 286.681C200.924 286.719 200.684 286.753 200.449 286.784C200.218 286.81 200.03 286.833 199.886 286.852C199.538 286.897 199.212 286.971 198.909 287.074C198.61 287.172 198.367 287.322 198.182 287.522C198 287.719 197.909 287.988 197.909 288.329C197.909 288.795 198.081 289.147 198.426 289.386C198.775 289.621 199.216 289.738 199.75 289.738ZM214.038 290.92C213.22 290.92 212.516 290.727 211.925 290.341C211.334 289.954 210.879 289.422 210.561 288.744C210.243 288.066 210.084 287.291 210.084 286.42C210.084 285.534 210.247 284.752 210.572 284.074C210.902 283.392 211.36 282.859 211.947 282.477C212.538 282.091 213.228 281.897 214.016 281.897C214.629 281.897 215.182 282.011 215.675 282.238C216.167 282.466 216.571 282.784 216.885 283.193C217.199 283.602 217.394 284.079 217.47 284.625H216.129C216.027 284.227 215.8 283.875 215.447 283.568C215.099 283.257 214.629 283.102 214.038 283.102C213.516 283.102 213.057 283.238 212.663 283.511C212.273 283.78 211.968 284.161 211.749 284.653C211.533 285.142 211.425 285.716 211.425 286.375C211.425 287.049 211.531 287.636 211.743 288.136C211.959 288.636 212.262 289.024 212.652 289.301C213.046 289.577 213.508 289.716 214.038 289.716C214.387 289.716 214.703 289.655 214.987 289.534C215.271 289.413 215.512 289.238 215.709 289.011C215.906 288.784 216.046 288.511 216.129 288.193H217.47C217.394 288.708 217.207 289.172 216.908 289.585C216.612 289.994 216.22 290.32 215.732 290.562C215.247 290.801 214.682 290.92 214.038 290.92ZM222.976 290.92C222.188 290.92 221.497 290.733 220.902 290.358C220.311 289.983 219.849 289.458 219.516 288.784C219.186 288.109 219.021 287.322 219.021 286.42C219.021 285.511 219.186 284.717 219.516 284.039C219.849 283.361 220.311 282.835 220.902 282.46C221.497 282.085 222.188 281.897 222.976 281.897C223.764 281.897 224.453 282.085 225.044 282.46C225.639 282.835 226.101 283.361 226.43 284.039C226.764 284.717 226.93 285.511 226.93 286.42C226.93 287.322 226.764 288.109 226.43 288.784C226.101 289.458 225.639 289.983 225.044 290.358C224.453 290.733 223.764 290.92 222.976 290.92ZM222.976 289.716C223.574 289.716 224.067 289.562 224.453 289.255C224.839 288.949 225.125 288.545 225.311 288.045C225.497 287.545 225.589 287.003 225.589 286.42C225.589 285.837 225.497 285.293 225.311 284.789C225.125 284.286 224.839 283.878 224.453 283.568C224.067 283.257 223.574 283.102 222.976 283.102C222.377 283.102 221.885 283.257 221.499 283.568C221.112 283.878 220.826 284.286 220.641 284.789C220.455 285.293 220.362 285.837 220.362 286.42C220.362 287.003 220.455 287.545 220.641 288.045C220.826 288.545 221.112 288.949 221.499 289.255C221.885 289.562 222.377 289.716 222.976 289.716ZM234.818 285.488V290.738H233.477V282.011H234.773V283.375H234.886C235.091 282.931 235.402 282.575 235.818 282.306C236.235 282.034 236.773 281.897 237.432 281.897C238.023 281.897 238.54 282.019 238.983 282.261C239.426 282.5 239.771 282.863 240.017 283.352C240.263 283.837 240.386 284.45 240.386 285.193V290.738H239.045V285.284C239.045 284.598 238.867 284.064 238.511 283.681C238.155 283.295 237.667 283.102 237.045 283.102C236.617 283.102 236.235 283.195 235.898 283.38C235.564 283.566 235.301 283.837 235.108 284.193C234.915 284.549 234.818 284.981 234.818 285.488ZM246.496 290.92C245.655 290.92 244.929 290.734 244.32 290.363C243.714 289.988 243.246 289.466 242.916 288.795C242.59 288.121 242.428 287.337 242.428 286.443C242.428 285.549 242.59 284.761 242.916 284.079C243.246 283.394 243.704 282.859 244.291 282.477C244.882 282.091 245.571 281.897 246.359 281.897C246.814 281.897 247.263 281.973 247.706 282.125C248.149 282.276 248.553 282.522 248.916 282.863C249.28 283.2 249.57 283.647 249.786 284.204C250.001 284.761 250.109 285.447 250.109 286.261V286.829H243.382V285.67H248.746C248.746 285.178 248.647 284.738 248.45 284.352C248.257 283.966 247.981 283.661 247.621 283.437C247.265 283.214 246.844 283.102 246.359 283.102C245.825 283.102 245.363 283.234 244.973 283.5C244.587 283.761 244.289 284.102 244.081 284.522C243.873 284.943 243.768 285.394 243.768 285.875V286.647C243.768 287.306 243.882 287.865 244.109 288.324C244.34 288.778 244.661 289.125 245.07 289.363C245.479 289.598 245.954 289.716 246.496 289.716C246.848 289.716 247.166 289.666 247.45 289.568C247.738 289.466 247.986 289.314 248.195 289.113C248.403 288.909 248.564 288.655 248.678 288.352L249.973 288.716C249.837 289.155 249.607 289.541 249.286 289.875C248.964 290.204 248.566 290.462 248.092 290.647C247.619 290.829 247.087 290.92 246.496 290.92ZM252.149 290.738V282.011H253.445V283.375H253.558C253.74 282.909 254.034 282.547 254.439 282.289C254.844 282.028 255.331 281.897 255.899 281.897C256.475 281.897 256.954 282.028 257.337 282.289C257.723 282.547 258.024 282.909 258.24 283.375H258.331C258.554 282.924 258.89 282.566 259.337 282.301C259.784 282.032 260.32 281.897 260.945 281.897C261.725 281.897 262.363 282.142 262.859 282.63C263.356 283.115 263.604 283.871 263.604 284.897V290.738H262.263V284.897C262.263 284.253 262.087 283.793 261.734 283.517C261.382 283.24 260.967 283.102 260.49 283.102C259.876 283.102 259.401 283.288 259.064 283.659C258.727 284.026 258.558 284.492 258.558 285.056V290.738H257.195V284.761C257.195 284.265 257.034 283.865 256.712 283.562C256.39 283.255 255.975 283.102 255.467 283.102C255.119 283.102 254.793 283.195 254.49 283.38C254.191 283.566 253.948 283.824 253.763 284.153C253.581 284.479 253.49 284.856 253.49 285.284V290.738H252.149ZM271.555 287.17V282.011H272.896V290.738H271.555V289.261H271.464C271.26 289.704 270.942 290.081 270.51 290.392C270.078 290.699 269.533 290.852 268.874 290.852C268.328 290.852 267.843 290.733 267.419 290.494C266.995 290.252 266.661 289.888 266.419 289.403C266.177 288.914 266.055 288.299 266.055 287.556V282.011H267.396V287.466C267.396 288.102 267.574 288.609 267.93 288.988C268.29 289.367 268.749 289.556 269.305 289.556C269.639 289.556 269.978 289.471 270.322 289.301C270.671 289.13 270.963 288.869 271.197 288.517C271.436 288.164 271.555 287.716 271.555 287.17ZM269.487 281.034C269.101 281.034 268.75 280.949 268.436 280.778C268.125 280.608 267.877 280.377 267.692 280.085C267.51 279.793 267.419 279.466 267.419 279.102C267.419 278.738 267.51 278.405 267.692 278.102C267.877 277.799 268.125 277.556 268.436 277.375C268.75 277.193 269.101 277.102 269.487 277.102C269.874 277.102 270.22 277.193 270.527 277.375C270.838 277.556 271.082 277.799 271.26 278.102C271.442 278.405 271.533 278.738 271.533 279.102C271.533 279.466 271.442 279.793 271.26 280.085C271.082 280.377 270.838 280.608 270.527 280.778C270.22 280.949 269.874 281.034 269.487 281.034ZM269.487 280.17C269.805 280.17 270.067 280.06 270.271 279.841C270.476 279.621 270.578 279.375 270.578 279.102C270.578 278.818 270.476 278.562 270.271 278.335C270.067 278.104 269.805 277.988 269.487 277.988C269.169 277.988 268.908 278.104 268.703 278.335C268.499 278.562 268.396 278.818 268.396 279.102C268.396 279.375 268.499 279.621 268.703 279.841C268.908 280.06 269.169 280.17 269.487 280.17ZM275.102 290.738V289.716L280.057 283.352V283.261H275.261V282.011H281.784V283.079L276.966 289.397V289.488H281.943V290.738H275.102ZM277.261 278.511L278.443 280.102L279.625 278.511H280.898V278.602L279.057 280.966H277.83L275.989 278.602V278.511H277.261ZM287.418 290.92C286.577 290.92 285.851 290.734 285.241 290.363C284.635 289.988 284.168 289.466 283.838 288.795C283.512 288.121 283.349 287.337 283.349 286.443C283.349 285.549 283.512 284.761 283.838 284.079C284.168 283.394 284.626 282.859 285.213 282.477C285.804 282.091 286.493 281.897 287.281 281.897C287.736 281.897 288.185 281.973 288.628 282.125C289.071 282.276 289.474 282.522 289.838 282.863C290.202 283.2 290.491 283.647 290.707 284.204C290.923 284.761 291.031 285.447 291.031 286.261V286.829H284.304V285.67H289.668C289.668 285.178 289.569 284.738 289.372 284.352C289.179 283.966 288.902 283.661 288.543 283.437C288.187 283.214 287.766 283.102 287.281 283.102C286.747 283.102 286.285 283.234 285.895 283.5C285.509 283.761 285.211 284.102 285.003 284.522C284.795 284.943 284.69 285.394 284.69 285.875V286.647C284.69 287.306 284.804 287.865 285.031 288.324C285.262 288.778 285.582 289.125 285.991 289.363C286.401 289.598 286.876 289.716 287.418 289.716C287.77 289.716 288.088 289.666 288.372 289.568C288.66 289.466 288.908 289.314 289.116 289.113C289.325 288.909 289.486 288.655 289.599 288.352L290.895 288.716C290.759 289.155 290.529 289.541 290.207 289.875C289.885 290.204 289.488 290.462 289.014 290.647C288.541 290.829 288.009 290.92 287.418 290.92ZM111.074 312.92C110.233 312.92 109.508 312.734 108.898 312.363C108.292 311.988 107.824 311.466 107.494 310.795C107.169 310.121 107.006 309.337 107.006 308.443C107.006 307.549 107.169 306.761 107.494 306.079C107.824 305.394 108.282 304.859 108.869 304.477C109.46 304.091 110.15 303.897 110.938 303.897C111.392 303.897 111.841 303.973 112.284 304.125C112.727 304.276 113.131 304.522 113.494 304.863C113.858 305.2 114.148 305.647 114.364 306.204C114.58 306.761 114.688 307.447 114.688 308.261V308.829H107.96V307.67H113.324C113.324 307.178 113.225 306.738 113.028 306.352C112.835 305.966 112.559 305.661 112.199 305.437C111.843 305.214 111.422 305.102 110.938 305.102C110.403 305.102 109.941 305.234 109.551 305.5C109.165 305.761 108.867 306.102 108.659 306.522C108.451 306.943 108.347 307.394 108.347 307.875V308.647C108.347 309.306 108.46 309.865 108.688 310.324C108.919 310.778 109.239 311.125 109.648 311.363C110.057 311.598 110.532 311.716 111.074 311.716C111.426 311.716 111.744 311.666 112.028 311.568C112.316 311.466 112.564 311.314 112.773 311.113C112.981 310.909 113.142 310.655 113.256 310.352L114.551 310.716C114.415 311.155 114.186 311.541 113.864 311.875C113.542 312.204 113.144 312.462 112.67 312.647C112.197 312.829 111.665 312.92 111.074 312.92ZM117.493 304.011L119.584 307.579L121.675 304.011H123.22L120.402 308.375L123.22 312.738H121.675L119.584 309.352L117.493 312.738H115.947L118.72 308.375L115.947 304.011H117.493ZM128.433 312.92C127.592 312.92 126.867 312.734 126.257 312.363C125.651 311.988 125.183 311.466 124.854 310.795C124.528 310.121 124.365 309.337 124.365 308.443C124.365 307.549 124.528 306.761 124.854 306.079C125.183 305.394 125.642 304.859 126.229 304.477C126.82 304.091 127.509 303.897 128.297 303.897C128.751 303.897 129.2 303.973 129.643 304.125C130.087 304.276 130.49 304.522 130.854 304.863C131.217 305.2 131.507 305.647 131.723 306.204C131.939 306.761 132.047 307.447 132.047 308.261V308.829H125.32V307.67H130.683C130.683 307.178 130.585 306.738 130.388 306.352C130.195 305.966 129.918 305.661 129.558 305.437C129.202 305.214 128.782 305.102 128.297 305.102C127.763 305.102 127.301 305.234 126.911 305.5C126.524 305.761 126.227 306.102 126.018 306.522C125.81 306.943 125.706 307.394 125.706 307.875V308.647C125.706 309.306 125.82 309.865 126.047 310.324C126.278 310.778 126.598 311.125 127.007 311.363C127.416 311.598 127.892 311.716 128.433 311.716C128.786 311.716 129.104 311.666 129.388 311.568C129.676 311.466 129.924 311.314 130.132 311.113C130.34 310.909 130.501 310.655 130.615 310.352L131.911 310.716C131.774 311.155 131.545 311.541 131.223 311.875C130.901 312.204 130.503 312.462 130.03 312.647C129.556 312.829 129.024 312.92 128.433 312.92ZM135.337 309.556L135.314 307.897H135.587L139.405 304.011H141.064L136.996 308.125H136.882L135.337 309.556ZM134.087 312.738V301.102H135.428V312.738H134.087ZM139.632 312.738L136.223 308.42L137.178 307.488L141.337 312.738H139.632ZM148.29 309.17V304.011H149.631V312.738H148.29V311.261H148.199C147.994 311.704 147.676 312.081 147.244 312.392C146.813 312.699 146.267 312.852 145.608 312.852C145.062 312.852 144.578 312.733 144.153 312.494C143.729 312.252 143.396 311.888 143.153 311.403C142.911 310.914 142.79 310.299 142.79 309.556V304.011H144.131V309.466C144.131 310.102 144.309 310.609 144.665 310.988C145.025 311.367 145.483 311.556 146.04 311.556C146.373 311.556 146.712 311.471 147.057 311.301C147.405 311.13 147.697 310.869 147.932 310.517C148.17 310.164 148.29 309.716 148.29 309.17ZM155.882 304.011V305.147H151.359V304.011H155.882ZM152.678 301.92H154.018V310.238C154.018 310.617 154.073 310.901 154.183 311.091C154.297 311.276 154.441 311.401 154.615 311.466C154.793 311.526 154.981 311.556 155.178 311.556C155.325 311.556 155.446 311.549 155.541 311.534C155.636 311.515 155.712 311.5 155.768 311.488L156.041 312.693C155.95 312.727 155.823 312.761 155.661 312.795C155.498 312.833 155.291 312.852 155.041 312.852C154.662 312.852 154.291 312.77 153.928 312.608C153.568 312.445 153.268 312.197 153.03 311.863C152.795 311.53 152.678 311.109 152.678 310.602V301.92ZM161.351 312.92C160.563 312.92 159.872 312.733 159.277 312.358C158.686 311.983 158.224 311.458 157.891 310.784C157.561 310.109 157.396 309.322 157.396 308.42C157.396 307.511 157.561 306.717 157.891 306.039C158.224 305.361 158.686 304.835 159.277 304.46C159.872 304.085 160.563 303.897 161.351 303.897C162.139 303.897 162.828 304.085 163.419 304.46C164.014 304.835 164.476 305.361 164.805 306.039C165.139 306.717 165.305 307.511 165.305 308.42C165.305 309.322 165.139 310.109 164.805 310.784C164.476 311.458 164.014 311.983 163.419 312.358C162.828 312.733 162.139 312.92 161.351 312.92ZM161.351 311.716C161.949 311.716 162.442 311.562 162.828 311.255C163.214 310.949 163.5 310.545 163.686 310.045C163.872 309.545 163.964 309.003 163.964 308.42C163.964 307.837 163.872 307.293 163.686 306.789C163.5 306.286 163.214 305.878 162.828 305.568C162.442 305.257 161.949 305.102 161.351 305.102C160.752 305.102 160.26 305.257 159.874 305.568C159.487 305.878 159.201 306.286 159.016 306.789C158.83 307.293 158.737 307.837 158.737 308.42C158.737 309.003 158.83 309.545 159.016 310.045C159.201 310.545 159.487 310.949 159.874 311.255C160.26 311.562 160.752 311.716 161.351 311.716ZM167.352 312.738V304.011H168.648V305.329H168.739C168.898 304.897 169.186 304.547 169.602 304.278C170.019 304.009 170.489 303.875 171.011 303.875C171.11 303.875 171.233 303.877 171.381 303.88C171.528 303.884 171.64 303.89 171.716 303.897V305.261C171.67 305.25 171.566 305.233 171.403 305.21C171.244 305.183 171.076 305.17 170.898 305.17C170.473 305.17 170.095 305.259 169.761 305.437C169.432 305.611 169.17 305.854 168.977 306.164C168.788 306.471 168.693 306.822 168.693 307.216V312.738H167.352ZM177.555 312.738V311.716L182.51 305.352V305.261H177.714V304.011H184.237V305.079L179.419 311.397V311.488H184.396V312.738H177.555ZM189.03 312.943C188.477 312.943 187.975 312.839 187.524 312.63C187.073 312.418 186.715 312.113 186.45 311.716C186.185 311.314 186.053 310.829 186.053 310.261C186.053 309.761 186.151 309.356 186.348 309.045C186.545 308.731 186.808 308.484 187.138 308.306C187.467 308.128 187.831 307.996 188.229 307.909C188.63 307.818 189.034 307.746 189.439 307.693C189.969 307.625 190.399 307.574 190.729 307.539C191.062 307.502 191.304 307.439 191.456 307.352C191.611 307.265 191.689 307.113 191.689 306.897V306.852C191.689 306.291 191.536 305.856 191.229 305.545C190.926 305.234 190.465 305.079 189.848 305.079C189.208 305.079 188.706 305.219 188.342 305.5C187.979 305.78 187.723 306.079 187.575 306.397L186.303 305.943C186.53 305.413 186.833 305 187.212 304.704C187.594 304.405 188.011 304.197 188.462 304.079C188.916 303.958 189.363 303.897 189.803 303.897C190.083 303.897 190.405 303.931 190.768 304C191.136 304.064 191.49 304.199 191.831 304.403C192.176 304.608 192.462 304.916 192.689 305.329C192.916 305.742 193.03 306.295 193.03 306.988V312.738H191.689V311.556H191.621C191.53 311.746 191.378 311.949 191.166 312.164C190.954 312.38 190.672 312.564 190.32 312.716C189.967 312.867 189.537 312.943 189.03 312.943ZM189.234 311.738C189.765 311.738 190.212 311.634 190.575 311.426C190.943 311.217 191.219 310.949 191.405 310.619C191.594 310.289 191.689 309.943 191.689 309.579V308.352C191.632 308.42 191.507 308.483 191.314 308.539C191.125 308.592 190.905 308.64 190.655 308.681C190.409 308.719 190.168 308.753 189.933 308.784C189.702 308.81 189.515 308.833 189.371 308.852C189.022 308.897 188.696 308.971 188.393 309.074C188.094 309.172 187.852 309.322 187.666 309.522C187.484 309.719 187.393 309.988 187.393 310.329C187.393 310.795 187.566 311.147 187.911 311.386C188.259 311.621 188.7 311.738 189.234 311.738ZM195.659 312.738V301.102H197V305.397H197.114C197.212 305.246 197.348 305.053 197.523 304.818C197.701 304.579 197.955 304.367 198.284 304.181C198.617 303.992 199.068 303.897 199.636 303.897C200.371 303.897 201.019 304.081 201.58 304.449C202.14 304.816 202.578 305.337 202.892 306.011C203.206 306.685 203.364 307.481 203.364 308.397C203.364 309.322 203.206 310.123 202.892 310.801C202.578 311.475 202.142 311.998 201.585 312.369C201.028 312.736 200.386 312.92 199.659 312.92C199.098 312.92 198.65 312.827 198.312 312.642C197.975 312.452 197.716 312.238 197.534 312C197.352 311.757 197.212 311.556 197.114 311.397H196.955V312.738H195.659ZM196.977 308.375C196.977 309.034 197.074 309.615 197.267 310.119C197.46 310.619 197.742 311.011 198.114 311.295C198.485 311.575 198.939 311.716 199.477 311.716C200.038 311.716 200.506 311.568 200.881 311.272C201.259 310.973 201.544 310.572 201.733 310.068C201.926 309.56 202.023 308.996 202.023 308.375C202.023 307.761 201.928 307.208 201.739 306.716C201.553 306.219 201.271 305.827 200.892 305.539C200.517 305.248 200.045 305.102 199.477 305.102C198.932 305.102 198.473 305.24 198.102 305.517C197.731 305.789 197.451 306.172 197.261 306.664C197.072 307.153 196.977 307.723 196.977 308.375ZM207.983 312.943C207.43 312.943 206.928 312.839 206.477 312.63C206.027 312.418 205.669 312.113 205.403 311.716C205.138 311.314 205.006 310.829 205.006 310.261C205.006 309.761 205.104 309.356 205.301 309.045C205.498 308.731 205.761 308.484 206.091 308.306C206.42 308.128 206.784 307.996 207.182 307.909C207.583 307.818 207.987 307.746 208.392 307.693C208.922 307.625 209.352 307.574 209.682 307.539C210.015 307.502 210.258 307.439 210.409 307.352C210.564 307.265 210.642 307.113 210.642 306.897V306.852C210.642 306.291 210.489 305.856 210.182 305.545C209.879 305.234 209.419 305.079 208.801 305.079C208.161 305.079 207.659 305.219 207.295 305.5C206.932 305.78 206.676 306.079 206.528 306.397L205.256 305.943C205.483 305.413 205.786 305 206.165 304.704C206.547 304.405 206.964 304.197 207.415 304.079C207.869 303.958 208.316 303.897 208.756 303.897C209.036 303.897 209.358 303.931 209.722 304C210.089 304.064 210.443 304.199 210.784 304.403C211.129 304.608 211.415 304.916 211.642 305.329C211.869 305.742 211.983 306.295 211.983 306.988V312.738H210.642V311.556H210.574C210.483 311.746 210.331 311.949 210.119 312.164C209.907 312.38 209.625 312.564 209.273 312.716C208.92 312.867 208.491 312.943 207.983 312.943ZM208.188 311.738C208.718 311.738 209.165 311.634 209.528 311.426C209.896 311.217 210.172 310.949 210.358 310.619C210.547 310.289 210.642 309.943 210.642 309.579V308.352C210.585 308.42 210.46 308.483 210.267 308.539C210.078 308.592 209.858 308.64 209.608 308.681C209.362 308.719 209.121 308.753 208.886 308.784C208.655 308.81 208.468 308.833 208.324 308.852C207.975 308.897 207.65 308.971 207.347 309.074C207.047 309.172 206.805 309.322 206.619 309.522C206.438 309.719 206.347 309.988 206.347 310.329C206.347 310.795 206.519 311.147 206.864 311.386C207.212 311.621 207.653 311.738 208.188 311.738ZM221.254 304.011L218.027 312.738H216.663L213.436 304.011H214.891L217.3 310.966H217.391L219.8 304.011H221.254ZM223.024 312.738V304.011H224.365V312.738H223.024ZM223.706 302.556C223.445 302.556 223.219 302.467 223.03 302.289C222.844 302.111 222.751 301.897 222.751 301.647C222.751 301.397 222.844 301.183 223.03 301.005C223.219 300.827 223.445 300.738 223.706 300.738C223.967 300.738 224.191 300.827 224.376 301.005C224.566 301.183 224.661 301.397 224.661 301.647C224.661 301.897 224.566 302.111 224.376 302.289C224.191 302.467 223.967 302.556 223.706 302.556ZM230.616 304.011V305.147H226.094V304.011H230.616ZM227.412 301.92H228.753V310.238C228.753 310.617 228.808 310.901 228.918 311.091C229.031 311.276 229.175 311.401 229.349 311.466C229.527 311.526 229.715 311.556 229.912 311.556C230.06 311.556 230.181 311.549 230.276 311.534C230.37 311.515 230.446 311.5 230.503 311.488L230.776 312.693C230.685 312.727 230.558 312.761 230.395 312.795C230.232 312.833 230.026 312.852 229.776 312.852C229.397 312.852 229.026 312.77 228.662 312.608C228.302 312.445 228.003 312.197 227.764 311.863C227.529 311.53 227.412 311.109 227.412 310.602V301.92ZM233.611 312.829C233.33 312.829 233.09 312.729 232.889 312.528C232.688 312.327 232.588 312.087 232.588 311.806C232.588 311.526 232.688 311.286 232.889 311.085C233.09 310.884 233.33 310.784 233.611 310.784C233.891 310.784 234.132 310.884 234.332 311.085C234.533 311.286 234.634 311.526 234.634 311.806C234.634 311.992 234.586 312.163 234.491 312.318C234.401 312.473 234.277 312.598 234.122 312.693C233.971 312.784 233.8 312.829 233.611 312.829Z" fill="#0B1F42"/>
<path d="M189.135 186.528L184.772 138.219L172.651 138.442L164.086 186.751L189.135 186.528Z" fill="#245375" stroke="#0B1F42" stroke-width="2" stroke-linecap="round" stroke-linejoin="round"/>
<rect x="164.084" y="186.75" width="25.049" height="66.2756" fill="#245375" stroke="#0B1F42" stroke-width="2" stroke-linecap="round" stroke-linejoin="round"/>
<path d="M171.132 193.273L176.872 200.965V252.243" stroke="#0B1F42" stroke-width="2" stroke-linecap="round" stroke-linejoin="round"/>
<path d="M184.959 138.48L206.877 155.903L210.138 185.969" stroke="#0B1F42" stroke-width="2" stroke-linecap="round" stroke-linejoin="round"/>
<path d="M160.432 110.876C159.701 110.205 158.671 109.777 157.507 109.777C155.214 109.777 153.387 111.455 153.387 113.561C153.387 115.666 155.248 117.344 157.507 117.344C158.637 117.344 159.667 116.917 160.399 116.246" fill="#FFFDFD"/>
<path d="M160.432 110.876C159.701 110.205 158.671 109.777 157.507 109.777C155.214 109.777 153.387 111.455 153.387 113.561C153.387 115.666 155.248 117.344 157.507 117.344C158.637 117.344 159.667 116.917 160.399 116.246" stroke="#0B1F42" stroke-width="2" stroke-linecap="round" stroke-linejoin="round"/>
<path d="M175.697 84.207C165.531 84.207 157.301 92.3928 157.301 102.472V114.735C157.301 124.815 165.531 133 175.697 133C185.863 133 194.092 124.815 194.092 114.735V102.472C194.092 92.3928 185.863 84.207 175.697 84.207Z" fill="#FFFDFD" stroke="#0B1F42" stroke-width="2" stroke-linecap="round" stroke-linejoin="round"/>
<path d="M157.301 111.879V114.625C157.301 124.765 165.531 133 175.697 133C185.863 133 194.092 124.765 194.092 114.625V97.9053C194.092 88.8858 187.581 83.6696 178.988 82.1191V92.6518C178.988 97.2069 182.681 100.9 187.236 100.9C187.276 100.9 187.308 100.932 187.308 100.972V111.879H157.301Z" fill="#A7BAC8" stroke="#0B1F42" stroke-width="2" stroke-linecap="round" stroke-linejoin="round"/>
<path d="M163.043 104.561V108.474" stroke="#0B1F42" stroke-width="2" stroke-linecap="round" stroke-linejoin="round"/>
<path d="M174.002 104.561V108.474" stroke="#0B1F42" stroke-width="2" stroke-linecap="round" stroke-linejoin="round"/>
<path d="M191.743 109.882C192.49 109.174 193.519 108.734 194.661 108.734C196.943 108.734 198.788 110.484 198.788 112.648C198.788 114.813 196.943 116.562 194.661 116.562C193.528 116.562 192.507 116.131 191.76 115.431" fill="#FFFDFD"/>
<path d="M191.743 109.882C192.49 109.174 193.519 108.734 194.661 108.734C196.943 108.734 198.788 110.484 198.788 112.648C198.788 114.813 196.943 116.562 194.661 116.562C193.528 116.562 192.507 116.131 191.76 115.431" stroke="#0B1F42" stroke-width="2" stroke-linecap="round" stroke-linejoin="round"/>
<path d="M172.564 138.48L144.514 159.746L133.034 139.785" stroke="#0B1F42" stroke-width="2" stroke-linecap="round" stroke-linejoin="round"/>
<path d="M205.314 186.753C205.314 185.168 206.599 183.883 208.184 183.883H212.881C214.466 183.883 215.751 185.168 215.751 186.753V189.101C215.751 190.687 214.466 191.972 212.881 191.972H208.184C206.599 191.972 205.314 190.687 205.314 189.101V186.753Z" stroke="#0B1F42" stroke-width="2" stroke-linecap="round" stroke-linejoin="round"/>
<rect x="194.093" y="188.578" width="5.47948" height="24.2663" fill="#0B1F42" stroke="#0B1F42" stroke-width="2" stroke-linecap="round" stroke-linejoin="round"/>
<rect x="199.572" y="188.578" width="25.5709" height="24.2663" fill="#245375" stroke="#0B1F42" stroke-width="2" stroke-linecap="round" stroke-linejoin="round"/>
<rect x="116.857" y="102.473" width="28.4411" height="39.4001" fill="#FFFDFD" stroke="#0B1F42" stroke-width="2" stroke-linecap="round" stroke-linejoin="round"/>
<path d="M166.434 117.086H172.696" stroke="#0B1F42" stroke-width="2" stroke-linecap="round" stroke-linejoin="round"/>
<path d="M129.746 117.516C127.272 117.052 125.641 114.665 126.108 112.191C126.572 109.716 128.956 108.085 131.434 108.553C133.909 109.017 135.539 111.404 135.072 113.878" stroke="#0B1F42" stroke-width="2" stroke-linecap="round" stroke-linejoin="round"/>
<path d="M131.528 127.135C134.003 127.599 135.634 129.986 135.166 132.461C134.699 134.935 132.315 136.566 129.84 136.099C127.366 135.635 125.735 133.247 126.202 130.773" stroke="#0B1F42" stroke-width="2" stroke-linecap="round" stroke-linejoin="round"/>
<path d="M132.99 118.124L130.069 117.575C127.595 117.11 125.211 118.738 124.746 121.213L124.745 121.216C124.28 123.691 125.909 126.074 128.384 126.54L131.305 127.089C133.779 127.554 136.163 125.926 136.628 123.451L136.628 123.448C137.094 120.973 135.465 118.59 132.99 118.124Z" stroke="#0B1F42" stroke-width="2" stroke-linecap="round" stroke-linejoin="round"/>
</svg>
