<svg width="225" height="224" viewBox="0 0 225 224" fill="none" xmlns="http://www.w3.org/2000/svg">
<g clip-path="url(#clip0_8455_1693)">
<rect x="0.309814" width="224" height="224" fill="white"/>
<path d="M173.286 64.9535L194.16 106L142.134 98.8668L173.286 64.9535Z" fill="white" stroke="#0179F8" stroke-width="3" stroke-linecap="round" stroke-linejoin="round"/>
<path d="M194.166 105.996L102.027 193.321L142.14 98.8626L194.166 105.996Z" fill="#0179F8" stroke="#0179F8" stroke-width="3" stroke-linecap="round" stroke-linejoin="round"/>
<path d="M173.286 64.9481L142.134 98.8613L121.26 57.8145L173.286 64.9481Z" fill="#0179F8" stroke="#0179F8" stroke-width="3" stroke-linecap="round" stroke-linejoin="round"/>
<path d="M121.264 57.8233L142.138 98.8701L90.1221 91.7379L121.264 57.8233Z" fill="white" stroke="#0179F8" stroke-width="3" stroke-linecap="round" stroke-linejoin="round"/>
<path d="M142.136 98.8647L102.022 193.323L90.1199 91.7324L142.136 98.8647Z" fill="white" stroke="#0179F8" stroke-width="3" stroke-linecap="round" stroke-linejoin="round"/>
<path d="M121.26 57.8217L90.1179 91.7363L69.2442 50.6895L121.26 57.8217Z" fill="white" stroke="#0179F8" stroke-width="3" stroke-linecap="round" stroke-linejoin="round"/>
<path d="M90.1226 91.7371L102.025 193.327L38.0968 84.6035L90.1226 91.7371Z" fill="white" stroke="#0179F8" stroke-width="3" stroke-linecap="round" stroke-linejoin="round"/>
<path d="M69.2437 50.684L90.1174 91.7308L38.0917 84.5972L69.2437 50.684Z" fill="#0179F8" stroke="#0179F8" stroke-width="3" stroke-linecap="round" stroke-linejoin="round"/>
<path d="M76.2171 59.9496L69.5357 59.5267C64.5035 59.2082 60.4927 55.1595 60.1776 50.0803L59.7587 43.3359L59.3397 50.0803C59.0242 55.16 55.0133 59.2087 49.9816 59.5267L43.3002 59.9496L49.9816 60.3725C55.0138 60.691 59.0246 64.7397 59.3397 69.8189L59.7587 76.5633L60.1776 69.8189C60.4931 64.7392 64.504 60.6906 69.5357 60.3725L76.2171 59.9496Z" fill="white" stroke="#0179F8" stroke-width="3" stroke-linecap="round" stroke-linejoin="round"/>
<path d="M98.277 149.426L89.5039 148.871C82.8961 148.453 77.6296 143.137 77.2159 136.467L76.6657 127.611L76.1156 136.467C75.7013 143.137 70.4347 148.454 63.8276 148.871L55.0545 149.426L63.8276 149.982C70.4354 150.4 75.7019 155.716 76.1156 162.386L76.6657 171.242L77.2159 162.386C77.6302 155.716 82.8968 150.399 89.5039 149.982L98.277 149.426Z" fill="white" stroke="#0179F8" stroke-width="3" stroke-linecap="round" stroke-linejoin="round"/>
<path d="M161.162 63.7328L154.481 63.3099C149.448 62.9914 145.438 58.9427 145.123 53.8635L144.704 47.1191L144.285 53.8635C143.969 58.9432 139.958 62.9919 134.926 63.3099L128.245 63.7328L134.926 64.1557C139.959 64.4743 143.97 68.5229 144.285 73.6022L144.704 80.3465L145.123 73.6022C145.438 68.5224 149.449 64.4738 154.481 64.1557L161.162 63.7328Z" fill="white" stroke="#0179F8" stroke-width="3" stroke-linecap="round" stroke-linejoin="round"/>
</g>
<defs>
<clipPath id="clip0_8455_1693">
<rect x="0.309814" width="224" height="224" rx="112" fill="white"/>
</clipPath>
</defs>
</svg>

