<svg width="225" height="224" viewBox="0 0 225 224" fill="none" xmlns="http://www.w3.org/2000/svg">
<g clip-path="url(#clip0_8455_1689)">
<rect x="0.309814" width="224" height="224" fill="white"/>
<path d="M71.6729 166.545L61.1788 177.031H42.378C39.6929 177.031 38.3491 173.783 40.249 171.886L45.597 166.545H71.6729Z" fill="white" stroke="#0179F8" stroke-width="3" stroke-linecap="round" stroke-linejoin="round"/>
<path d="M124.445 166.545L113.945 177.031H61.1775L71.6715 166.545H124.445Z" fill="white" stroke="#0179F8" stroke-width="3" stroke-linecap="round" stroke-linejoin="round"/>
<path d="M124.714 166.395L114.039 177.055H141.023C144.216 177.055 147.279 175.788 149.539 173.531L156.685 166.395H124.539" fill="white"/>
<path d="M124.714 166.395L114.039 177.055H141.023C144.216 177.055 147.279 175.788 149.539 173.531L156.685 166.395H124.539" stroke="#0179F8" stroke-width="3" stroke-linecap="round" stroke-linejoin="round"/>
<path d="M56.5711 155.59L45.599 166.548H60.4851L71.4625 155.59H56.5711Z" fill="white" stroke="#0179F8" stroke-width="3" stroke-linecap="round" stroke-linejoin="round"/>
<path d="M79.471 166.548L90.4484 155.59H107.586L96.6089 166.548H79.471Z" fill="white" stroke="#0179F8" stroke-width="3" stroke-linecap="round" stroke-linejoin="round"/>
<path d="M132.568 166.548L143.54 155.59H167.566L156.593 166.548H132.568Z" fill="white" stroke="#0179F8" stroke-width="3" stroke-linecap="round" stroke-linejoin="round"/>
<path d="M90.4384 155.59H71.4524L60.4751 166.548H79.4611L90.4384 155.59Z" fill="white" stroke="#0179F8" stroke-width="3" stroke-linecap="round" stroke-linejoin="round"/>
<path d="M124.92 155.59L113.943 166.548H96.6029L107.58 155.59H124.92Z" fill="white" stroke="#0179F8" stroke-width="3" stroke-linecap="round" stroke-linejoin="round"/>
<path d="M124.917 155.59L113.939 166.548H132.559L143.531 155.59H124.917Z" fill="white" stroke="#0179F8" stroke-width="3" stroke-linecap="round" stroke-linejoin="round"/>
<path d="M167.57 155.588C169.85 153.311 168.238 149.414 165.016 149.414H67.7445C64.5509 149.414 61.488 150.682 59.2283 152.938L56.5754 155.588H167.57Z" fill="white" stroke="#0179F8" stroke-width="3" stroke-linecap="round" stroke-linejoin="round"/>
<path d="M74.5172 84.8198C75.0435 80.9598 78.3404 78.082 82.2361 78.082H171.944C176.665 78.082 180.301 82.2474 179.663 86.925L172.061 142.673C171.534 146.533 168.238 149.411 164.342 149.411H74.6341C69.9133 149.411 66.2773 145.246 66.9152 140.568L74.5172 84.8198Z" fill="#0179F8" stroke="#0179F8" stroke-width="3" stroke-linecap="round" stroke-linejoin="round"/>
<path d="M166.349 78.0086C166.349 82.0234 157.426 85.3031 146.414 85.3031C135.403 85.3031 126.48 82.0516 126.48 78.0086V50.3008H166.349V78.0086Z" fill="white" stroke="#0179F8" stroke-width="3" stroke-linecap="round" stroke-linejoin="round"/>
<path d="M115.144 47.9121V70.7411L117.895 67.6967L120.759 70.7411V49.8571L115.144 47.9121Z" fill="#0179F8" stroke="#0179F8" stroke-width="3" stroke-linecap="round" stroke-linejoin="round"/>
<path d="M185.261 50.7898L146.421 65.8375L107.582 50.7898L146.421 34.9531L185.261 50.7898Z" fill="white" stroke="#0179F8" stroke-width="3" stroke-linecap="round" stroke-linejoin="round"/>
<path d="M140.438 117.258C140.438 127.364 132.247 135.555 122.141 135.555H119.374C111.727 133.361 103.847 125.611 103.847 117.258C103.844 109.391 112.281 101.547 119.248 98.9609C119.248 98.9609 119.902 98.9609 122.141 98.9609C132.247 98.9609 140.438 107.152 140.438 117.258Z" fill="#0179F8" stroke="#0179F8" stroke-width="3" stroke-linecap="round" stroke-linejoin="round"/>
<path d="M119.374 135.555C129.48 135.555 137.671 127.363 137.671 117.258C137.671 107.153 129.48 98.9609 119.374 98.9609C109.269 98.9609 101.077 107.153 101.077 117.258C101.077 127.363 109.269 135.555 119.374 135.555Z" fill="white" stroke="#0179F8" stroke-width="3" stroke-linecap="round" stroke-linejoin="round"/>
<path d="M123.234 115.078L127.896 115.111" stroke="#0179F8" stroke-width="3" stroke-linecap="round" stroke-linejoin="round"/>
<path d="M112.706 116.16C113.158 116.16 113.525 115.416 113.525 114.498C113.525 113.58 113.158 112.836 112.706 112.836C112.253 112.836 111.886 113.58 111.886 114.498C111.886 115.416 112.253 116.16 112.706 116.16Z" fill="#0179F8" stroke="#0179F8" stroke-width="3" stroke-linecap="round" stroke-linejoin="round"/>
<path d="M112.693 120.986C112.693 120.986 114.122 126.028 119.099 126.028C124.076 126.028 125.566 120.986 125.566 120.986" stroke="#0179F8" stroke-width="3" stroke-linecap="round" stroke-linejoin="round"/>
</g>
<defs>
<clipPath id="clip0_8455_1689">
<rect x="0.309814" width="224" height="224" rx="112" fill="white"/>
</clipPath>
</defs>
</svg>

