<svg width="225" height="224" viewBox="0 0 225 224" fill="none" xmlns="http://www.w3.org/2000/svg">
<g clip-path="url(#clip0_8455_1691)">
<rect x="0.309814" width="224" height="224" fill="white"/>
<ellipse cx="142.279" cy="164.801" rx="50.2618" ry="7.56087" fill="#0179F8" stroke="#0179F8" stroke-width="3" stroke-linecap="round" stroke-linejoin="round"/>
<path d="M182.316 114.8C182.316 146.562 156.572 172.306 124.81 172.306H116.113C92.0795 165.412 67.313 141.053 67.313 114.8C67.3028 90.074 93.8209 65.4195 115.716 57.293C115.716 57.293 117.773 57.293 124.81 57.293C156.572 57.293 182.316 83.0371 182.316 114.8Z" fill="white" stroke="#0179F8" stroke-width="3" stroke-linecap="round" stroke-linejoin="round"/>
<path d="M116.113 172.306C147.873 172.306 173.62 146.56 173.62 114.8C173.62 83.0396 147.873 57.293 116.113 57.293C84.3529 57.293 58.6063 83.0396 58.6063 114.8C58.6063 146.56 84.3529 172.306 116.113 172.306Z" fill="white" stroke="#0179F8" stroke-width="3" stroke-linecap="round" stroke-linejoin="round"/>
<path d="M117.263 57.293H124.809" stroke="#0179F8" stroke-width="3" stroke-linecap="round" stroke-linejoin="round"/>
<path d="M149.179 67.752H157.876" stroke="#0179F8" stroke-width="3" stroke-linecap="round" stroke-linejoin="round"/>
<path d="M160.473 78.1992H169.169" stroke="#0179F8" stroke-width="3" stroke-linecap="round" stroke-linejoin="round"/>
<path d="M167.346 88.6582H176.043" stroke="#0179F8" stroke-width="3" stroke-linecap="round" stroke-linejoin="round"/>
<path d="M171.451 99.1191H180.148" stroke="#0179F8" stroke-width="3" stroke-linecap="round" stroke-linejoin="round"/>
<path d="M173.376 109.564H182.083" stroke="#0179F8" stroke-width="3" stroke-linecap="round" stroke-linejoin="round"/>
<path d="M173.376 120.023H182.083" stroke="#0179F8" stroke-width="3" stroke-linecap="round" stroke-linejoin="round"/>
<path d="M171.451 130.484H180.148" stroke="#0179F8" stroke-width="3" stroke-linecap="round" stroke-linejoin="round"/>
<path d="M167.346 140.932H176.043" stroke="#0179F8" stroke-width="3" stroke-linecap="round" stroke-linejoin="round"/>
<path d="M160.473 151.391H169.169" stroke="#0179F8" stroke-width="3" stroke-linecap="round" stroke-linejoin="round"/>
<path d="M149.179 161.85H157.876" stroke="#0179F8" stroke-width="3" stroke-linecap="round" stroke-linejoin="round"/>
<path d="M102.243 123.828C102.243 123.828 105.041 133.765 114.784 133.765C124.528 133.765 127.446 123.828 127.446 123.828" stroke="#0179F8" stroke-width="3" stroke-linecap="round" stroke-linejoin="round"/>
<path d="M108.148 101.941C108.148 101.941 105.783 96.3242 98.9212 96.3242C92.0596 96.3242 88.9937 101.941 88.9937 101.941" stroke="#0179F8" stroke-width="3" stroke-linecap="round" stroke-linejoin="round"/>
<line x1="125.215" y1="97.4718" x2="139.108" y2="95.097" stroke="#0179F8" stroke-width="3" stroke-linecap="round" stroke-linejoin="round"/>
<path d="M139.911 106.402H127.661C125.289 106.402 123.366 108.323 123.366 110.693C123.366 113.063 125.289 114.984 127.661 114.984H139.911C142.283 114.984 144.206 113.063 144.206 110.693C144.206 108.323 142.283 106.402 139.911 106.402Z" fill="white" stroke="#0179F8" stroke-width="3" stroke-linecap="round" stroke-linejoin="round"/>
<path d="M139.776 114.817C142.102 114.817 143.988 112.933 143.988 110.61C143.988 108.286 142.102 106.402 139.776 106.402C137.45 106.402 135.565 108.286 135.565 110.61C135.565 112.933 137.45 114.817 139.776 114.817Z" fill="#0179F8" stroke="#0179F8" stroke-width="3" stroke-linecap="round" stroke-linejoin="round"/>
<path d="M104.53 106.402H92.2802C89.9081 106.402 87.9852 108.323 87.9852 110.693C87.9852 113.063 89.9081 114.984 92.2802 114.984H104.53C106.902 114.984 108.825 113.063 108.825 110.693C108.825 108.323 106.902 106.402 104.53 106.402Z" fill="white" stroke="#0179F8" stroke-width="3" stroke-linecap="round" stroke-linejoin="round"/>
<path d="M104.396 114.817C106.722 114.817 108.607 112.933 108.607 110.61C108.607 108.286 106.722 106.402 104.396 106.402C102.07 106.402 100.184 108.286 100.184 110.61C100.184 112.933 102.07 114.817 104.396 114.817Z" fill="#0179F8" stroke="#0179F8" stroke-width="3" stroke-linecap="round" stroke-linejoin="round"/>
<path d="M134.9 59.2498C134.9 62.8997 126.789 65.8813 116.778 65.8813C106.767 65.8813 98.6552 62.9254 98.6552 59.2498V34.0605H134.9V59.2498Z" fill="white" stroke="#0179F8" stroke-width="3" stroke-linecap="round" stroke-linejoin="round"/>
<path d="M86.9124 35.5938V52.6102L89.4133 49.8425L92.0173 52.6102V37.362L86.9124 35.5938Z" fill="#0179F8" stroke="#0179F8" stroke-width="3" stroke-linecap="round" stroke-linejoin="round"/>
<path d="M152.084 34.5046L116.775 48.1845L81.4657 34.5046L116.775 20.1074L152.084 34.5046Z" fill="#0179F8" stroke="#0179F8" stroke-width="3" stroke-linecap="round" stroke-linejoin="round"/>
<path d="M104.562 139.879H90.459V169.178C90.459 170.224 91.1538 171.277 92.5403 172.077C95.3018 173.675 99.7683 173.683 102.512 172.094C103.89 171.297 104.573 170.25 104.562 169.201V139.879Z" fill="white" stroke="#0179F8" stroke-width="3" stroke-linecap="round" stroke-linejoin="round"/>
<path d="M104.54 139.941C104.552 137.693 101.404 135.853 97.5091 135.832C93.6139 135.811 90.4462 137.616 90.4341 139.865C90.4219 142.113 93.5698 143.953 97.4651 143.974C101.36 143.995 104.528 142.189 104.54 139.941Z" fill="white" stroke="#0179F8" stroke-width="3" stroke-linecap="round" stroke-linejoin="round"/>
<path d="M86.4183 134.021H72.3155V168.769C72.3155 169.814 73.0102 170.865 74.3968 171.664C77.1583 173.26 81.6247 173.268 84.3689 171.682C85.7467 170.886 86.4299 169.84 86.4183 168.792V134.021Z" fill="#0179F8" stroke="#0179F8" stroke-width="3" stroke-linecap="round" stroke-linejoin="round"/>
<path d="M86.4448 134.078C86.457 131.829 83.3091 129.99 79.4138 129.969C75.5185 129.948 72.3509 131.753 72.3388 134.001C72.3266 136.25 75.4745 138.089 79.3698 138.11C83.2651 138.132 86.4327 136.326 86.4448 134.078Z" fill="white" stroke="#0179F8" stroke-width="3" stroke-linecap="round" stroke-linejoin="round"/>
<path d="M94.4184 155.552H80.3156V174.955C80.3156 176.001 81.0103 177.052 82.3969 177.851C85.1584 179.447 89.6249 179.456 92.369 177.869C93.7469 177.072 94.43 176.027 94.4184 174.978V155.549V155.552Z" fill="white" stroke="#0179F8" stroke-width="3" stroke-linecap="round" stroke-linejoin="round"/>
<path d="M94.4338 155.627C94.4459 153.378 91.2981 151.539 87.4028 151.518C83.5075 151.497 80.3399 153.302 80.3277 155.55C80.3156 157.799 83.4634 159.638 87.3587 159.659C91.254 159.68 94.4216 157.875 94.4338 155.627Z" fill="white" stroke="#0179F8" stroke-width="3" stroke-linecap="round" stroke-linejoin="round"/>
<path d="M96.6124 177.587H47.0161L60.0411 164.562H109.637L96.6124 177.587Z" fill="white" stroke="#0179F8" stroke-width="3" stroke-linecap="round" stroke-linejoin="round"/>
<path d="M109.637 172.875L96.6116 185.9V177.587L109.637 164.562V172.875Z" fill="#0179F8" stroke="#0179F8" stroke-width="3" stroke-linecap="round" stroke-linejoin="round"/>
<path d="M96.5363 177.588H47.0161V185.9H96.5363V177.588Z" fill="white" stroke="#0179F8" stroke-width="3" stroke-linecap="round" stroke-linejoin="round"/>
<path d="M90.7566 173.993L60.8201 173.993L66.5998 168.299L96.5363 168.299L90.7566 173.993Z" fill="#0179F8" stroke="#0179F8" stroke-width="3" stroke-linecap="round" stroke-linejoin="round"/>
<path d="M75.4133 177.587H66.4655L79.4904 164.562H88.4371L75.4133 177.587Z" fill="white" stroke="#0179F8" stroke-width="3" stroke-linecap="round" stroke-linejoin="round"/>
<path d="M75.3304 177.588H66.4655V185.9H75.3304V177.588Z" fill="white" stroke="#0179F8" stroke-width="3" stroke-linecap="round" stroke-linejoin="round"/>
<path d="M82.7268 188.418H68.9971V190.401C68.9971 191.418 69.6728 192.442 71.023 193.219C73.7112 194.772 78.0598 194.78 80.7305 193.237C82.0712 192.462 82.7362 191.445 82.7255 190.425V188.419L82.7268 188.418Z" fill="white" stroke="#0179F8" stroke-width="3" stroke-linecap="round" stroke-linejoin="round"/>
<path d="M82.7268 188.47C82.7389 186.282 79.6746 184.491 75.8835 184.471C72.0923 184.451 69.0092 186.208 68.9971 188.396C68.985 190.585 72.0494 192.376 75.8405 192.396C79.6316 192.416 82.7147 190.659 82.7268 188.47Z" fill="white" stroke="#0179F8" stroke-width="3" stroke-linecap="round" stroke-linejoin="round"/>
</g>
<defs>
<clipPath id="clip0_8455_1691">
<rect x="0.309814" width="224" height="224" rx="112" fill="white"/>
</clipPath>
</defs>
</svg>

