<svg width="225" height="224" viewBox="0 0 225 224" fill="none" xmlns="http://www.w3.org/2000/svg">
<g clip-path="url(#clip0_8455_1689)">
<rect x="0.309814" width="224" height="224" fill="white"/>
<path d="M165.709 93.5583C165.709 126.605 138.924 153.39 105.878 153.39H96.8293C71.8244 146.217 46.0566 120.873 46.0566 93.5583C46.046 67.8329 73.6362 42.1816 96.4161 33.7266C96.4161 33.7266 98.5563 33.7266 105.878 33.7266C138.924 33.7266 165.709 60.5115 165.709 93.5583Z" fill="#0179F8" stroke="#0179F8" stroke-width="3" stroke-linecap="round" stroke-linejoin="round"/>
<path d="M96.8323 153.39C129.876 153.39 156.664 126.602 156.664 93.5583C156.664 60.5141 129.876 33.7266 96.8323 33.7266C63.7882 33.7266 37.0006 60.5141 37.0006 93.5583C37.0006 126.602 63.7882 153.39 96.8323 153.39Z" fill="white" stroke="#0179F8" stroke-width="3" stroke-linecap="round" stroke-linejoin="round"/>
<path d="M74.903 89.6833C76.3835 89.6833 77.5836 87.2498 77.5836 84.2479C77.5836 81.246 76.3835 78.8125 74.903 78.8125C73.4226 78.8125 72.2224 81.246 72.2224 84.2479C72.2224 87.2498 73.4226 89.6833 74.903 89.6833Z" fill="#0179F8" stroke="#0179F8" stroke-width="3" stroke-linecap="round" stroke-linejoin="round"/>
<path d="M116.994 89.6833C118.475 89.6833 119.675 87.2498 119.675 84.2479C119.675 81.246 118.475 78.8125 116.994 78.8125C115.514 78.8125 114.314 81.246 114.314 84.2479C114.314 87.2498 115.514 89.6833 116.994 89.6833Z" fill="#0179F8" stroke="#0179F8" stroke-width="3" stroke-linecap="round" stroke-linejoin="round"/>
<path d="M66.5375 177.753C66.5375 177.753 96.0994 166.746 122.179 185.511V108.971C96.0994 90.2114 66.5375 101.218 66.5375 101.218V177.758V177.753Z" fill="white" stroke="#0179F8" stroke-width="3" stroke-linecap="round" stroke-linejoin="round"/>
<path d="M177.823 177.751C177.823 177.751 148.261 166.744 122.181 185.509V108.969C148.261 90.21 177.823 101.211 177.823 101.211V177.751Z" fill="white" stroke="#0179F8" stroke-width="3" stroke-linecap="round" stroke-linejoin="round"/>
<path d="M141.668 151.946L148.739 123.66L155.811 151.946M144.32 141.338H153.159" stroke="#0179F8" stroke-width="3" stroke-linecap="round" stroke-linejoin="round"/>
<path d="M55.2859 165.409H76.5327L77.5 141.366H68.3039C67.4705 141.366 66.8727 140.566 67.1082 139.766L69.5488 131.459C70.0146 129.872 69.1735 128.143 67.5974 127.649C66.0212 127.155 64.2872 128.058 63.8162 129.668L62.7111 133.431C60.8891 138.097 58.8238 141.203 55.1203 141.203C48.5 141.293 43.1841 146.684 43.1841 153.304C43.1841 159.989 48.6035 165.409 55.2885 165.409H55.2859Z" fill="white" stroke="#0179F8" stroke-width="3" stroke-linecap="round" stroke-linejoin="round"/>
<mask id="path-11-inside-1_8455_1689" fill="white">
<path d="M74.6555 141.363H81.7675C83.4265 141.363 84.7723 142.709 84.7723 144.371C84.7723 146.032 83.4265 147.378 81.7675 147.378H74.6555"/>
</mask>
<path d="M74.6555 141.363H81.7675C83.4265 141.363 84.7723 142.709 84.7723 144.371C84.7723 146.032 83.4265 147.378 81.7675 147.378H74.6555" fill="white"/>
<path d="M74.6555 141.363V144.363H81.7675V141.363V138.363H74.6555V141.363ZM81.7675 141.363V144.363C81.7716 144.363 81.7724 144.364 81.7711 144.363C81.77 144.363 81.7687 144.363 81.7676 144.362C81.7659 144.362 81.7673 144.362 81.77 144.365C81.7727 144.367 81.7733 144.369 81.7728 144.368C81.7724 144.367 81.7721 144.366 81.772 144.365C81.7718 144.364 81.7723 144.366 81.7723 144.371H84.7723H87.7723C87.7723 141.054 85.085 138.363 81.7675 138.363V141.363ZM84.7723 144.371H81.7723C81.7723 144.375 81.7718 144.377 81.772 144.376C81.7721 144.375 81.7724 144.374 81.7728 144.373C81.7733 144.372 81.7727 144.374 81.77 144.377C81.7673 144.379 81.7659 144.38 81.7676 144.379C81.7687 144.379 81.77 144.378 81.7711 144.378C81.7724 144.378 81.7716 144.378 81.7675 144.378V147.378V150.378C85.085 150.378 87.7723 147.687 87.7723 144.371H84.7723ZM81.7675 147.378V144.378H74.6555V147.378V150.378H81.7675V147.378Z" fill="#0179F8" mask="url(#path-11-inside-1_8455_1689)"/>
<path d="M74.6555 141.363H81.7675C83.4265 141.363 84.7723 142.709 84.7723 144.371C84.7723 146.032 83.4265 147.378 81.7675 147.378H74.6555" fill="white"/>
<path d="M74.6555 141.363H81.7675C83.4265 141.363 84.7723 142.709 84.7723 144.371C84.7723 146.032 83.4265 147.378 81.7675 147.378H74.6555" stroke="#0179F8" stroke-width="3" stroke-linecap="round" stroke-linejoin="round"/>
<mask id="path-15-inside-2_8455_1689" fill="white">
<path d="M74.6555 147.377H81.7675C83.4265 147.377 84.7723 148.723 84.7723 150.384C84.7723 152.046 83.4265 153.392 81.7675 153.392H74.6555"/>
</mask>
<path d="M74.6555 147.377H81.7675C83.4265 147.377 84.7723 148.723 84.7723 150.384C84.7723 152.046 83.4265 153.392 81.7675 153.392H74.6555" fill="white"/>
<path d="M74.6555 147.377V150.377H81.7675V147.377V144.377H74.6555V147.377ZM81.7675 147.377V150.377C81.7716 150.377 81.7724 150.377 81.7711 150.377C81.77 150.377 81.7687 150.376 81.7676 150.376C81.7659 150.375 81.7673 150.376 81.77 150.378C81.7727 150.381 81.7733 150.383 81.7728 150.381C81.7724 150.381 81.7721 150.38 81.772 150.379C81.7718 150.378 81.7723 150.38 81.7723 150.384H84.7723H87.7723C87.7723 147.068 85.085 144.377 81.7675 144.377V147.377ZM84.7723 150.384H81.7723C81.7723 150.389 81.7718 150.39 81.772 150.39C81.7721 150.389 81.7724 150.388 81.7728 150.387C81.7733 150.386 81.7727 150.388 81.77 150.39C81.7673 150.393 81.7659 150.393 81.7676 150.393C81.7687 150.392 81.77 150.392 81.7711 150.392C81.7724 150.391 81.7716 150.392 81.7675 150.392V153.392V156.392C85.085 156.392 87.7723 153.701 87.7723 150.384H84.7723ZM81.7675 153.392V150.392H74.6555V153.392V156.392H81.7675V153.392Z" fill="#0179F8" mask="url(#path-15-inside-2_8455_1689)"/>
<path d="M74.015 147.377H81.7672C83.4262 147.377 84.772 148.723 84.772 150.384C84.772 152.046 83.4262 153.392 81.7672 153.392H74.015" fill="white"/>
<path d="M74.015 147.377H81.7672C83.4262 147.377 84.772 148.723 84.772 150.384C84.772 152.046 83.4262 153.392 81.7672 153.392H74.015" stroke="#0179F8" stroke-width="3" stroke-linecap="round" stroke-linejoin="round"/>
<mask id="path-19-inside-3_8455_1689" fill="white">
<path d="M74.6555 153.385H78.755C80.4139 153.385 81.7597 154.731 81.7597 156.392C81.7597 158.054 80.4139 159.399 78.755 159.399H74.6555"/>
</mask>
<path d="M74.6555 153.385H78.755C80.4139 153.385 81.7597 154.731 81.7597 156.392C81.7597 158.054 80.4139 159.399 78.755 159.399H74.6555" fill="white"/>
<path d="M74.6555 153.385V156.385H78.755V153.385V150.385H74.6555V153.385ZM78.755 153.385V156.385C78.7591 156.385 78.7599 156.385 78.7586 156.385C78.7575 156.385 78.7562 156.384 78.7551 156.384C78.7534 156.383 78.7548 156.383 78.7575 156.386C78.7602 156.389 78.7607 156.39 78.7602 156.389C78.7599 156.388 78.7596 156.388 78.7595 156.387C78.7593 156.386 78.7597 156.387 78.7597 156.392H81.7597H84.7597C84.7597 153.075 82.0725 150.385 78.755 150.385V153.385ZM81.7597 156.392H78.7597C78.7597 156.397 78.7593 156.398 78.7595 156.397C78.7596 156.397 78.7599 156.396 78.7602 156.395C78.7607 156.394 78.7602 156.395 78.7575 156.398C78.7548 156.401 78.7534 156.401 78.7551 156.4C78.7562 156.4 78.7575 156.4 78.7586 156.399C78.7599 156.399 78.7591 156.399 78.755 156.399V159.399V162.399C82.0725 162.399 84.7597 159.709 84.7597 156.392H81.7597ZM78.755 159.399V156.399H74.6555V159.399V162.399H78.755V159.399Z" fill="#0179F8" mask="url(#path-19-inside-3_8455_1689)"/>
<path d="M74.2516 153.385H78.755C80.4139 153.385 81.7597 154.731 81.7597 156.392C81.7597 158.054 80.4139 159.399 78.755 159.399H74.2516" fill="white"/>
<path d="M74.2516 153.385H78.755C80.4139 153.385 81.7597 154.731 81.7597 156.392C81.7597 158.054 80.4139 159.399 78.755 159.399H74.2516" stroke="#0179F8" stroke-width="3" stroke-linecap="round" stroke-linejoin="round"/>
<mask id="path-23-inside-4_8455_1689" fill="white">
<path d="M74.6555 159.398H76.7104C78.3694 159.398 79.7152 160.744 79.7152 162.406C79.7152 164.067 78.3694 165.413 76.7104 165.413H74.6555"/>
</mask>
<path d="M74.6555 159.398H76.7104C78.3694 159.398 79.7152 160.744 79.7152 162.406C79.7152 164.067 78.3694 165.413 76.7104 165.413H74.6555" fill="white"/>
<path d="M74.6555 159.398V162.398H76.7104V159.398V156.398H74.6555V159.398ZM76.7104 159.398V162.398C76.7145 162.398 76.7153 162.399 76.714 162.399C76.7129 162.398 76.7116 162.398 76.7105 162.397C76.7088 162.397 76.7102 162.397 76.7129 162.4C76.7157 162.402 76.7162 162.404 76.7157 162.403C76.7153 162.402 76.7151 162.401 76.7149 162.401C76.7147 162.4 76.7152 162.401 76.7152 162.406H79.7152H82.7152C82.7152 159.089 80.0279 156.398 76.7104 156.398V159.398ZM79.7152 162.406H76.7152C76.7152 162.41 76.7147 162.412 76.7149 162.411C76.7151 162.41 76.7153 162.409 76.7157 162.409C76.7162 162.407 76.7157 162.409 76.7129 162.412C76.7102 162.415 76.7088 162.415 76.7105 162.414C76.7116 162.414 76.7129 162.413 76.714 162.413C76.7153 162.413 76.7145 162.413 76.7104 162.413V165.413V168.413C80.0279 168.413 82.7152 165.722 82.7152 162.406H79.7152ZM76.7104 165.413V162.413H74.6555V165.413V168.413H76.7104V165.413Z" fill="#0179F8" mask="url(#path-23-inside-4_8455_1689)"/>
<path d="M74.6551 159.398H76.7101C78.369 159.398 79.7148 160.744 79.7148 162.406C79.7148 164.067 78.369 165.413 76.7101 165.413H72.833" fill="white"/>
<path d="M74.6551 159.398H76.7101C78.369 159.398 79.7148 160.744 79.7148 162.406C79.7148 164.067 78.369 165.413 76.7101 165.413H72.833" stroke="#0179F8" stroke-width="3" stroke-linecap="round" stroke-linejoin="round"/>
<path d="M182.788 146.09L163.131 140.823L167.684 117.152L176.436 119.497C177.241 119.712 178.026 119.095 178.005 118.261L177.798 109.605C177.759 107.952 179.019 106.5 180.669 106.43C182.319 106.361 183.76 107.682 183.799 109.359L183.892 113.279C184.445 118.258 185.636 121.793 189.213 122.751C195.584 124.552 199.324 131.135 197.61 137.53C195.88 143.987 189.243 147.819 182.785 146.089L182.788 146.09Z" fill="white" stroke="#0179F8" stroke-width="3" stroke-linecap="round" stroke-linejoin="round"/>
<mask id="path-28-inside-5_8455_1689" fill="white">
<path d="M170.296 117.85L163.426 116.009C161.824 115.58 160.176 116.531 159.746 118.136C159.315 119.741 160.267 121.389 161.87 121.819L168.739 123.659"/>
</mask>
<path d="M170.296 117.85L163.426 116.009C161.824 115.58 160.176 116.531 159.746 118.136C159.315 119.741 160.267 121.389 161.87 121.819L168.739 123.659" fill="white"/>
<path d="M170.296 117.85L169.519 120.747L162.65 118.907L163.426 116.009L164.203 113.111L171.072 114.952L170.296 117.85ZM163.426 116.009L162.65 118.907C162.646 118.906 162.645 118.906 162.646 118.906C162.647 118.906 162.649 118.906 162.65 118.906C162.652 118.905 162.65 118.905 162.647 118.907C162.644 118.909 162.643 118.911 162.644 118.91C162.644 118.909 162.645 118.908 162.645 118.907C162.645 118.907 162.645 118.908 162.643 118.913L159.746 118.136L156.848 117.36C157.706 114.156 160.998 112.252 164.203 113.111L163.426 116.009ZM159.746 118.136L162.643 118.913C162.642 118.917 162.642 118.919 162.642 118.918C162.642 118.917 162.642 118.916 162.642 118.915C162.642 118.914 162.642 118.916 162.644 118.919C162.646 118.922 162.647 118.923 162.646 118.922C162.645 118.921 162.644 118.92 162.643 118.92C162.641 118.919 162.642 118.92 162.646 118.921L161.87 121.819L161.093 124.716C157.889 123.858 155.989 120.563 156.848 117.36L159.746 118.136ZM161.87 121.819L162.646 118.921L169.516 120.762L168.739 123.659L167.963 126.557L161.093 124.716L161.87 121.819Z" fill="#0179F8" mask="url(#path-28-inside-5_8455_1689)"/>
<path d="M170.296 117.851L163.426 116.01C161.824 115.581 160.175 116.532 159.745 118.137C159.315 119.742 160.267 121.39 161.869 121.82L168.739 123.661" fill="white"/>
<path d="M170.296 117.851L163.426 116.01C161.824 115.581 160.175 116.532 159.745 118.137C159.315 119.742 160.267 121.39 161.869 121.82L168.739 123.661" stroke="#0179F8" stroke-width="3" stroke-linecap="round" stroke-linejoin="round"/>
<mask id="path-32-inside-6_8455_1689" fill="white">
<path d="M168.742 123.656L161.873 121.816C160.27 121.386 158.622 122.338 158.192 123.943C157.762 125.548 158.713 127.196 160.316 127.625L167.186 129.466"/>
</mask>
<path d="M168.742 123.656L161.873 121.816C160.27 121.386 158.622 122.338 158.192 123.943C157.762 125.548 158.713 127.196 160.316 127.625L167.186 129.466" fill="white"/>
<path d="M168.742 123.656L167.966 126.554L161.096 124.713L161.873 121.816L162.649 118.918L169.519 120.758L168.742 123.656ZM161.873 121.816L161.096 124.713C161.092 124.712 161.091 124.712 161.093 124.712C161.094 124.713 161.095 124.712 161.096 124.712C161.098 124.712 161.097 124.712 161.093 124.714C161.09 124.716 161.089 124.717 161.09 124.716C161.09 124.716 161.091 124.715 161.091 124.714C161.092 124.713 161.091 124.715 161.09 124.719L158.192 123.943L155.294 123.166C156.152 119.963 159.445 118.059 162.649 118.918L161.873 121.816ZM158.192 123.943L161.09 124.719C161.088 124.724 161.088 124.725 161.088 124.724C161.089 124.724 161.089 124.723 161.088 124.722C161.088 124.721 161.088 124.722 161.09 124.726C161.092 124.729 161.093 124.73 161.092 124.728C161.091 124.728 161.09 124.727 161.089 124.726C161.088 124.726 161.088 124.726 161.092 124.727L160.316 127.625L159.539 130.523C156.335 129.664 154.436 126.37 155.294 123.166L158.192 123.943ZM160.316 127.625L161.092 124.727L167.962 126.568L167.186 129.466L166.409 132.364L159.539 130.523L160.316 127.625Z" fill="#0179F8" mask="url(#path-32-inside-6_8455_1689)"/>
<path d="M170.208 123.943L161.873 121.816C160.27 121.387 158.622 122.339 158.192 123.943C157.762 125.548 158.714 127.197 160.316 127.626L167.186 129.467" fill="white"/>
<path d="M170.208 123.943L161.873 121.816C160.27 121.387 158.622 122.339 158.192 123.943C157.762 125.548 158.714 127.197 160.316 127.626L167.186 129.467" stroke="#0179F8" stroke-width="3" stroke-linecap="round" stroke-linejoin="round"/>
<mask id="path-36-inside-7_8455_1689" fill="white">
<path d="M167.186 129.463L163.226 128.402C161.624 127.972 159.975 128.924 159.545 130.529C159.115 132.134 160.067 133.782 161.669 134.212L165.629 135.273"/>
</mask>
<path d="M167.186 129.463L163.226 128.402C161.624 127.972 159.975 128.924 159.545 130.529C159.115 132.134 160.067 133.782 161.669 134.212L165.629 135.273" fill="white"/>
<path d="M167.186 129.463L166.41 132.361L162.45 131.3L163.226 128.402L164.003 125.504L167.962 126.565L167.186 129.463ZM163.226 128.402L162.45 131.3C162.446 131.299 162.445 131.299 162.446 131.299C162.447 131.299 162.449 131.299 162.45 131.299C162.452 131.298 162.45 131.298 162.447 131.3C162.444 131.302 162.443 131.304 162.443 131.303C162.444 131.302 162.445 131.301 162.445 131.3C162.445 131.3 162.444 131.301 162.443 131.305L159.545 130.529L156.648 129.753C157.506 126.549 160.798 124.645 164.003 125.504L163.226 128.402ZM159.545 130.529L162.443 131.305C162.442 131.31 162.442 131.312 162.442 131.311C162.442 131.31 162.442 131.309 162.442 131.308C162.442 131.307 162.442 131.309 162.444 131.312C162.446 131.315 162.447 131.316 162.446 131.315C162.445 131.314 162.443 131.313 162.442 131.313C162.441 131.312 162.442 131.313 162.446 131.314L161.669 134.212L160.893 137.109C157.689 136.251 155.789 132.956 156.648 129.753L159.545 130.529ZM161.669 134.212L162.446 131.314L166.406 132.375L165.629 135.273L164.853 138.17L160.893 137.109L161.669 134.212Z" fill="#0179F8" mask="url(#path-36-inside-7_8455_1689)"/>
<path d="M168.55 129.797L163.228 128.401C161.626 127.972 159.978 128.923 159.547 130.528C159.117 132.133 160.069 133.781 161.671 134.211L165.631 135.272" fill="white"/>
<path d="M168.55 129.797L163.228 128.401C161.626 127.972 159.978 128.923 159.547 130.528C159.117 132.133 160.069 133.781 161.671 134.211L165.631 135.272" stroke="#0179F8" stroke-width="3" stroke-linecap="round" stroke-linejoin="round"/>
<mask id="path-40-inside-8_8455_1689" fill="white">
<path d="M165.63 135.27L163.645 134.738C162.042 134.308 160.394 135.26 159.964 136.865C159.534 138.47 160.486 140.118 162.088 140.547L164.073 141.079"/>
</mask>
<path d="M165.63 135.27L163.645 134.738C162.042 134.308 160.394 135.26 159.964 136.865C159.534 138.47 160.486 140.118 162.088 140.547L164.073 141.079" fill="white"/>
<path d="M165.63 135.27L164.853 138.167L162.868 137.635L163.645 134.738L164.421 131.84L166.406 132.372L165.63 135.27ZM163.645 134.738L162.868 137.635C162.864 137.634 162.863 137.635 162.865 137.635C162.866 137.635 162.867 137.635 162.869 137.634C162.87 137.634 162.869 137.634 162.866 137.636C162.862 137.638 162.861 137.639 162.862 137.638C162.863 137.638 162.863 137.637 162.863 137.636C162.864 137.636 162.863 137.637 162.862 137.641L159.964 136.865L157.066 136.088C157.925 132.885 161.217 130.981 164.421 131.84L163.645 134.738ZM159.964 136.865L162.862 137.641C162.861 137.646 162.861 137.647 162.861 137.646C162.861 137.646 162.861 137.645 162.861 137.644C162.86 137.643 162.861 137.644 162.862 137.648C162.864 137.651 162.866 137.652 162.864 137.651C162.863 137.65 162.862 137.649 162.861 137.649C162.86 137.648 162.861 137.649 162.865 137.65L162.088 140.547L161.312 143.445C158.107 142.587 156.208 139.292 157.066 136.088L159.964 136.865ZM162.088 140.547L162.865 137.65L164.849 138.181L164.073 141.079L163.297 143.977L161.312 143.445L162.088 140.547Z" fill="#0179F8" mask="url(#path-40-inside-8_8455_1689)"/>
<path d="M167.447 135.786L163.647 134.737C162.045 134.307 160.396 135.259 159.966 136.864C159.536 138.469 160.488 140.117 162.09 140.546L165 141.318" fill="white"/>
<path d="M167.447 135.786L163.647 134.737C162.045 134.307 160.396 135.259 159.966 136.864C159.536 138.469 160.488 140.117 162.09 140.546L165 141.318" stroke="#0179F8" stroke-width="3" stroke-linecap="round" stroke-linejoin="round"/>
</g>
<defs>
<clipPath id="clip0_8455_1689">
<rect x="0.309814" width="224" height="224" rx="112" fill="white"/>
</clipPath>
</defs>
</svg>
