<svg width="342" height="342" viewBox="0 0 342 342" fill="none" xmlns="http://www.w3.org/2000/svg">
<rect width="342" height="342" fill="#0B1F42"/>
<path d="M102.5 53.4062V49.5H105.359V34.0312H102.5V30.125H113.031V34.0312H110.172V49.5H113.031V53.4062H102.5ZM120.266 44.2344V53.4062H115.656V36.9062H120.188V39.5C121.297 37.625 122.969 36.5625 125.344 36.5625C128.859 36.5625 131.125 38.9062 131.125 43.0781V53.4062H126.531V43.9219C126.531 41.7031 125.422 40.5312 123.5 40.5312C121.594 40.5312 120.266 41.6719 120.266 44.2344ZM138.359 53.4062L132.25 36.9062H137.078L139.797 45.0625C140.219 46.3594 140.609 47.6719 140.984 48.9688C141.359 47.6719 141.75 46.3594 142.141 45.0625L144.828 36.9062H149.609L143.484 53.4062H138.359ZM158.344 53.7812C153.344 53.7812 150.094 50.1875 150.094 45.1719C150.094 40.1406 153.453 36.5312 158.188 36.5312C163.047 36.5312 166.312 40.0469 166.312 45.0781V46.3125H154.578C154.656 48.75 156.062 50.3281 158.484 50.3281C160.281 50.3281 161.516 49.5 161.938 48.2188H166.141C165.531 51.5 162.344 53.7812 158.344 53.7812ZM154.609 43.375H161.969C161.734 41.3125 160.359 40.0312 158.281 40.0312C156.219 40.0312 154.859 41.3125 154.609 43.375ZM175.641 53.8125C171.359 53.8125 168.281 51.7656 168 48.2188H172.531C172.703 49.6562 173.766 50.5156 175.562 50.5156C177.266 50.5156 178.312 49.7969 178.312 48.7812C178.312 47.9062 177.516 47.3906 176.172 47.125L173.281 46.5625C170.078 45.9375 168.375 44.3125 168.375 41.75C168.375 38.625 171.078 36.5625 175.375 36.5625C179.641 36.5625 182.453 38.7031 182.547 42.1406H178.281C178.25 40.8125 177.125 39.8281 175.5 39.8281C173.922 39.8281 172.969 40.5938 172.969 41.5781C172.969 42.4219 173.703 42.9688 174.969 43.2344L178.094 43.8438C181.422 44.5 182.953 45.9375 182.953 48.3594C182.953 51.6562 179.953 53.8125 175.641 53.8125ZM195.234 36.9062V40.5156H191.859V48.3125C191.859 49.4375 192.219 49.7969 193.469 49.7969H195.234V53.4062H192.547C188.922 53.4062 187.25 52.0312 187.25 49.0312V40.5156H184.406V36.9062H187.25V32.4062H191.859V36.9062H195.234ZM197.562 53.4062V36.9062H202.172V53.4062H197.562ZM199.859 34.8281C198.344 34.8281 197.234 33.7812 197.234 32.375C197.234 30.9688 198.344 29.9219 199.859 29.9219C201.375 29.9219 202.484 30.9688 202.484 32.375C202.484 33.7812 201.375 34.8281 199.859 34.8281ZM213 53.7812C208.031 53.7812 204.719 50.2812 204.719 45.1719C204.719 40.0625 208.047 36.5312 213 36.5312C217.344 36.5312 220.453 39.2344 220.75 43.0781H216.297C216.062 41.3906 214.906 40.25 213.062 40.25C210.734 40.25 209.359 42.1562 209.359 45.1719C209.359 48.1719 210.75 50.0625 213.062 50.0625C214.922 50.0625 215.969 48.9375 216.266 47.2031H220.75C220.547 51.0156 217.391 53.7812 213 53.7812ZM230.75 53.7812C225.75 53.7812 222.5 50.1875 222.5 45.1719C222.5 40.1406 225.859 36.5312 230.594 36.5312C235.453 36.5312 238.719 40.0469 238.719 45.0781V46.3125H226.984C227.062 48.75 228.469 50.3281 230.891 50.3281C232.688 50.3281 233.922 49.5 234.344 48.2188H238.547C237.938 51.5 234.75 53.7812 230.75 53.7812ZM227.016 43.375H234.375C234.141 41.3125 232.766 40.0312 230.688 40.0312C228.625 40.0312 227.266 41.3125 227.016 43.375Z" fill="#FFFDFD"/>
<path d="M62.9489 279.102L66.4034 288.897H66.5398L69.9943 279.102H71.4716L67.1989 290.738H65.7443L61.4716 279.102H62.9489ZM73.9659 294.011C73.7387 294.011 73.536 293.992 73.358 293.954C73.18 293.92 73.0568 293.886 72.9887 293.852L73.3296 292.67C73.6553 292.753 73.9432 292.784 74.1932 292.761C74.4432 292.738 74.6648 292.627 74.858 292.426C75.055 292.229 75.2349 291.909 75.3978 291.466L75.6478 290.784L72.4205 282.011H73.875L76.2841 288.966H76.375L78.7841 282.011H80.2387L76.5341 292.011C76.3675 292.462 76.161 292.835 75.9148 293.13C75.6686 293.43 75.3826 293.651 75.0568 293.795C74.7349 293.939 74.3712 294.011 73.9659 294.011ZM81.7586 290.738V289.716L86.7131 283.352V283.261H81.9176V282.011H88.4404V283.079L83.6222 289.397V289.488H88.5995V290.738H81.7586ZM91.9148 287.556L91.8921 285.897H92.1648L95.983 282.011H97.6421L93.5739 286.125H93.4603L91.9148 287.556ZM90.6648 290.738V279.102H92.0057V290.738H90.6648ZM96.2103 290.738L92.8012 286.42L93.7557 285.488L97.9148 290.738H96.2103ZM102.554 290.92C101.766 290.92 101.075 290.733 100.48 290.358C99.8892 289.983 99.4271 289.458 99.0938 288.784C98.7642 288.109 98.5995 287.322 98.5995 286.42C98.5995 285.511 98.7642 284.717 99.0938 284.039C99.4271 283.361 99.8892 282.835 100.48 282.46C101.075 282.085 101.766 281.897 102.554 281.897C103.342 281.897 104.031 282.085 104.622 282.46C105.217 282.835 105.679 283.361 106.009 284.039C106.342 284.717 106.509 285.511 106.509 286.42C106.509 287.322 106.342 288.109 106.009 288.784C105.679 289.458 105.217 289.983 104.622 290.358C104.031 290.733 103.342 290.92 102.554 290.92ZM102.554 289.716C103.152 289.716 103.645 289.562 104.031 289.255C104.418 288.949 104.704 288.545 104.889 288.045C105.075 287.545 105.168 287.003 105.168 286.42C105.168 285.837 105.075 285.293 104.889 284.789C104.704 284.286 104.418 283.878 104.031 283.568C103.645 283.257 103.152 283.102 102.554 283.102C101.956 283.102 101.463 283.257 101.077 283.568C100.69 283.878 100.404 284.286 100.219 284.789C100.033 285.293 99.9404 285.837 99.9404 286.42C99.9404 287.003 100.033 287.545 100.219 288.045C100.404 288.545 100.69 288.949 101.077 289.255C101.463 289.562 101.956 289.716 102.554 289.716ZM114.055 287.17V282.011H115.396V290.738H114.055V289.261H113.965C113.76 289.704 113.442 290.081 113.01 290.392C112.578 290.699 112.033 290.852 111.374 290.852C110.828 290.852 110.343 290.733 109.919 290.494C109.495 290.252 109.161 289.888 108.919 289.403C108.677 288.914 108.555 288.299 108.555 287.556V282.011H109.896V287.466C109.896 288.102 110.074 288.609 110.43 288.988C110.79 289.367 111.249 289.556 111.805 289.556C112.139 289.556 112.478 289.471 112.822 289.301C113.171 289.13 113.463 288.869 113.697 288.517C113.936 288.164 114.055 287.716 114.055 287.17ZM124.034 283.966L122.83 284.306C122.754 284.106 122.642 283.911 122.494 283.721C122.35 283.528 122.153 283.369 121.903 283.244C121.653 283.119 121.333 283.056 120.943 283.056C120.409 283.056 119.964 283.18 119.608 283.426C119.256 283.668 119.08 283.977 119.08 284.352C119.08 284.685 119.201 284.949 119.443 285.142C119.686 285.335 120.064 285.496 120.58 285.625L121.875 285.943C122.655 286.132 123.237 286.422 123.619 286.812C124.002 287.199 124.193 287.697 124.193 288.306C124.193 288.806 124.049 289.253 123.761 289.647C123.477 290.041 123.08 290.352 122.568 290.579C122.057 290.806 121.462 290.92 120.784 290.92C119.894 290.92 119.157 290.727 118.574 290.341C117.991 289.954 117.621 289.39 117.466 288.647L118.739 288.329C118.86 288.799 119.089 289.151 119.426 289.386C119.767 289.621 120.212 289.738 120.761 289.738C121.386 289.738 121.883 289.606 122.25 289.341C122.621 289.072 122.807 288.75 122.807 288.375C122.807 288.072 122.701 287.818 122.489 287.613C122.277 287.405 121.951 287.25 121.511 287.147L120.057 286.806C119.258 286.617 118.67 286.324 118.295 285.926C117.924 285.524 117.739 285.022 117.739 284.42C117.739 283.928 117.877 283.492 118.153 283.113C118.434 282.734 118.814 282.437 119.295 282.221C119.78 282.005 120.33 281.897 120.943 281.897C121.807 281.897 122.485 282.087 122.977 282.466C123.474 282.844 123.826 283.344 124.034 283.966ZM119.761 278.511L120.943 280.102L122.125 278.511H123.398V278.602L121.557 280.966H120.33L118.489 278.602V278.511H119.761ZM129.871 290.92C129.03 290.92 128.304 290.734 127.695 290.363C127.089 289.988 126.621 289.466 126.291 288.795C125.965 288.121 125.803 287.337 125.803 286.443C125.803 285.549 125.965 284.761 126.291 284.079C126.621 283.394 127.079 282.859 127.666 282.477C128.257 282.091 128.947 281.897 129.734 281.897C130.189 281.897 130.638 281.973 131.081 282.125C131.524 282.276 131.928 282.522 132.291 282.863C132.655 283.2 132.945 283.647 133.161 284.204C133.376 284.761 133.484 285.447 133.484 286.261V286.829H126.757V285.67H132.121C132.121 285.178 132.022 284.738 131.825 284.352C131.632 283.966 131.356 283.661 130.996 283.437C130.64 283.214 130.219 283.102 129.734 283.102C129.2 283.102 128.738 283.234 128.348 283.5C127.962 283.761 127.664 284.102 127.456 284.522C127.248 284.943 127.143 285.394 127.143 285.875V286.647C127.143 287.306 127.257 287.865 127.484 288.324C127.715 288.778 128.036 289.125 128.445 289.363C128.854 289.598 129.329 289.716 129.871 289.716C130.223 289.716 130.541 289.666 130.825 289.568C131.113 289.466 131.361 289.314 131.57 289.113C131.778 288.909 131.939 288.655 132.053 288.352L133.348 288.716C133.212 289.155 132.983 289.541 132.661 289.875C132.339 290.204 131.941 290.462 131.467 290.647C130.994 290.829 130.462 290.92 129.871 290.92ZM135.524 282.011H136.865V291.375C136.865 291.913 136.772 292.378 136.587 292.772C136.405 293.166 136.128 293.471 135.757 293.687C135.39 293.903 134.926 294.011 134.365 294.011C134.32 294.011 134.274 294.011 134.229 294.011C134.183 294.011 134.138 294.011 134.092 294.011V292.761C134.138 292.761 134.179 292.761 134.217 292.761C134.255 292.761 134.297 292.761 134.342 292.761C134.751 292.761 135.051 292.64 135.24 292.397C135.429 292.159 135.524 291.818 135.524 291.375V282.011ZM136.183 280.556C135.922 280.556 135.697 280.467 135.507 280.289C135.322 280.111 135.229 279.897 135.229 279.647C135.229 279.397 135.322 279.183 135.507 279.005C135.697 278.827 135.922 278.738 136.183 278.738C136.445 278.738 136.668 278.827 136.854 279.005C137.043 279.183 137.138 279.397 137.138 279.647C137.138 279.897 137.043 280.111 136.854 280.289C136.668 280.467 136.445 280.556 136.183 280.556ZM143.117 282.011V283.147H138.594V282.011H143.117ZM139.912 279.92H141.253V288.238C141.253 288.617 141.308 288.901 141.418 289.091C141.531 289.276 141.675 289.401 141.849 289.466C142.027 289.526 142.215 289.556 142.412 289.556C142.56 289.556 142.681 289.549 142.776 289.534C142.87 289.515 142.946 289.5 143.003 289.488L143.276 290.693C143.185 290.727 143.058 290.761 142.895 290.795C142.732 290.833 142.526 290.852 142.276 290.852C141.897 290.852 141.526 290.77 141.162 290.608C140.802 290.445 140.503 290.197 140.264 289.863C140.029 289.53 139.912 289.109 139.912 288.602V279.92ZM148.699 290.92C147.858 290.92 147.133 290.734 146.523 290.363C145.917 289.988 145.449 289.466 145.119 288.795C144.794 288.121 144.631 287.337 144.631 286.443C144.631 285.549 144.794 284.761 145.119 284.079C145.449 283.394 145.907 282.859 146.494 282.477C147.085 282.091 147.775 281.897 148.563 281.897C149.017 281.897 149.466 281.973 149.909 282.125C150.352 282.276 150.756 282.522 151.119 282.863C151.483 283.2 151.773 283.647 151.989 284.204C152.205 284.761 152.313 285.447 152.313 286.261V286.829H145.585V285.67H150.949C150.949 285.178 150.85 284.738 150.653 284.352C150.46 283.966 150.184 283.661 149.824 283.437C149.468 283.214 149.047 283.102 148.563 283.102C148.028 283.102 147.566 283.234 147.176 283.5C146.79 283.761 146.492 284.102 146.284 284.522C146.076 284.943 145.972 285.394 145.972 285.875V286.647C145.972 287.306 146.085 287.865 146.313 288.324C146.544 288.778 146.864 289.125 147.273 289.363C147.682 289.598 148.157 289.716 148.699 289.716C149.051 289.716 149.369 289.666 149.653 289.568C149.941 289.466 150.189 289.314 150.398 289.113C150.606 288.909 150.767 288.655 150.881 288.352L152.176 288.716C152.04 289.155 151.811 289.541 151.489 289.875C151.167 290.204 150.769 290.462 150.295 290.647C149.822 290.829 149.29 290.92 148.699 290.92ZM165.034 283.966L163.83 284.306C163.754 284.106 163.642 283.911 163.494 283.721C163.35 283.528 163.153 283.369 162.903 283.244C162.653 283.119 162.333 283.056 161.943 283.056C161.409 283.056 160.964 283.18 160.608 283.426C160.256 283.668 160.08 283.977 160.08 284.352C160.08 284.685 160.201 284.949 160.443 285.142C160.686 285.335 161.064 285.496 161.58 285.625L162.875 285.943C163.655 286.132 164.237 286.422 164.619 286.812C165.002 287.199 165.193 287.697 165.193 288.306C165.193 288.806 165.049 289.253 164.761 289.647C164.477 290.041 164.08 290.352 163.568 290.579C163.057 290.806 162.462 290.92 161.784 290.92C160.894 290.92 160.157 290.727 159.574 290.341C158.991 289.954 158.621 289.39 158.466 288.647L159.739 288.329C159.86 288.799 160.089 289.151 160.426 289.386C160.767 289.621 161.212 289.738 161.761 289.738C162.386 289.738 162.883 289.606 163.25 289.341C163.621 289.072 163.807 288.75 163.807 288.375C163.807 288.072 163.701 287.818 163.489 287.613C163.277 287.405 162.951 287.25 162.511 287.147L161.057 286.806C160.258 286.617 159.67 286.324 159.295 285.926C158.924 285.524 158.739 285.022 158.739 284.42C158.739 283.928 158.877 283.492 159.153 283.113C159.434 282.734 159.814 282.437 160.295 282.221C160.78 282.005 161.33 281.897 161.943 281.897C162.807 281.897 163.485 282.087 163.977 282.466C164.474 282.844 164.826 283.344 165.034 283.966ZM167.212 290.738V282.011H168.553V290.738H167.212ZM167.893 280.556C167.632 280.556 167.407 280.467 167.217 280.289C167.032 280.111 166.939 279.897 166.939 279.647C166.939 279.397 167.032 279.183 167.217 279.005C167.407 278.827 167.632 278.738 167.893 278.738C168.155 278.738 168.378 278.827 168.564 279.005C168.753 279.183 168.848 279.397 168.848 279.647C168.848 279.897 168.753 280.111 168.564 280.289C168.378 280.467 168.155 280.556 167.893 280.556ZM172.94 289.147L172.849 289.761C172.785 290.193 172.687 290.655 172.554 291.147C172.425 291.64 172.291 292.104 172.151 292.539C172.01 292.975 171.895 293.322 171.804 293.579H170.781C170.831 293.337 170.895 293.017 170.974 292.619C171.054 292.221 171.134 291.776 171.213 291.284C171.296 290.795 171.365 290.295 171.418 289.784L171.486 289.147H172.94ZM179.915 282.011H181.256V291.375C181.256 291.913 181.163 292.378 180.977 292.772C180.795 293.166 180.519 293.471 180.148 293.687C179.78 293.903 179.316 294.011 178.756 294.011C178.71 294.011 178.665 294.011 178.619 294.011C178.574 294.011 178.528 294.011 178.483 294.011V292.761C178.528 292.761 178.57 292.761 178.608 292.761C178.646 292.761 178.688 292.761 178.733 292.761C179.142 292.761 179.441 292.64 179.631 292.397C179.82 292.159 179.915 291.818 179.915 291.375V282.011ZM180.574 280.556C180.313 280.556 180.087 280.467 179.898 280.289C179.712 280.111 179.619 279.897 179.619 279.647C179.619 279.397 179.712 279.183 179.898 279.005C180.087 278.827 180.313 278.738 180.574 278.738C180.835 278.738 181.059 278.827 181.244 279.005C181.434 279.183 181.528 279.397 181.528 279.647C181.528 279.897 181.434 280.111 181.244 280.289C181.059 280.467 180.835 280.556 180.574 280.556ZM186.28 290.943C185.727 290.943 185.225 290.839 184.774 290.63C184.323 290.418 183.965 290.113 183.7 289.716C183.435 289.314 183.303 288.829 183.303 288.261C183.303 287.761 183.401 287.356 183.598 287.045C183.795 286.731 184.058 286.484 184.388 286.306C184.717 286.128 185.081 285.996 185.479 285.909C185.88 285.818 186.284 285.746 186.689 285.693C187.219 285.625 187.649 285.574 187.979 285.539C188.312 285.502 188.554 285.439 188.706 285.352C188.861 285.265 188.939 285.113 188.939 284.897V284.852C188.939 284.291 188.786 283.856 188.479 283.545C188.176 283.234 187.715 283.079 187.098 283.079C186.458 283.079 185.956 283.219 185.592 283.5C185.229 283.78 184.973 284.079 184.825 284.397L183.553 283.943C183.78 283.413 184.083 283 184.462 282.704C184.844 282.405 185.261 282.197 185.712 282.079C186.166 281.958 186.613 281.897 187.053 281.897C187.333 281.897 187.655 281.931 188.018 282C188.386 282.064 188.74 282.199 189.081 282.403C189.426 282.608 189.712 282.916 189.939 283.329C190.166 283.742 190.28 284.295 190.28 284.988V290.738H188.939V289.556H188.871C188.78 289.746 188.628 289.949 188.416 290.164C188.204 290.38 187.922 290.564 187.57 290.716C187.217 290.867 186.787 290.943 186.28 290.943ZM186.484 289.738C187.015 289.738 187.462 289.634 187.825 289.426C188.193 289.217 188.469 288.949 188.655 288.619C188.844 288.289 188.939 287.943 188.939 287.579V286.352C188.882 286.42 188.757 286.483 188.564 286.539C188.375 286.592 188.155 286.64 187.905 286.681C187.659 286.719 187.418 286.753 187.183 286.784C186.952 286.81 186.765 286.833 186.621 286.852C186.272 286.897 185.947 286.971 185.643 287.074C185.344 287.172 185.102 287.322 184.916 287.522C184.734 287.719 184.643 287.988 184.643 288.329C184.643 288.795 184.816 289.147 185.161 289.386C185.509 289.621 185.95 289.738 186.484 289.738ZM193.977 287.556L193.955 285.897H194.227L198.045 282.011H199.705L195.636 286.125H195.523L193.977 287.556ZM192.727 290.738V279.102H194.068V290.738H192.727ZM198.273 290.738L194.864 286.42L195.818 285.488L199.977 290.738H198.273ZM209.226 290.92C208.499 290.92 207.857 290.736 207.3 290.369C206.743 289.998 206.307 289.475 205.993 288.801C205.679 288.123 205.521 287.322 205.521 286.397C205.521 285.481 205.679 284.685 205.993 284.011C206.307 283.337 206.745 282.816 207.305 282.449C207.866 282.081 208.514 281.897 209.249 281.897C209.817 281.897 210.266 281.992 210.595 282.181C210.929 282.367 211.182 282.579 211.357 282.818C211.535 283.053 211.673 283.246 211.771 283.397H211.885V279.102H213.226V290.738H211.93V289.397H211.771C211.673 289.556 211.533 289.757 211.351 290C211.169 290.238 210.91 290.452 210.572 290.642C210.235 290.827 209.786 290.92 209.226 290.92ZM209.408 289.716C209.946 289.716 210.4 289.575 210.771 289.295C211.143 289.011 211.425 288.619 211.618 288.119C211.811 287.615 211.908 287.034 211.908 286.375C211.908 285.723 211.813 285.153 211.624 284.664C211.434 284.172 211.154 283.789 210.783 283.517C210.411 283.24 209.953 283.102 209.408 283.102C208.84 283.102 208.366 283.248 207.987 283.539C207.612 283.827 207.33 284.219 207.141 284.716C206.955 285.208 206.862 285.761 206.862 286.375C206.862 286.996 206.957 287.56 207.146 288.068C207.34 288.572 207.624 288.973 207.999 289.272C208.377 289.568 208.847 289.716 209.408 289.716ZM219.413 290.92C218.626 290.92 217.934 290.733 217.34 290.358C216.749 289.983 216.286 289.458 215.953 288.784C215.624 288.109 215.459 287.322 215.459 286.42C215.459 285.511 215.624 284.717 215.953 284.039C216.286 283.361 216.749 282.835 217.34 282.46C217.934 282.085 218.626 281.897 219.413 281.897C220.201 281.897 220.891 282.085 221.482 282.46C222.076 282.835 222.538 283.361 222.868 284.039C223.201 284.717 223.368 285.511 223.368 286.42C223.368 287.322 223.201 288.109 222.868 288.784C222.538 289.458 222.076 289.983 221.482 290.358C220.891 290.733 220.201 290.92 219.413 290.92ZM219.413 289.716C220.012 289.716 220.504 289.562 220.891 289.255C221.277 288.949 221.563 288.545 221.749 288.045C221.934 287.545 222.027 287.003 222.027 286.42C222.027 285.837 221.934 285.293 221.749 284.789C221.563 284.286 221.277 283.878 220.891 283.568C220.504 283.257 220.012 283.102 219.413 283.102C218.815 283.102 218.322 283.257 217.936 283.568C217.55 283.878 217.264 284.286 217.078 284.789C216.893 285.293 216.8 285.837 216.8 286.42C216.8 287.003 216.893 287.545 217.078 288.045C217.264 288.545 217.55 288.949 217.936 289.255C218.322 289.562 218.815 289.716 219.413 289.716ZM225.597 290.738V279.102H226.938V283.397H227.051C227.15 283.246 227.286 283.053 227.46 282.818C227.638 282.579 227.892 282.367 228.222 282.181C228.555 281.992 229.006 281.897 229.574 281.897C230.309 281.897 230.956 282.081 231.517 282.449C232.078 282.816 232.515 283.337 232.83 284.011C233.144 284.685 233.301 285.481 233.301 286.397C233.301 287.322 233.144 288.123 232.83 288.801C232.515 289.475 232.08 289.998 231.523 290.369C230.966 290.736 230.324 290.92 229.597 290.92C229.036 290.92 228.587 290.827 228.25 290.642C227.913 290.452 227.653 290.238 227.472 290C227.29 289.757 227.15 289.556 227.051 289.397H226.892V290.738H225.597ZM226.915 286.375C226.915 287.034 227.011 287.615 227.205 288.119C227.398 288.619 227.68 289.011 228.051 289.295C228.422 289.575 228.877 289.716 229.415 289.716C229.975 289.716 230.443 289.568 230.818 289.272C231.197 288.973 231.481 288.572 231.67 288.068C231.864 287.56 231.96 286.996 231.96 286.375C231.96 285.761 231.866 285.208 231.676 284.716C231.491 284.219 231.208 283.827 230.83 283.539C230.455 283.248 229.983 283.102 229.415 283.102C228.869 283.102 228.411 283.24 228.04 283.517C227.669 283.789 227.388 284.172 227.199 284.664C227.01 285.153 226.915 285.723 226.915 286.375ZM235.352 290.738V282.011H236.648V283.329H236.739C236.898 282.897 237.186 282.547 237.602 282.278C238.019 282.009 238.489 281.875 239.011 281.875C239.11 281.875 239.233 281.877 239.381 281.88C239.528 281.884 239.64 281.89 239.716 281.897V283.261C239.67 283.25 239.566 283.233 239.403 283.21C239.244 283.183 239.076 283.17 238.898 283.17C238.474 283.17 238.095 283.259 237.761 283.437C237.432 283.611 237.17 283.854 236.977 284.164C236.788 284.471 236.693 284.822 236.693 285.216V290.738H235.352ZM242.435 294.011C242.207 294.011 242.005 293.992 241.827 293.954C241.649 293.92 241.526 293.886 241.457 293.852L241.798 292.67C242.124 292.753 242.412 292.784 242.662 292.761C242.912 292.738 243.134 292.627 243.327 292.426C243.524 292.229 243.704 291.909 243.867 291.466L244.117 290.784L240.889 282.011H242.344L244.753 288.966H244.844L247.253 282.011H248.707L245.003 292.011C244.836 292.462 244.63 292.835 244.384 293.13C244.137 293.43 243.851 293.651 243.526 293.795C243.204 293.939 242.84 294.011 242.435 294.011ZM244.185 280.829L245.571 278.193H247.139L245.367 280.829H244.185ZM254.977 282.011H256.318V291.375C256.318 291.913 256.225 292.378 256.04 292.772C255.858 293.166 255.581 293.471 255.21 293.687C254.843 293.903 254.379 294.011 253.818 294.011C253.773 294.011 253.727 294.011 253.682 294.011C253.636 294.011 253.591 294.011 253.545 294.011V292.761C253.591 292.761 253.633 292.761 253.67 292.761C253.708 292.761 253.75 292.761 253.795 292.761C254.205 292.761 254.504 292.64 254.693 292.397C254.883 292.159 254.977 291.818 254.977 291.375V282.011ZM255.636 280.556C255.375 280.556 255.15 280.467 254.96 280.289C254.775 280.111 254.682 279.897 254.682 279.647C254.682 279.397 254.775 279.183 254.96 279.005C255.15 278.827 255.375 278.738 255.636 278.738C255.898 278.738 256.121 278.827 256.307 279.005C256.496 279.183 256.591 279.397 256.591 279.647C256.591 279.897 256.496 280.111 256.307 280.289C256.121 280.467 255.898 280.556 255.636 280.556ZM264.956 283.966L263.751 284.306C263.676 284.106 263.564 283.911 263.416 283.721C263.272 283.528 263.075 283.369 262.825 283.244C262.575 283.119 262.255 283.056 261.865 283.056C261.331 283.056 260.886 283.18 260.53 283.426C260.178 283.668 260.001 283.977 260.001 284.352C260.001 284.685 260.123 284.949 260.365 285.142C260.608 285.335 260.986 285.496 261.501 285.625L262.797 285.943C263.577 286.132 264.159 286.422 264.541 286.812C264.924 287.199 265.115 287.697 265.115 288.306C265.115 288.806 264.971 289.253 264.683 289.647C264.399 290.041 264.001 290.352 263.49 290.579C262.979 290.806 262.384 290.92 261.706 290.92C260.816 290.92 260.079 290.727 259.496 290.341C258.912 289.954 258.543 289.39 258.388 288.647L259.661 288.329C259.782 288.799 260.011 289.151 260.348 289.386C260.689 289.621 261.134 289.738 261.683 289.738C262.308 289.738 262.804 289.606 263.172 289.341C263.543 289.072 263.729 288.75 263.729 288.375C263.729 288.072 263.623 287.818 263.411 287.613C263.198 287.405 262.873 287.25 262.433 287.147L260.979 286.806C260.179 286.617 259.592 286.324 259.217 285.926C258.846 285.524 258.661 285.022 258.661 284.42C258.661 283.928 258.799 283.492 259.075 283.113C259.356 282.734 259.736 282.437 260.217 282.221C260.702 282.005 261.251 281.897 261.865 281.897C262.729 281.897 263.407 282.087 263.899 282.466C264.395 282.844 264.748 283.344 264.956 283.966ZM270.929 282.011V283.147H266.406V282.011H270.929ZM267.724 279.92H269.065V288.238C269.065 288.617 269.12 288.901 269.23 289.091C269.344 289.276 269.488 289.401 269.662 289.466C269.84 289.526 270.027 289.556 270.224 289.556C270.372 289.556 270.493 289.549 270.588 289.534C270.683 289.515 270.759 289.5 270.815 289.488L271.088 290.693C270.997 290.727 270.87 290.761 270.707 290.795C270.545 290.833 270.338 290.852 270.088 290.852C269.709 290.852 269.338 290.77 268.974 290.608C268.615 290.445 268.315 290.197 268.077 289.863C267.842 289.53 267.724 289.109 267.724 288.602V279.92ZM276.511 290.92C275.67 290.92 274.945 290.734 274.335 290.363C273.729 289.988 273.261 289.466 272.932 288.795C272.606 288.121 272.443 287.337 272.443 286.443C272.443 285.549 272.606 284.761 272.932 284.079C273.261 283.394 273.72 282.859 274.307 282.477C274.898 282.091 275.587 281.897 276.375 281.897C276.83 281.897 277.278 281.973 277.722 282.125C278.165 282.276 278.568 282.522 278.932 282.863C279.295 283.2 279.585 283.647 279.801 284.204C280.017 284.761 280.125 285.447 280.125 286.261V286.829H273.398V285.67H278.761C278.761 285.178 278.663 284.738 278.466 284.352C278.273 283.966 277.996 283.661 277.636 283.437C277.28 283.214 276.86 283.102 276.375 283.102C275.841 283.102 275.379 283.234 274.989 283.5C274.602 283.761 274.305 284.102 274.097 284.522C273.888 284.943 273.784 285.394 273.784 285.875V286.647C273.784 287.306 273.898 287.865 274.125 288.324C274.356 288.778 274.676 289.125 275.085 289.363C275.494 289.598 275.97 289.716 276.511 289.716C276.864 289.716 277.182 289.666 277.466 289.568C277.754 289.466 278.002 289.314 278.21 289.113C278.419 288.909 278.58 288.655 278.693 288.352L279.989 288.716C279.852 289.155 279.623 289.541 279.301 289.875C278.979 290.204 278.581 290.462 278.108 290.647C277.635 290.829 277.102 290.92 276.511 290.92ZM139.86 312.738V304.011H141.201V312.738H139.86ZM140.542 302.556C140.281 302.556 140.055 302.467 139.866 302.289C139.68 302.111 139.587 301.897 139.587 301.647C139.587 301.397 139.68 301.183 139.866 301.005C140.055 300.827 140.281 300.738 140.542 300.738C140.803 300.738 141.027 300.827 141.212 301.005C141.402 301.183 141.496 301.397 141.496 301.647C141.496 301.897 141.402 302.111 141.212 302.289C141.027 302.467 140.803 302.556 140.542 302.556ZM144.998 307.488V312.738H143.657V304.011H144.952V305.375H145.066C145.271 304.931 145.581 304.575 145.998 304.306C146.415 304.034 146.952 303.897 147.612 303.897C148.202 303.897 148.719 304.019 149.163 304.261C149.606 304.5 149.951 304.863 150.197 305.352C150.443 305.837 150.566 306.45 150.566 307.193V312.738H149.225V307.284C149.225 306.598 149.047 306.064 148.691 305.681C148.335 305.295 147.846 305.102 147.225 305.102C146.797 305.102 146.415 305.195 146.077 305.38C145.744 305.566 145.481 305.837 145.288 306.193C145.094 306.549 144.998 306.981 144.998 307.488ZM159.84 304.011L156.613 312.738H155.249L152.022 304.011H153.477L155.886 310.966H155.977L158.386 304.011H159.84ZM164.957 312.92C164.116 312.92 163.39 312.734 162.781 312.363C162.175 311.988 161.707 311.466 161.377 310.795C161.051 310.121 160.889 309.337 160.889 308.443C160.889 307.549 161.051 306.761 161.377 306.079C161.707 305.394 162.165 304.859 162.752 304.477C163.343 304.091 164.032 303.897 164.82 303.897C165.275 303.897 165.724 303.973 166.167 304.125C166.61 304.276 167.014 304.522 167.377 304.863C167.741 305.2 168.031 305.647 168.246 306.204C168.462 306.761 168.57 307.447 168.57 308.261V308.829H161.843V307.67H167.207C167.207 307.178 167.108 306.738 166.911 306.352C166.718 305.966 166.442 305.661 166.082 305.437C165.726 305.214 165.305 305.102 164.82 305.102C164.286 305.102 163.824 305.234 163.434 305.5C163.048 305.761 162.75 306.102 162.542 306.522C162.334 306.943 162.229 307.394 162.229 307.875V308.647C162.229 309.306 162.343 309.865 162.57 310.324C162.801 310.778 163.121 311.125 163.531 311.363C163.94 311.598 164.415 311.716 164.957 311.716C165.309 311.716 165.627 311.666 165.911 311.568C166.199 311.466 166.447 311.314 166.656 311.113C166.864 310.909 167.025 310.655 167.139 310.352L168.434 310.716C168.298 311.155 168.068 311.541 167.746 311.875C167.425 312.204 167.027 312.462 166.553 312.647C166.08 312.829 165.548 312.92 164.957 312.92ZM176.792 305.966L175.587 306.306C175.512 306.106 175.4 305.911 175.252 305.721C175.108 305.528 174.911 305.369 174.661 305.244C174.411 305.119 174.091 305.056 173.701 305.056C173.167 305.056 172.722 305.18 172.366 305.426C172.014 305.668 171.837 305.977 171.837 306.352C171.837 306.685 171.959 306.949 172.201 307.142C172.443 307.335 172.822 307.496 173.337 307.625L174.633 307.943C175.413 308.132 175.995 308.422 176.377 308.812C176.76 309.199 176.951 309.697 176.951 310.306C176.951 310.806 176.807 311.253 176.519 311.647C176.235 312.041 175.837 312.352 175.326 312.579C174.815 312.806 174.22 312.92 173.542 312.92C172.652 312.92 171.915 312.727 171.332 312.341C170.748 311.954 170.379 311.39 170.224 310.647L171.496 310.329C171.618 310.799 171.847 311.151 172.184 311.386C172.525 311.621 172.97 311.738 173.519 311.738C174.144 311.738 174.64 311.606 175.008 311.341C175.379 311.072 175.565 310.75 175.565 310.375C175.565 310.072 175.459 309.818 175.246 309.613C175.034 309.405 174.709 309.25 174.269 309.147L172.815 308.806C172.015 308.617 171.428 308.324 171.053 307.926C170.682 307.524 170.496 307.022 170.496 306.42C170.496 305.928 170.635 305.492 170.911 305.113C171.192 304.734 171.572 304.437 172.053 304.221C172.538 304.005 173.087 303.897 173.701 303.897C174.565 303.897 175.243 304.087 175.735 304.466C176.231 304.844 176.584 305.344 176.792 305.966ZM182.765 304.011V305.147H178.242V304.011H182.765ZM179.56 301.92H180.901V310.238C180.901 310.617 180.956 310.901 181.066 311.091C181.18 311.276 181.324 311.401 181.498 311.466C181.676 311.526 181.863 311.556 182.06 311.556C182.208 311.556 182.329 311.549 182.424 311.534C182.519 311.515 182.594 311.5 182.651 311.488L182.924 312.693C182.833 312.727 182.706 312.761 182.543 312.795C182.38 312.833 182.174 312.852 181.924 312.852C181.545 312.852 181.174 312.77 180.81 312.608C180.451 312.445 180.151 312.197 179.913 311.863C179.678 311.53 179.56 311.109 179.56 310.602V301.92ZM188.234 312.92C187.446 312.92 186.755 312.733 186.16 312.358C185.569 311.983 185.107 311.458 184.773 310.784C184.444 310.109 184.279 309.322 184.279 308.42C184.279 307.511 184.444 306.717 184.773 306.039C185.107 305.361 185.569 304.835 186.16 304.46C186.755 304.085 187.446 303.897 188.234 303.897C189.022 303.897 189.711 304.085 190.302 304.46C190.897 304.835 191.359 305.361 191.688 306.039C192.022 306.717 192.188 307.511 192.188 308.42C192.188 309.322 192.022 310.109 191.688 310.784C191.359 311.458 190.897 311.983 190.302 312.358C189.711 312.733 189.022 312.92 188.234 312.92ZM188.234 311.716C188.832 311.716 189.325 311.562 189.711 311.255C190.097 310.949 190.383 310.545 190.569 310.045C190.755 309.545 190.847 309.003 190.847 308.42C190.847 307.837 190.755 307.293 190.569 306.789C190.383 306.286 190.097 305.878 189.711 305.568C189.325 305.257 188.832 305.102 188.234 305.102C187.635 305.102 187.143 305.257 186.756 305.568C186.37 305.878 186.084 306.286 185.898 306.789C185.713 307.293 185.62 307.837 185.62 308.42C185.62 309.003 185.713 309.545 185.898 310.045C186.084 310.545 186.37 310.949 186.756 311.255C187.143 311.562 187.635 311.716 188.234 311.716ZM194.235 312.738V304.011H195.531V305.329H195.621C195.781 304.897 196.068 304.547 196.485 304.278C196.902 304.009 197.371 303.875 197.894 303.875C197.993 303.875 198.116 303.877 198.264 303.88C198.411 303.884 198.523 303.89 198.599 303.897V305.261C198.553 305.25 198.449 305.233 198.286 305.21C198.127 305.183 197.959 305.17 197.781 305.17C197.356 305.17 196.978 305.259 196.644 305.437C196.315 305.611 196.053 305.854 195.86 306.164C195.671 306.471 195.576 306.822 195.576 307.216V312.738H194.235ZM201.166 312.829C200.885 312.829 200.645 312.729 200.444 312.528C200.243 312.327 200.143 312.087 200.143 311.806C200.143 311.526 200.243 311.286 200.444 311.085C200.645 310.884 200.885 310.784 201.166 310.784C201.446 310.784 201.686 310.884 201.887 311.085C202.088 311.286 202.188 311.526 202.188 311.806C202.188 311.992 202.141 312.163 202.046 312.318C201.955 312.473 201.832 312.598 201.677 312.693C201.525 312.784 201.355 312.829 201.166 312.829Z" fill="#FFFDFD"/>
<path d="M20.507 76.5137V258.631" stroke="#721C7A" stroke-linecap="round" stroke-linejoin="round"/>
<path d="M126.881 76.5137V258.631" stroke="#721C7A" stroke-linecap="round" stroke-linejoin="round"/>
<path d="M233.256 76.5137V258.631" stroke="#721C7A" stroke-linecap="round" stroke-linejoin="round"/>
<path d="M33.8036 76.5137V258.631" stroke="#721C7A" stroke-linecap="round" stroke-linejoin="round"/>
<path d="M140.178 76.5137V258.631" stroke="#721C7A" stroke-linecap="round" stroke-linejoin="round"/>
<path d="M246.552 76.5137V258.631" stroke="#721C7A" stroke-linecap="round" stroke-linejoin="round"/>
<path d="M47.1006 76.5137V258.631" stroke="#721C7A" stroke-linecap="round" stroke-linejoin="round"/>
<path d="M153.475 76.5137V258.631" stroke="#721C7A" stroke-linecap="round" stroke-linejoin="round"/>
<path d="M259.849 76.5137V258.631" stroke="#721C7A" stroke-linecap="round" stroke-linejoin="round"/>
<path d="M60.3974 76.5137V258.631" stroke="#721C7A" stroke-linecap="round" stroke-linejoin="round"/>
<path d="M166.772 76.5137V258.631" stroke="#721C7A" stroke-linecap="round" stroke-linejoin="round"/>
<path d="M273.146 76.5137V258.631" stroke="#721C7A" stroke-linecap="round" stroke-linejoin="round"/>
<path d="M73.6943 76.5137V258.631" stroke="#721C7A" stroke-linecap="round" stroke-linejoin="round"/>
<path d="M180.068 76.5137V258.631" stroke="#721C7A" stroke-linecap="round" stroke-linejoin="round"/>
<path d="M286.443 76.5137V258.631" stroke="#721C7A" stroke-linecap="round" stroke-linejoin="round"/>
<path d="M86.9911 76.5137V258.631" stroke="#721C7A" stroke-linecap="round" stroke-linejoin="round"/>
<path d="M193.365 76.5137V258.631" stroke="#721C7A" stroke-linecap="round" stroke-linejoin="round"/>
<path d="M299.74 76.5137V258.631" stroke="#721C7A" stroke-linecap="round" stroke-linejoin="round"/>
<path d="M100.288 76.5137V258.631" stroke="#721C7A" stroke-linecap="round" stroke-linejoin="round"/>
<path d="M206.662 76.5137V258.631" stroke="#721C7A" stroke-linecap="round" stroke-linejoin="round"/>
<path d="M313.036 76.5137V258.631" stroke="#721C7A" stroke-linecap="round" stroke-linejoin="round"/>
<path d="M113.585 76.5137V258.631" stroke="#721C7A" stroke-linecap="round" stroke-linejoin="round"/>
<path d="M219.959 76.5137V258.631" stroke="#721C7A" stroke-linecap="round" stroke-linejoin="round"/>
<path d="M326.333 76.5137V258.631" stroke="#721C7A" stroke-linecap="round" stroke-linejoin="round"/>
<path d="M26.381 246.367L44.0902 222.059L59.2904 147.194L86.7377 143.195L113.516 84.6562L140.295 136.69L150.903 115.174L169.137 189.888L207.738 217.993L224.727 184.106L236.29 205.453L263.775 149.699L278.094 88.9358" stroke="#199CF9" stroke-width="2" stroke-linecap="round" stroke-linejoin="round"/>
<path d="M159.394 161.871H115.031V188.353H159.394V161.871Z" fill="#FFFDFD" stroke="#0B1F42" stroke-width="2" stroke-linecap="round" stroke-linejoin="round"/>
<path d="M159.4 161.872H115.031L122.962 143.332H167.325L159.4 161.872Z" fill="#FF6130" stroke="#0B1F42" stroke-width="2" stroke-linecap="round" stroke-linejoin="round"/>
<path d="M172.923 174.855V152.078L167.328 143.332L159.403 161.872V188.354L172.923 174.855Z" fill="#FFFDFD" stroke="#0B1F42" stroke-width="2" stroke-linecap="round" stroke-linejoin="round"/>
<path d="M153.64 173.41H146.182V188.354H153.64V173.41Z" fill="#FF6130" stroke="#0B1F42" stroke-width="2" stroke-linecap="round" stroke-linejoin="round"/>
<path d="M132.654 165.939H115.031V175.114H132.654V165.939Z" fill="#FF6130" stroke="#0B1F42" stroke-width="2" stroke-linecap="round" stroke-linejoin="round"/>
<path d="M191.919 143.701C191.919 152.348 184.91 159.356 176.263 159.356H173.896C167.353 157.479 160.61 150.848 160.61 143.701C160.608 136.969 167.827 130.257 173.788 128.045C173.788 128.045 174.348 128.045 176.263 128.045C184.91 128.045 191.919 135.053 191.919 143.701Z" fill="#0B1F42" stroke="#0B1F42" stroke-width="2" stroke-linecap="round" stroke-linejoin="round"/>
<path d="M173.895 159.356C182.541 159.356 189.551 152.347 189.551 143.701C189.551 135.054 182.541 128.045 173.895 128.045C165.249 128.045 158.239 135.054 158.239 143.701C158.239 152.347 165.249 159.356 173.895 159.356Z" fill="#A3D7FD" stroke="#0B1F42" stroke-width="2" stroke-linecap="round" stroke-linejoin="round"/>
<path d="M173.894 153.01C175.892 153.01 177.511 151.367 177.511 149.342C177.511 147.316 175.892 145.674 173.894 145.674C171.897 145.674 170.278 147.316 170.278 149.342C170.278 151.367 171.897 153.01 173.894 153.01Z" fill="#0B1F42" stroke="#0B1F42" stroke-width="2" stroke-linecap="round" stroke-linejoin="round"/>
<path d="M166.611 140.971C166.611 140.971 166.954 142.686 168.148 142.686C169.343 142.686 169.7 140.971 169.7 140.971" stroke="#0B1F42" stroke-width="2" stroke-linecap="round" stroke-linejoin="round"/>
<path d="M177.625 140.971C177.625 140.971 177.968 142.686 179.163 142.686C180.357 142.686 180.715 140.971 180.715 140.971" stroke="#0B1F42" stroke-width="2" stroke-linecap="round" stroke-linejoin="round"/>
<path d="M146.156 105.315C146.156 114.171 138.978 121.349 130.122 121.349H127.697C120.996 119.427 114.091 112.635 114.091 105.315C114.088 98.4213 121.482 91.5471 127.587 89.2812C127.587 89.2812 128.16 89.2812 130.122 89.2812C138.978 89.2812 146.156 96.4593 146.156 105.315Z" fill="#0B1F42" stroke="#0B1F42" stroke-width="2" stroke-linecap="round" stroke-linejoin="round"/>
<path d="M127.697 121.349C136.553 121.349 143.731 114.171 143.731 105.315C143.731 96.46 136.553 89.2812 127.697 89.2812C118.842 89.2812 111.663 96.46 111.663 105.315C111.663 114.171 118.842 121.349 127.697 121.349Z" fill="#AA4BB3" stroke="#0B1F42" stroke-width="2" stroke-linecap="round" stroke-linejoin="round"/>
<path d="M131.067 103.402L135.152 103.432" stroke="#0B1F42" stroke-width="2" stroke-linecap="round" stroke-linejoin="round"/>
<path d="M121.822 104.355C122.219 104.355 122.54 103.702 122.54 102.898C122.54 102.094 122.219 101.441 121.822 101.441C121.425 101.441 121.103 102.094 121.103 102.898C121.103 103.702 121.425 104.355 121.822 104.355Z" fill="#0B1F42" stroke="#0B1F42" stroke-width="2" stroke-linecap="round" stroke-linejoin="round"/>
<path d="M121.821 108.58C121.821 108.58 123.073 112.998 127.434 112.998C131.796 112.998 133.102 108.58 133.102 108.58" stroke="#0B1F42" stroke-width="2" stroke-linecap="round" stroke-linejoin="round"/>
<path d="M212.734 226.882H173.787L182.727 220.787H221.674L212.734 226.882Z" fill="#FFFDFD" stroke="#0B1F42" stroke-width="2" stroke-linecap="round" stroke-linejoin="round"/>
<path d="M173.625 226.883L169.868 237.766H216.667L212.66 226.883H173.625Z" fill="#FFD32A" stroke="#0B1F42" stroke-width="2" stroke-linecap="round" stroke-linejoin="round"/>
<path d="M225.591 231.772L221.555 220.787L212.531 226.78L216.567 237.765L225.591 231.772Z" fill="#FF6130" stroke="#0B1F42" stroke-width="2" stroke-linecap="round" stroke-linejoin="round"/>
<path d="M212.734 215.999H173.787L182.727 209.904H221.674L212.734 215.999Z" fill="#FFFDFD" stroke="#0B1F42" stroke-width="2" stroke-linecap="round" stroke-linejoin="round"/>
<path d="M173.625 215.998L169.868 226.882H216.667L212.66 215.998H173.625Z" fill="#FFD32A" stroke="#0B1F42" stroke-width="2" stroke-linecap="round" stroke-linejoin="round"/>
<path d="M225.591 220.889L221.556 209.904L212.531 215.898L216.567 226.882L225.591 220.889Z" fill="#FF6130" stroke="#0B1F42" stroke-width="2" stroke-linecap="round" stroke-linejoin="round"/>
<path d="M212.734 205.118H173.787L182.727 199.023H221.674L212.734 205.118Z" fill="#FFFDFD" stroke="#0B1F42" stroke-width="2" stroke-linecap="round" stroke-linejoin="round"/>
<path d="M173.625 205.115L169.868 215.999H216.667L212.66 205.115H173.625Z" fill="#FFD32A" stroke="#0B1F42" stroke-width="2" stroke-linecap="round" stroke-linejoin="round"/>
<path d="M225.591 210.008L221.556 199.023L212.531 205.017L216.567 216.002L225.591 210.008Z" fill="#FF6130" stroke="#0B1F42" stroke-width="2" stroke-linecap="round" stroke-linejoin="round"/>
<path d="M181.796 237.007H142.849L151.789 230.912H190.736L181.796 237.007Z" fill="#FFFDFD" stroke="#0B1F42" stroke-width="2" stroke-linecap="round" stroke-linejoin="round"/>
<path d="M142.688 237.01L138.931 247.893H185.73L181.723 237.01H142.688Z" fill="#FFD32A" stroke="#0B1F42" stroke-width="2" stroke-linecap="round" stroke-linejoin="round"/>
<path d="M194.655 241.897L190.619 230.912L181.595 236.905L185.631 247.89L194.655 241.897Z" fill="#FF6130" stroke="#0B1F42" stroke-width="2" stroke-linecap="round" stroke-linejoin="round"/>
<path d="M175.599 247.662H158.566V249.64C158.566 250.654 159.404 251.675 161.079 252.451C164.414 254 169.809 254.008 173.122 252.468C174.786 251.695 175.611 250.681 175.597 249.664V247.663L175.599 247.662Z" fill="#FF6130" stroke="#0B1F42" stroke-width="2" stroke-linecap="round" stroke-linejoin="round"/>
<path d="M175.599 247.714C175.614 245.531 171.813 243.745 167.109 243.725C162.406 243.705 158.581 245.457 158.566 247.64C158.551 249.823 162.353 251.609 167.056 251.629C171.759 251.649 175.584 249.897 175.599 247.714Z" fill="#FFD32A" stroke="#0B1F42" stroke-width="2" stroke-linecap="round" stroke-linejoin="round"/>
<path d="M175.599 245.654H158.566V247.632C158.566 248.646 159.404 249.667 161.079 250.443C164.414 251.992 169.809 252 173.122 250.461C174.786 249.688 175.611 248.673 175.597 247.656V245.656L175.599 245.654Z" fill="#FF6130" stroke="#0B1F42" stroke-width="2" stroke-linecap="round" stroke-linejoin="round"/>
<path d="M175.599 245.702C175.614 243.519 171.813 241.733 167.109 241.713C162.406 241.693 158.581 243.446 158.566 245.628C158.551 247.811 162.353 249.597 167.056 249.617C171.759 249.637 175.584 247.885 175.599 245.702Z" fill="#FFD32A" stroke="#0B1F42" stroke-width="2" stroke-linecap="round" stroke-linejoin="round"/>
<path d="M163.767 254.631H146.734V256.609C146.734 257.623 147.572 258.644 149.247 259.42C152.582 260.969 157.977 260.977 161.29 259.437C162.954 258.664 163.779 257.65 163.765 256.633V254.632L163.767 254.631Z" fill="#FF6130" stroke="#0B1F42" stroke-width="2" stroke-linecap="round" stroke-linejoin="round"/>
<path d="M163.767 254.681C163.782 252.498 159.98 250.712 155.277 250.692C150.574 250.671 146.749 252.424 146.734 254.607C146.719 256.79 150.521 258.576 155.224 258.596C159.927 258.616 163.752 256.863 163.767 254.681Z" fill="#FFD32A" stroke="#0B1F42" stroke-width="2" stroke-linecap="round" stroke-linejoin="round"/>
<path d="M212.708 190.362C212.708 196.732 207.546 201.894 201.176 201.894H199.432C194.613 200.512 189.646 195.627 189.646 190.362C189.644 185.404 194.962 180.46 199.352 178.83C199.352 178.83 199.765 178.83 201.176 178.83C207.546 178.83 212.708 183.993 212.708 190.362Z" fill="#0B1F42" stroke="#0B1F42" stroke-width="2" stroke-linecap="round" stroke-linejoin="round"/>
<path d="M199.432 201.894C205.801 201.894 210.964 196.731 210.964 190.362C210.964 183.993 205.801 178.83 199.432 178.83C193.063 178.83 187.9 183.993 187.9 190.362C187.9 196.731 193.063 201.894 199.432 201.894Z" fill="#FFD32A" stroke="#0B1F42" stroke-width="2" stroke-linecap="round" stroke-linejoin="round"/>
<path d="M195.204 192.652C195.204 192.652 196.104 195.83 199.241 195.83C202.378 195.83 203.317 192.652 203.317 192.652" stroke="#0B1F42" stroke-width="2" stroke-linecap="round" stroke-linejoin="round"/>
<path d="M194.067 188.354C194.067 188.354 194.32 189.617 195.2 189.617C196.08 189.617 196.343 188.354 196.343 188.354" stroke="#0B1F42" stroke-width="2" stroke-linecap="round" stroke-linejoin="round"/>
<path d="M202.18 188.354C202.18 188.354 202.433 189.617 203.313 189.617C204.193 189.617 204.456 188.354 204.456 188.354" stroke="#0B1F42" stroke-width="2" stroke-linecap="round" stroke-linejoin="round"/>
<path d="M224.707 123.656C224.707 121.801 226.211 120.297 228.066 120.297H292.653C294.508 120.297 296.012 121.801 296.012 123.656V164.711C296.012 166.566 294.508 168.07 292.653 168.07H228.066C226.211 168.07 224.707 166.566 224.707 164.711V123.656Z" fill="#EB4C79" stroke="#0B1F42" stroke-width="2" stroke-linecap="round" stroke-linejoin="round"/>
<path d="M250.28 84.1148C250.28 82.2597 251.783 80.7559 253.639 80.7559H318.226C320.081 80.7559 321.585 82.2597 321.585 84.1148V125.17C321.585 127.025 320.081 128.529 318.226 128.529H253.639C251.783 128.529 250.28 127.025 250.28 125.17V84.1148Z" fill="#02A3A4" stroke="#0B1F42" stroke-width="2" stroke-linecap="round" stroke-linejoin="round"/>
<path d="M229.663 150.875L239.106 148.514L241.91 152.203L247.516 148.514L257.697 153.826L265.517 142.17L269.501 148.514L274.075 146.449L278.354 150.875L282.78 147.334L289.272 157.515" stroke="#0B1F42" stroke-width="2" stroke-linecap="round" stroke-linejoin="round"/>
<path d="M290.306 153.756L289.42 157.666L285.068 156.559" stroke="#0B1F42" stroke-width="2" stroke-linecap="round" stroke-linejoin="round"/>
<path d="M260.359 86.5156L264.192 93.1553H256.525L260.359 86.5156Z" fill="#FFFDFD" stroke="#FFFDFD" stroke-width="2" stroke-linecap="round" stroke-linejoin="round"/>
<path d="M234.586 132.953L230.753 126.313L238.42 126.313L234.586 132.953Z" fill="#0B1F42" stroke="#0B1F42" stroke-width="2" stroke-linecap="round" stroke-linejoin="round"/>
<path d="M256.908 119.581L266.46 117.639L271.145 113.756L276.38 103.292L279.136 109.225L282.35 105.773L289.147 121.846L296.495 102.321L298.424 104.91L304.395 91.318L308.069 95.7408L313.029 87.2188" stroke="#FFFDFD" stroke-width="2" stroke-linecap="round" stroke-linejoin="round"/>
<path d="M309.355 88.4099L313.029 87.1699L314.218 91.0091" stroke="#FFFDFD" stroke-width="2" stroke-linecap="round" stroke-linejoin="round"/>
<path d="M316.357 126.76C316.357 137.206 307.89 145.674 297.443 145.674H294.582C286.678 143.406 278.532 135.394 278.532 126.76C278.529 118.627 287.251 110.519 294.452 107.846C294.452 107.846 295.128 107.846 297.443 107.846C307.89 107.846 316.357 116.313 316.357 126.76Z" fill="#0B1F42" stroke="#0B1F42" stroke-width="2" stroke-linecap="round" stroke-linejoin="round"/>
<path d="M294.582 145.674C305.028 145.674 313.496 137.206 313.496 126.76C313.496 116.314 305.028 107.846 294.582 107.846C284.136 107.846 275.668 116.314 275.668 126.76C275.668 137.206 284.136 145.674 294.582 145.674Z" fill="#FFFDFD" stroke="#0B1F42" stroke-width="2" stroke-linecap="round" stroke-linejoin="round"/>
<path d="M287.649 125.536C288.117 125.536 288.497 124.767 288.497 123.818C288.497 122.869 288.117 122.1 287.649 122.1C287.181 122.1 286.802 122.869 286.802 123.818C286.802 124.767 287.181 125.536 287.649 125.536Z" fill="#0B1F42" stroke="#0B1F42" stroke-width="2" stroke-linecap="round" stroke-linejoin="round"/>
<path d="M300.955 125.536C301.423 125.536 301.803 124.767 301.803 123.818C301.803 122.869 301.423 122.1 300.955 122.1C300.487 122.1 300.108 122.869 300.108 123.818C300.108 124.767 300.487 125.536 300.955 125.536Z" fill="#0B1F42" stroke="#0B1F42" stroke-width="2" stroke-linecap="round" stroke-linejoin="round"/>
<path d="M294.582 137.886C296.995 137.886 298.951 135.902 298.951 133.455C298.951 131.007 296.995 129.023 294.582 129.023C292.169 129.023 290.213 131.007 290.213 133.455C290.213 135.902 292.169 137.886 294.582 137.886Z" fill="#0B1F42" stroke="#0B1F42" stroke-width="2" stroke-linecap="round" stroke-linejoin="round"/>
<path d="M79.5935 150.222C79.5935 160.08 71.6038 168.069 61.7463 168.069H59.0473C51.5886 165.93 43.9023 158.37 43.9023 150.222C43.8991 142.549 52.129 134.897 58.924 132.375C58.924 132.375 59.5624 132.375 61.7463 132.375C71.6038 132.375 79.5935 140.365 79.5935 150.222Z" fill="#0B1F42" stroke="#0B1F42" stroke-width="2" stroke-linecap="round" stroke-linejoin="round"/>
<path d="M59.0484 168.069C68.9051 168.069 76.8956 160.079 76.8956 150.222C76.8956 140.365 68.9051 132.375 59.0484 132.375C49.1916 132.375 41.2012 140.365 41.2012 150.222C41.2012 160.079 49.1916 168.069 59.0484 168.069Z" fill="#EB4C79" stroke="#0B1F42" stroke-width="2" stroke-linecap="round" stroke-linejoin="round"/>
<path d="M62.8578 147.854L68.1932 147.369" stroke="#0B1F42" stroke-width="2" stroke-linecap="round" stroke-linejoin="round"/>
<path d="M54.375 147.854L49.0396 147.369" stroke="#0B1F42" stroke-width="2" stroke-linecap="round" stroke-linejoin="round"/>
<path d="M52.5068 153.768C52.5068 153.768 53.9006 158.685 58.7551 158.685C63.6096 158.685 65.0634 153.768 65.0634 153.768" stroke="#0B1F42" stroke-width="2" stroke-linecap="round" stroke-linejoin="round"/>
</svg>

