<svg width="106" height="41" viewBox="0 0 106 41" fill="none" xmlns="http://www.w3.org/2000/svg">
<path d="M86.9468 20.3615H101.539V18.4027H86.9749C86.9633 18.1766 86.9699 13.7592 86.9402 11.7179C86.9154 9.97702 88.1036 8.28231 90.3494 8.32026C94.4418 8.38792 98.5392 8.38792 102.632 8.31696C104.396 8.28561 106.001 9.58098 106 11.6882C106 11.982 105.998 12.3417 105.998 12.7229H91.3923V14.6354L105.998 14.6321C105.998 14.8945 106.003 19.3186 105.998 21.3763C105.991 23.4472 104.665 24.7492 102.569 24.7509C98.5095 24.7509 94.4501 24.7509 90.3907 24.7509C88.2785 24.7509 86.9567 23.434 86.9484 21.3235C86.9484 21.0298 86.9484 20.736 86.9484 20.3615" fill="white"/>
<path d="M96.4896 6.27555C94.7635 6.27555 93.3675 4.85312 93.3774 3.10725C93.3856 1.39109 94.7883 -0.00329447 96.5011 5.84648e-06C98.2123 0.00330616 99.6117 1.40429 99.615 3.1188C99.6183 4.86137 98.2173 6.2772 96.4896 6.27555Z" fill="white"/>
<path d="M4.05774 28.2627C5.95047 28.2627 6.50657 28.4739 6.50657 29.1802V29.7363H4.05774C2.34487 29.7363 1.69801 30.5185 1.69801 33.1472C1.69801 35.7759 2.34487 36.5729 4.05774 36.5729H6.50657V37.129C6.50657 37.8204 5.95047 38.03 4.05774 38.03C1.32343 38.03 0 36.5267 0 33.1455C0 29.7644 1.32178 28.2611 4.05774 28.2611V28.2627ZM3.7112 27.738C3.51648 27.738 3.41087 27.6786 3.23101 27.4822L1.96864 26.0103C1.89273 25.9343 1.89273 25.8452 1.89273 25.7842H2.58415C2.79372 25.7842 2.88447 25.8287 3.09569 26.0103L3.92242 26.7165L4.764 26.0103C4.97522 25.8304 5.06433 25.7842 5.2607 25.7842H5.95212C5.95212 25.8436 5.95211 25.9343 5.89271 26.0103L4.61549 27.4822C4.43562 27.6769 4.33001 27.738 4.13529 27.738H3.7145H3.7112Z" fill="white"/>
<path d="M12.7722 36.8285V37.2493C12.7722 37.8648 11.9455 38.0315 10.127 38.0315C7.6023 38.0315 6.82178 36.3038 6.82178 34.1998C6.82178 32.0959 7.64851 30.3682 10.1122 30.3682C12.0957 30.3682 13.132 31.5101 13.132 33.2081C13.132 33.5843 13.132 33.8698 13.0561 34.6206H8.45708C8.45708 36.2279 9.05774 36.8302 10.3053 36.8302H12.7689L12.7722 36.8285ZM11.5412 33.5678C11.5561 33.4325 11.5561 33.1619 11.5561 32.9969C11.5561 32.3203 11.2706 31.4936 10.1287 31.4936C9.07754 31.4936 8.52144 32.0942 8.46038 33.5678H11.5412Z" fill="white"/>
<path d="M16.7243 30.3662C18.1666 30.3662 19.1434 30.4108 19.1434 31.1319V31.5675H16.7095C16.0329 31.5675 15.627 31.853 15.627 32.2738C15.627 33.6863 19.5345 33.2804 19.5345 35.82C19.5345 37.0526 18.7375 38.0295 16.4537 38.0295C15.1171 38.0295 13.8844 38.0295 13.8844 37.3381V36.8266H16.589C17.49 36.8266 17.8811 36.5559 17.8811 35.9553C17.8811 34.6781 13.9587 34.9041 13.9587 32.3794C13.9587 31.117 14.9801 30.3662 16.7243 30.3662Z" fill="white"/>
<path d="M22.1797 33.7922L25.0048 30.7872C25.1995 30.5166 25.32 30.4424 25.6517 30.4424H26.9883C26.9883 30.5628 26.9437 30.6684 26.853 30.7724L23.7573 33.9588L26.8678 37.6255C26.9586 37.7311 26.9883 37.8516 26.9883 37.9555H25.5312C25.1698 37.9555 25.051 37.8202 24.8249 37.505L22.1797 34.3796V37.9555H20.6022V28.7889C20.6022 28.3087 20.782 28.0381 21.2787 28.0381H22.1797V33.7938V33.7922Z" fill="white"/>
<path d="M32.8628 36.8282V37.249C32.8628 37.8645 32.0361 38.0312 30.2176 38.0312C27.6929 38.0312 26.9124 36.3035 26.9124 34.1995C26.9124 32.0956 27.7391 30.3679 30.2028 30.3679C32.1863 30.3679 33.2226 31.5098 33.2226 33.2078C33.2226 33.584 33.2226 33.8695 33.1466 34.6203H28.5477C28.5477 36.2276 29.1483 36.8299 30.3958 36.8299H32.8595L32.8628 36.8282ZM31.6302 33.5675C31.645 33.4322 31.645 33.1616 31.645 32.9966C31.645 32.32 31.3595 31.4933 30.2176 31.4933C29.1648 31.4933 28.6104 32.0939 28.5493 33.5675H31.6302ZM30.7292 29.6154C30.5196 29.8101 30.4288 29.8415 30.2176 29.8415H29.5262C29.5262 29.7821 29.5262 29.6913 29.6021 29.6154L30.8645 28.1435C31.0443 27.9488 31.15 27.8877 31.3447 27.8877H32.0361C32.1417 27.8877 32.216 27.9322 32.216 28.0082C32.216 28.0676 32.1863 28.1286 32.0658 28.2639L30.7292 29.6171V29.6154Z" fill="white"/>
<path d="M40.046 30.3662C41.4882 30.3662 42.4651 30.4108 42.4651 31.1319V31.5675H40.0311C39.3546 31.5675 38.9486 31.853 38.9486 32.2738C38.9486 33.6863 42.8562 33.2804 42.8562 35.82C42.8562 37.0526 42.0592 38.0295 39.7753 38.0295C38.4387 38.0295 37.2061 38.0295 37.2061 37.3381V36.8266H39.9107C40.8116 36.8266 41.2027 36.5559 41.2027 35.9553C41.2027 34.6781 37.2803 34.9041 37.2803 32.3794C37.2803 31.117 38.3018 30.3662 40.046 30.3662Z" fill="white"/>
<path d="M45.4998 40.2094H43.9222V30.4421H44.749C45.3051 30.4421 45.4998 30.7424 45.4998 31.1038V31.3134C45.9503 30.8184 46.6565 30.3662 47.5427 30.3662C49.4354 30.3662 50.2935 31.8382 50.2935 34.1979C50.2935 36.5576 49.4371 38.0295 47.5427 38.0295C46.6565 38.0295 45.9503 37.579 45.4998 37.0972V40.2077V40.2094ZM46.9882 31.6137C46.4024 31.6137 45.9057 31.8547 45.4998 32.1698V36.2127C45.9057 36.5279 46.4008 36.7688 46.9882 36.7688C48.206 36.7688 48.6565 35.8827 48.6565 34.1995C48.6565 32.5164 48.206 31.6154 46.9882 31.6154V31.6137Z" fill="white"/>
<path d="M51.1962 34.1979C51.1962 32.0939 51.9618 30.3662 54.5014 30.3662C57.041 30.3662 57.8067 32.0939 57.8067 34.1979C57.8067 36.3018 57.041 38.0295 54.5014 38.0295C51.9618 38.0295 51.1962 36.3018 51.1962 34.1979ZM56.1846 34.1979C56.1846 32.4553 55.7935 31.4933 54.5014 31.4933C53.2094 31.4933 52.8331 32.4553 52.8331 34.1979C52.8331 35.9404 53.2094 36.9025 54.5014 36.9025C55.7935 36.9025 56.1846 35.9553 56.1846 34.1979Z" fill="white"/>
<path d="M60.6168 29.8395C60.4221 29.8395 60.3165 29.7801 60.1366 29.5838L58.8742 28.1118C58.7983 28.0359 58.7983 27.9468 58.7983 27.8857H59.4898C59.701 27.8857 59.7901 27.9303 60.0013 28.1118L60.828 28.8181L61.6696 28.1118C61.8792 27.9319 61.9699 27.8857 62.1663 27.8857H62.8577C62.8577 27.9451 62.8577 28.0359 62.7983 28.1118L61.5211 29.5838C61.3412 29.7785 61.2356 29.8395 61.0409 29.8395H60.6201H60.6168ZM59.0541 37.955V30.4418H59.8808C60.3924 30.4418 60.602 30.8181 60.6317 31.389C61.2472 30.592 62.0293 30.3676 62.63 30.3676C62.9006 30.3676 63.1713 30.4435 63.1713 30.7438V31.9154H62.795C61.6383 31.9154 61.0822 32.1563 60.6317 32.4715V37.9566H59.0541V37.955Z" fill="white"/>
<path d="M65.3808 29.6602H63.8033V28.7889C63.8033 28.3087 63.9832 28.0381 64.4798 28.0381H65.3808V29.6602ZM63.8016 30.4424H64.6878C65.1828 30.4424 65.3792 30.713 65.3792 31.1932V37.9555H63.8016V30.4424Z" fill="white"/>
<path d="M68.9419 30.4418H70.625V31.6135H68.9419V35.9864C68.9419 36.5722 69.0178 36.7982 69.5277 36.7982H70.625V37.1893C70.625 37.8197 70.0838 38.0012 69.2273 38.0012C67.5145 38.0012 67.3643 37.0854 67.3643 35.988V31.6151H66.3726V30.7438L67.3643 30.4435L67.9353 29.2405C68.1003 28.9254 68.2207 28.79 68.5062 28.79H68.9419V30.4435V30.4418Z" fill="white"/>
<path d="M76.9352 36.8285V37.2493C76.9352 37.8648 76.1085 38.0315 74.29 38.0315C71.7653 38.0315 70.9847 36.3038 70.9847 34.1998C70.9847 32.0959 71.8115 30.3682 74.2751 30.3682C76.2586 30.3682 77.2949 31.5101 77.2949 33.2081C77.2949 33.5843 77.2949 33.8698 77.219 34.6206H72.62C72.62 36.2279 73.2207 36.8302 74.4682 36.8302H76.9319L76.9352 36.8285ZM75.7025 33.5678C75.7174 33.4325 75.7174 33.1619 75.7174 32.9969C75.7174 32.3203 75.4319 31.4936 74.29 31.4936C73.2372 31.4936 72.6827 32.0942 72.6217 33.5678H75.7025Z" fill="white"/>
<path d="M80.0755 37.9555H78.4979V28.7889C78.4979 28.3087 78.6778 28.0381 79.1745 28.0381H80.0755V37.9555Z" fill="white"/>
<path d="M81.729 37.9556V30.4424H82.5557C83.1118 30.4424 83.3066 30.7279 83.3066 31.0893V31.3154C83.9534 30.6388 84.7339 30.3682 85.5161 30.3682C87.0788 30.3682 87.8296 31.3154 87.8296 32.6982V37.9572H86.2521V32.7724C86.2521 31.9457 85.7257 31.6157 84.8841 31.6157C84.3132 31.6157 83.7273 31.8566 83.3066 32.1718V37.9572H81.729V37.9556Z" fill="white"/>
<path d="M93.9451 36.9021C93.3131 37.5787 92.5325 37.8493 91.7669 37.8493C90.2042 37.8493 89.422 36.9021 89.422 35.5193V30.4401H90.9995V35.4434C90.9995 36.2701 91.5408 36.6002 92.3824 36.6002C92.9533 36.6002 93.5243 36.3592 93.9451 36.0441V30.4385H95.5226V37.2305C95.5226 38.884 94.7718 40.2817 92.2174 40.2817C90.384 40.2817 89.6926 40.1166 89.6926 39.4846V39.0787H92.0061C93.2388 39.0787 93.9451 38.7025 93.9451 37.0952V36.9005V36.9021Z" fill="white"/>
<path d="M10.2722 19.2559C10.1963 17.5958 10.1963 16.3186 10.1963 14.2493V8.39948H13.5181V23.5496C13.5181 24.3152 13.16 24.802 12.2145 24.802H10.2211C9.55606 24.802 9.27553 24.7261 8.94385 24.1123L3.32342 13.8929H3.24751C3.32342 15.911 3.32342 16.9324 3.32342 18.4918V24.7509H0V9.70146C0 8.85823 0.460394 8.34668 1.40593 8.34668H3.29701C3.96038 8.34668 4.24255 8.42259 4.60064 9.03644L10.1699 19.2559H10.2722Z" fill="white"/>
<path d="M23.6072 8.34668C24.2722 8.34668 24.5775 8.42259 24.7309 8.98529L28.8943 24.1354C28.9454 24.3647 28.9702 24.5958 28.9702 24.7492H26.0329C25.3695 24.7492 25.1649 24.7245 25.0114 24.1618L24.0923 20.6866H19.622L18.7029 24.1618C18.5758 24.7245 18.3712 24.7492 17.7062 24.7492H14.7689C14.7689 24.5958 14.7937 24.3912 14.8448 24.1354L19.0346 8.98529C19.188 8.42259 19.495 8.34668 20.1583 8.34668H23.6072ZM20.2342 17.8763H23.4273L21.8943 12.18H21.7672L20.2342 17.8763Z" fill="white"/>
<path d="M30.2227 9.80174C30.2227 8.88261 30.6319 8.39746 31.5774 8.39746H36.7886C41.2589 8.39746 43.7622 10.7737 43.7622 16.5723C43.7622 22.371 41.2589 24.7472 36.7886 24.7472H31.5774C30.6319 24.7472 30.2227 24.2621 30.2227 23.3429V9.80174ZM33.9273 11.5394V21.6301H36.6863C38.7045 21.6301 39.9569 20.5575 39.9569 16.5723C39.9569 12.5872 38.7045 11.5394 36.6863 11.5394H33.9273Z" fill="white"/>
<path d="M52.9073 8.34668C53.5723 8.34668 53.8776 8.42259 54.0311 8.98529L58.1944 24.1354C58.2456 24.3647 58.2703 24.5958 58.2703 24.7492H55.3331C54.6697 24.7492 54.4651 24.7245 54.3116 24.1618L53.3925 20.6866H48.9222L48.0031 24.1618C47.876 24.7245 47.6714 24.7492 47.0064 24.7492H44.0691C44.0691 24.5958 44.0938 24.3912 44.145 24.1354L48.3347 8.98529C48.4882 8.42259 48.7951 8.34668 49.4585 8.34668H52.9073ZM49.5361 17.8763H52.7291L51.1961 12.18H51.0691L49.5361 17.8763Z" fill="white"/>
<path d="M65.7059 8.27051C69.13 8.27051 70.2273 8.80681 70.2273 10.1352V11.49H65.7059C63.1762 11.49 62.3841 12.589 62.3841 16.5741C62.3841 20.5592 63.1762 21.6582 65.7059 21.6582H70.2273V23.013C70.2273 24.3414 69.1283 24.8777 65.7059 24.8777C61.031 24.8777 58.5789 22.3744 58.5789 16.5757C58.5789 10.7771 61.031 8.27381 65.7059 8.27381V8.27051Z" fill="white"/>
<path d="M71.5046 9.80174C71.5046 8.88261 71.9139 8.39746 72.8594 8.39746H82.1581V10.1862C82.1581 11.1054 81.6729 11.541 80.701 11.541H75.2076V14.9387H81.2109V17.876H75.2076V21.6317H82.2835V23.4205C82.2835 24.3396 81.7983 24.7489 80.8528 24.7489H72.8561C71.9106 24.7489 71.5013 24.2637 71.5013 23.3446V9.80174H71.5046Z" fill="white"/>
</svg>
